<?xml version="1.0" encoding="UTF-8"?>
<!DOCTYPE svg PUBLIC "-//W3C//DTD SVG 1.1//EN" "http://www.w3.org/Graphics/SVG/1.1/DTD/svg11.dtd">
<!-- Creator: CorelDRAW -->
<svg xmlns="http://www.w3.org/2000/svg" xml:space="preserve" width="2048px" height="2048px" style="shape-rendering:geometricPrecision; text-rendering:geometricPrecision; image-rendering:optimizeQuality; fill-rule:evenodd; clip-rule:evenodd"
viewBox="0 0 2048 2048"
 xmlns:xlink="http://www.w3.org/1999/xlink">
 <defs>
  <style type="text/css">
   <![CDATA[
    .fil1 {fill:none}
    .fil0 {fill:#424242}
   ]]>
  </style>
 </defs>
 <g id="Layer_x0020_1">
  <metadata id="CorelCorpID_0Corel-Layer"/>
  <g id="_337086008">
   <path id="_337086872" class="fil0" d="M1439.74 1023.39c16.7339,-185.218 166.014,-332.179 352.257,-345.296l0 -1.94882c-191.3,-13.4646 -343.615,-168.143 -353.345,-360.45l-1.00512 0c-9.72757,192.307 -162.043,346.988 -353.344,360.461l0 1.94882c186.243,13.1079 335.523,160.067 352.268,345.285l3.1689 0z"/>
   <path id="_337086824" class="fil0" d="M1580.5 928.735l0 803.574 -572.463 0 0 -634.353 -441.984 0 0 634.353 -98.5501 0 0 -798.578 571.212 -367.844 102.899 68.915c-19.2662,4.78583 -39.1618,7.99371 -59.556,9.42993l-29.7508 2.09528 0 61.5993 29.7532 2.0941c170.235,11.9823 307.283,146.307 322.646,316.246l2.63268 29.1189 61.6465 0 2.63032 -29.1201c4.6004,-50.9256 20.1402,-98.6457 44.2158,-140.841l64.6689 43.3099zm-456.323 516.478l133.565 0 0 -140.932 -133.565 0 0 140.932zm166.957 0l133.565 0 0 -140.932 -133.565 0 0 140.932zm133.565 -174.324l0 -140.933 -133.565 0 0 140.933 133.565 0zm-166.957 -140.933l-133.565 0 0 140.933 133.565 0 0 -140.933z"/>
   <path id="_337085840" class="fil0" d="M1532.96 858.382l259.042 173.488 0 -180.705 -144.646 -96.8729c-45.4441,25.7551 -84.5599,61.4256 -114.396,104.091zm-218.202 -326.841l-275.698 -184.642 -783.058 504.265 0 180.705 783.058 -504.265 141.767 94.9453c51.6331,-19.5732 97.3796,-51.026 133.931,-91.0087z"/>
   <path id="_337085816" class="fil0" d="M598.05 1732.31l377.985 0 0 -602.353 -377.985 0 0 602.353zm335.821 -351.264c0,-8.83583 -7.16457,-16.0004 -16.0004,-16.0004 -8.83583,0 -16.0004,7.16457 -16.0004,16.0004l0 100.174c0,8.83583 7.16457,16.0004 16.0004,16.0004 8.83583,0 16.0004,-7.16457 16.0004,-16.0004l0 -100.174z"/>
  </g>
 </g>
 <rect class="fil1" width="2048" height="2048"/>
</svg>
