<?xml version="1.0" encoding="UTF-8"?>
<!DOCTYPE svg PUBLIC "-//W3C//DTD SVG 1.1//EN" "http://www.w3.org/Graphics/SVG/1.1/DTD/svg11.dtd">
<!-- Creator: CorelDRAW -->
<svg xmlns="http://www.w3.org/2000/svg" xml:space="preserve" width="2048px" height="2048px" style="shape-rendering:geometricPrecision; text-rendering:geometricPrecision; image-rendering:optimizeQuality; fill-rule:evenodd; clip-rule:evenodd"
viewBox="0 0 2048 2048"
 xmlns:xlink="http://www.w3.org/1999/xlink">
 <defs>
  <style type="text/css">
   <![CDATA[
    .fil2 {fill:none}
    .fil0 {fill:#424242}
    .fil1 {fill:#424242;fill-rule:nonzero}
   ]]>
  </style>
 </defs>
 <g id="Layer_x0020_1">
  <metadata id="CorelCorpID_0Corel-Layer"/>
  <g id="_337087688">
   <ellipse id="_337087856" class="fil0" cx="389.688" cy="1522.66" rx="133.688" ry="133.688"/>
   <path id="_337087232" class="fil0" d="M553.284 1549.09l378.819 0 0 -255.913 -125.376 0c-85.3477,0 -162.93,-34.9075 -219.167,-91.1446 -56.2347,-56.2335 -91.141,-133.815 -91.141,-219.166l0 -321.166 -113.649 0 0 695.416c2.29606,-0.0944883 4.6004,-0.154725 6.9189,-0.154725 91.5154,0 165.702,74.1863 165.702,165.702 0,8.99528 -0.72756,17.8181 -2.10591,26.426zm378.819 -287.928l0 -261.409c0,-185.929 -152.12,-338.052 -338.051,-338.052l-65.6197 0 0 321.166c0,76.5131 31.3158,146.084 81.7619,196.531 50.4496,50.4496 120.021,81.7642 196.532,81.7642l125.376 0z"/>
   <path id="_337087448" class="fil0" d="M963.451 1126.92c54.88,14.6232 95.6174,64.8827 95.6174,124.204l0 69.1418c0,59.3209 -40.7374,109.58 -95.6174,124.204l0 -317.549z"/>
   <g>
    <path id="_337087784" class="fil1" d="M1059.94 1253.68c-17.6811,0 -32.015,14.3351 -32.015,32.015 0,17.6799 14.3339,32.015 32.015,32.015 218.14,0 266.594,-114.169 266.594,-289.592 0,-57.4536 -5.91378,-123.719 -12.2847,-195.131 -7.17402,-80.4012 -14.9528,-167.583 -14.9528,-259.403 0,-32.3918 13.2744,-61.8626 34.6571,-83.2465 21.3851,-21.3851 50.8559,-34.6571 83.2465,-34.6571l0.0011811 0c32.3906,0 61.8615,13.2744 83.2453,34.6583 21.3839,21.3851 34.6583,50.8548 34.6583,83.2453l0 904.961c0,17.6799 14.3351,32.0138 32.015,32.0138 17.6799,0 32.015,-14.3339 32.015,-32.0138l0 -904.961c0,-50.0646 -20.4591,-95.556 -53.4189,-128.515 -32.9587,-32.9587 -78.4512,-53.4189 -128.515,-53.4189l-0.0011811 0c-50.0634,0 -95.556,20.4591 -128.516,53.4178 -32.9587,32.9587 -53.4178,78.4501 -53.4178,128.516 0,91.7091 8.03977,181.81 15.4547,264.905 6.10985,68.4993 11.7827,132.062 11.7827,189.63 0,136.637 -36.815,225.562 -202.564,225.562z"/>
    <rect id="_337087880" class="fil0" x="1342.24" y="1478.55" width="449.758" height="120.144"/>
   </g>
   <path id="_337087760" class="fil1" d="M622.074 570.504c0,-17.6811 -14.3351,-32.015 -32.015,-32.015 -17.6799,0 -32.015,14.3339 -32.015,32.015l0 127.65c0,17.6811 14.3351,32.015 32.015,32.015 17.6799,0 32.015,-14.3339 32.015,-32.015l0 -127.65z"/>
  </g>
 </g>
 <rect class="fil2" width="2048" height="2048"/>
</svg>
