<?xml version="1.0" encoding="UTF-8"?>
<!DOCTYPE svg PUBLIC "-//W3C//DTD SVG 1.1//EN" "http://www.w3.org/Graphics/SVG/1.1/DTD/svg11.dtd">
<!-- Creator: CorelDRAW -->
<svg xmlns="http://www.w3.org/2000/svg" xml:space="preserve" width="2048px" height="2048px" style="shape-rendering:geometricPrecision; text-rendering:geometricPrecision; image-rendering:optimizeQuality; fill-rule:evenodd; clip-rule:evenodd"
viewBox="0 0 2048 2048"
 xmlns:xlink="http://www.w3.org/1999/xlink">
 <defs>
  <style type="text/css">
   <![CDATA[
    .fil2 {fill:none}
    .fil0 {fill:#424242}
    .fil1 {fill:#424242;fill-rule:nonzero}
   ]]>
  </style>
 </defs>
 <g id="Layer_x0020_1">
  <metadata id="CorelCorpID_0Corel-Layer"/>
  <g id="_337088600">
   <path id="_337088984" class="fil0" d="M1024 1450.65c188.521,0 341.347,152.828 341.347,341.347l-682.693 0c0,-188.519 152.826,-341.347 341.346,-341.347z"/>
   <path id="_337088072" class="fil0" d="M1201.45 1461.88c1.14449,-42.6922 -8.37402,-109.134 -76.9619,-117.984l-100.487 0 -100.486 0c-68.5867,8.85001 -78.1064,75.293 -76.9619,117.984 52.8237,-28.4551 113.247,-44.615 177.448,-44.615 64.2,0 124.625,16.1599 177.449,44.615z"/>
   <polygon id="_337088024" class="fil0" points="1114.55,1311.2 1114.55,1157.5 933.45,1157.5 933.45,1311.2 "/>
   <path id="_337088120" class="fil1" d="M990.609 1190.84c0,18.4406 14.9504,33.391 33.391,33.391 18.4406,0 33.391,-14.9504 33.391,-33.391l0 -901.453c0,-18.4406 -14.9504,-33.391 -33.391,-33.391 -18.4406,0 -33.391,14.9504 -33.391,33.391l0 901.453z"/>
  </g>
 </g>
 <rect class="fil2" width="2048" height="2048"/>
</svg>
