<?xml version="1.0" encoding="UTF-8"?>
<!DOCTYPE svg PUBLIC "-//W3C//DTD SVG 1.1//EN" "http://www.w3.org/Graphics/SVG/1.1/DTD/svg11.dtd">
<!-- Creator: CorelDRAW -->
<svg xmlns="http://www.w3.org/2000/svg" xml:space="preserve" width="2048px" height="2048px" style="shape-rendering:geometricPrecision; text-rendering:geometricPrecision; image-rendering:optimizeQuality; fill-rule:evenodd; clip-rule:evenodd"
viewBox="0 0 2048 2048"
 xmlns:xlink="http://www.w3.org/1999/xlink">
 <defs>
  <style type="text/css">
   <![CDATA[
    .fil2 {fill:none}
    .fil0 {fill:#424242}
    .fil1 {fill:#424242;fill-rule:nonzero}
   ]]>
  </style>
 </defs>
 <g id="Layer_x0020_1">
  <metadata id="CorelCorpID_0Corel-Layer"/>
  <g id="_337089320">
   <path id="_337089752" class="fil0" d="M1414.56 1677.02c-292.234,153.307 -485.857,153.307 -781.123,0 0,-259.829 2.88071,-515.202 -8.6067,-774.816 -3.75237,-84.7938 107.218,-39.9922 138.438,-254.992 173.819,0 347.64,0 521.459,0 31.2201,215 142.191,170.198 138.438,254.992 -11.4874,259.614 -8.6067,514.987 -8.6067,774.816zm-374.264 -441.116c23.0114,19.3347 52.6949,30.9839 85.102,30.9839 40.7055,0 77.1142,-18.3756 101.399,-47.2807 -24.2847,-28.9051 -60.6934,-47.2807 -101.399,-47.2807 -32.4071,0 -62.0918,11.6469 -85.102,30.9839 19.3358,-23.0114 30.9839,-52.6949 30.9839,-85.102 0,-40.7055 -18.3768,-77.1154 -47.2819,-101.4 -28.904,24.2847 -47.2807,60.6945 -47.2807,101.4 0,32.4071 11.6492,62.0894 30.9839,85.102 -23.0103,-19.337 -52.6937,-30.9839 -85.102,-30.9839 -40.7055,0 -77.1142,18.3756 -101.399,47.2807 24.2847,28.9051 60.6934,47.2807 101.399,47.2807 32.4083,0 62.0918,-11.6492 85.102,-30.9839 -19.3347,23.0103 -30.9839,52.6937 -30.9839,85.102 0,40.7055 18.3768,77.1142 47.2807,101.4 28.9051,-24.2858 47.2819,-60.6945 47.2819,-101.4 0,-32.4083 -11.648,-62.0918 -30.9839,-85.102z"/>
   <path id="_337089872" class="fil1" d="M817.641 679.147c5.32559,12.2185 19.5484,17.8063 31.767,12.4807 12.2173,-5.32559 17.8051,-19.5484 12.4795,-31.767 -0.165354,-0.377953 -58.0784,-131.145 -54.078,-237.317 1.76221,-46.8343 37.2,-79.793 86.2264,-98.7497 30.5894,-11.8287 66.2386,-18.2705 102.758,-19.3807 36.7701,-1.1185 74.2819,3.18307 108.327,12.8445 62.9563,17.8642 113.075,53.9256 119.961,107.244 12.9154,100.026 -32.289,225.194 -36.2197,236.079 -2.23347,6.19016 -3.13583,10.0595 0.00236221,17.9055 4.95945,12.3732 19.0146,18.3839 31.389,13.4244 7.12914,-2.85709 12.1441,-8.73308 14.1685,-15.5669l-0.179528 0.497244 -1.04291 -0.37441c-0.871654,-2.8937 -1.47638,-11.426 -1.09724,-15.313l1.57559 -0.63189c2.10236,5.24528 2.23229,10.7941 0.744095,15.8221 5.2441,-14.5441 52.7138,-147.796 38.4992,-257.893 -9.76182,-75.6012 -74.256,-124.866 -154.754,-147.708 -38.5583,-10.9429 -81.0485,-15.8162 -122.699,-14.5488 -41.9008,1.27441 -83.1083,8.78505 -118.831,22.598 -66.3709,25.663 -114.437,72.7442 -117.047,142.05 -4.41733,117.286 57.8717,257.896 58.05,258.304zm416.602 -2.30551c-0.360236,1.00039 -0.719292,0.699213 -1.04291,-0.37441l1.04291 0.37441z"/>
   <g>
    <path id="_337089896" class="fil1" d="M651.316 1204.75c11.3291,7.04882 26.2299,3.57756 33.2788,-7.75158 7.04882,-11.3303 3.57756,-26.2299 -7.75158,-33.2788 -36.3461,-22.689 -83.3764,-38.1083 -129.809,-53.3292 -45.5941,-14.9469 -90.5788,-29.6953 -119.56,-49.8532 -33.1016,-23.0232 -43.35,-57.5091 0.106299,-119.984 7.62284,-10.9654 4.91457,-26.0351 -6.05079,-33.6579 -10.9654,-7.62284 -26.0351,-4.91457 -33.6579,6.05079 -64.7752,93.1253 -44.5063,147.998 11.9953,187.299 34.6536,24.1028 83.1131,39.991 132.228,56.0918 43.5945,14.2913 87.7501,28.767 119.221,48.4122z"/>
    <path id="_337089656" class="fil1" d="M1371.16 1163.72c-11.3291,7.04882 -14.8004,21.9484 -7.75158,33.2788 7.04882,11.3291 21.9496,14.8004 33.2788,7.75158 31.4705,-19.6453 75.626,-34.1209 119.221,-48.4122 49.115,-16.1008 97.5745,-31.989 132.228,-56.0918 56.5016,-39.3012 76.7705,-94.1741 11.9953,-187.299 -7.62284,-10.9654 -22.6925,-13.6736 -33.6579,-6.05079 -10.9654,7.62284 -13.6736,22.6925 -6.05079,33.6579 43.4563,62.4745 33.2079,96.9603 0.106299,119.984 -28.9807,20.1579 -73.9654,34.9063 -119.56,49.8532 -46.4327,15.2209 -93.4631,30.6402 -129.809,53.3292z"/>
   </g>
  </g>
 </g>
 <rect class="fil2" width="2048" height="2048"/>
</svg>
