<?xml version="1.0" encoding="UTF-8"?>
<!DOCTYPE svg PUBLIC "-//W3C//DTD SVG 1.1//EN" "http://www.w3.org/Graphics/SVG/1.1/DTD/svg11.dtd">
<!-- Creator: CorelDRAW -->
<svg xmlns="http://www.w3.org/2000/svg" xml:space="preserve" width="2048px" height="2048px" style="shape-rendering:geometricPrecision; text-rendering:geometricPrecision; image-rendering:optimizeQuality; fill-rule:evenodd; clip-rule:evenodd"
viewBox="0 0 2048 2048"
 xmlns:xlink="http://www.w3.org/1999/xlink">
 <defs>
  <style type="text/css">
   <![CDATA[
    .fil2 {fill:none}
    .fil0 {fill:#424242}
    .fil1 {fill:#424242;fill-rule:nonzero}
   ]]>
  </style>
 </defs>
 <g id="Layer_x0020_1">
  <metadata id="CorelCorpID_0Corel-Layer"/>
  <g id="_337090424">
   <path id="_337090616" class="fil0" d="M1366.86 1792l201.09 -1313.51 -1087.9 0 201.086 1313.51 685.725 0zm-581.715 -1029.25c-1.69134,-17.9079 -17.5819,-31.0536 -35.4898,-29.3622 -17.9079,1.69134 -31.0536,17.5819 -29.3622,35.4898l65.3611 674.176c1.69134,17.9079 17.5819,31.0536 35.4898,29.3622 17.9079,-1.69134 31.0536,-17.5819 29.3622,-35.4898l-65.3611 -674.176zm271.536 3.06378c0,-18.0484 -14.6327,-32.6811 -32.6811,-32.6811 -18.0484,0 -32.6811,14.6327 -32.6811,32.6811l0 674.176c0,18.0496 14.6327,32.6823 32.6811,32.6823 18.0484,0 32.6811,-14.6327 32.6811,-32.6823l0 -674.176zm271.025 3.06378c1.69134,-17.9079 -11.4543,-33.7985 -29.3622,-35.4898 -17.9079,-1.69134 -33.7985,11.4543 -35.4898,29.3622l-65.3611 674.176c-1.69134,17.9079 11.4543,33.7985 29.3622,35.4898 17.9079,1.69134 33.7985,-11.4543 35.4898,-29.3622l65.3611 -674.176z"/>
   <path id="_337090544" class="fil1" d="M355.251 381.129c-18.0484,0 -32.6811,14.6327 -32.6811,32.6811 0,18.0496 14.6327,32.6823 32.6811,32.6823l1337.5 0c18.0484,0 32.6811,-14.6327 32.6811,-32.6823 0,-18.0484 -14.6327,-32.6811 -32.6811,-32.6811l-1337.5 0z"/>
   <path id="_337090712" class="fil1" d="M892.065 255.999l263.869 0c18.0484,0 32.6823,14.6327 32.6823,32.6811l0 125.127c0,18.0496 -14.6339,32.6823 -32.6823,32.6823l-263.869 0c-18.0484,0 -32.6823,-14.6327 -32.6823,-32.6823l0 -125.127c0,-18.0484 14.6339,-32.6811 32.6823,-32.6811zm231.188 65.3634l-198.507 0 0 59.7638 198.507 0 0 -59.7638z"/>
  </g>
 </g>
 <rect class="fil2" width="2048" height="2048"/>
</svg>
