<?xml version="1.0" encoding="UTF-8"?>
<!DOCTYPE svg PUBLIC "-//W3C//DTD SVG 1.1//EN" "http://www.w3.org/Graphics/SVG/1.1/DTD/svg11.dtd">
<!-- Creator: CorelDRAW -->
<svg xmlns="http://www.w3.org/2000/svg" xml:space="preserve" width="2048px" height="2048px" style="shape-rendering:geometricPrecision; text-rendering:geometricPrecision; image-rendering:optimizeQuality; fill-rule:evenodd; clip-rule:evenodd"
viewBox="0 0 2048 2048"
 xmlns:xlink="http://www.w3.org/1999/xlink">
 <defs>
  <style type="text/css">
   <![CDATA[
    .fil2 {fill:none}
    .fil0 {fill:#424242}
    .fil1 {fill:#424242;fill-rule:nonzero}
   ]]>
  </style>
 </defs>
 <g id="Layer_x0020_1">
  <metadata id="CorelCorpID_0Corel-Layer"/>
  <g id="_337092488">
   <g>
    <polygon id="_337092944" class="fil0" points="740.786,574.666 740.786,426.917 478.19,426.917 478.19,574.666 "/>
    <rect id="_337093280" class="fil0" x="548.338" y="289.243" width="122.301" height="164.122"/>
    <path id="_337093064" class="fil1" d="M499.236 255.999c-18.3591,0 -33.2445,14.8843 -33.2445,33.2445 0,18.3591 14.8854,33.2445 33.2445,33.2445l220.503 0c18.3591,0 33.2445,-14.8854 33.2445,-33.2445 0,-18.3603 -14.8854,-33.2445 -33.2445,-33.2445l-220.503 0z"/>
    <path id="_337093112" class="fil0" d="M425.498 1792l367.979 0c78.2847,0 147.475,-55.8201 142.332,-123.717 -4.93701,-65.178 -94.2473,-712.64 -55.0536,-760.476 286.431,-466.126 -828.966,-466.126 -542.535,0 39.228,47.876 -50.1095,695.202 -55.0548,760.476 -5.14489,67.8957 64.0477,123.717 142.332,123.717zm84.2587 -882.843l199.462 0 0 531.898 -199.462 0 0 -531.898z"/>
   </g>
   <path id="_337093160" class="fil0" d="M1203.36 641.526c310.24,0 561.741,251.502 561.741,561.747 0,310.24 -251.501,561.741 -561.741,561.741 -86.0505,0 -167.567,-19.3748 -240.467,-53.9587 4.33583,-14.6658 5.97874,-29.9032 4.82126,-45.1878 -1.24252,-16.402 -3.3626,-33.0673 -5.23701,-49.4162 -3.35433,-29.2618 -6.81024,-58.5119 -10.2142,-87.7678l-2.60551 -22.448c68.6457,57.5434 157.119,92.2099 253.701,92.2099 218.248,0 395.174,-176.926 395.174,-395.174 0,-218.251 -176.926,-395.177 -395.174,-395.177 -119.177,0 -226.027,52.7587 -298.481,136.189 0.624804,-8.40473 1.60039,-15.2563 3.04725,-19.4752 45.9071,-65.0434 78.9757,-147.563 46.1658,-225.043 75.1158,-37.2591 159.736,-58.2402 249.269,-58.2402z"/>
   <path id="_337092104" class="fil0" d="M1203.36 840.093c200.576,0 363.175,162.599 363.175,363.175 0,200.576 -162.599,363.175 -363.175,363.175 -101.568,0 -193.378,-41.7107 -259.289,-108.917 -6.43583,-56.5985 -12.6449,-113.224 -18.378,-169.899 -7.98662,-78.952 -15.4878,-158.541 -19.552,-237.795 -0.478347,-9.33662 -1.52599,-30.1453 -1.99252,-52.415 65.4993,-95.0245 175.071,-157.324 299.211,-157.324z"/>
  </g>
 </g>
 <rect class="fil2" width="2048" height="2048"/>
</svg>
