<?xml version="1.0" encoding="UTF-8"?>
<!DOCTYPE svg PUBLIC "-//W3C//DTD SVG 1.1//EN" "http://www.w3.org/Graphics/SVG/1.1/DTD/svg11.dtd">
<!-- Creator: CorelDRAW -->
<svg xmlns="http://www.w3.org/2000/svg" xml:space="preserve" width="2048px" height="2048px" style="shape-rendering:geometricPrecision; text-rendering:geometricPrecision; image-rendering:optimizeQuality; fill-rule:evenodd; clip-rule:evenodd"
viewBox="0 0 2048 2048"
 xmlns:xlink="http://www.w3.org/1999/xlink">
 <defs>
  <style type="text/css">
   <![CDATA[
    .fil1 {fill:none}
    .fil0 {fill:#424242}
   ]]>
  </style>
 </defs>
 <g id="Layer_x0020_1">
  <metadata id="CorelCorpID_0Corel-Layer"/>
  <g id="_337093712">
   <path id="_337093472" class="fil0" d="M256.001 302.275l1158.13 0 0 313.233 -1158.13 0 0 -313.233zm223.322 94.8343c34.1221,0 61.7835,27.6614 61.7835,61.78 0,34.1221 -27.6614,61.7835 -61.7835,61.7835 -34.1209,0 -61.7811,-27.6614 -61.7811,-61.7835 0,-34.1185 27.6603,-61.78 61.7811,-61.78zm355.744 0c34.1209,0 61.7811,27.6614 61.7811,61.78 0,34.1221 -27.6603,61.7835 -61.7811,61.7835 -34.1209,0 -61.7811,-27.6614 -61.7811,-61.7835 0,-34.1185 27.6603,-61.78 61.7811,-61.78zm355.742 0c34.1221,0 61.7811,27.6614 61.7811,61.78 0,34.1221 -27.6591,61.7835 -61.7811,61.7835 -34.1209,0 -61.7823,-27.6614 -61.7823,-61.7835 0,-34.1185 27.6614,-61.78 61.7823,-61.78z"/>
   <g>
    <path id="_337094120" class="fil0" d="M1318.86 1745.14l399.385 0c0,0 48.7666,8.64095 53.7048,-40.7422l-21.5008 -90.7087c0,0 173.83,-458.275 -189.63,-584.697l-237.04 0c0,0 -79.0134,47.4083 -79.0134,126.422 0,0 49.1717,175.528 -15.8008,331.855 0,0 -35.4107,251.697 89.895,257.871zm335.529 -274.077c0,0 19.6158,18.189 32.0977,-11.4142 14.6929,-103.986 25.5106,-246.741 -80.6044,-312.78 0,0 -33.8811,-20.328 -58.1327,1.78347 -61.1327,56.954 68.315,280.533 106.639,322.41z"/>
    <rect id="_337093952" class="fil0" x="1350.91" y="900.791" width="178.31" height="94.8157"/>
   </g>
   <path id="_337093736" class="fil0" d="M255.999 1656.03l944.697 0c-2.10945,-10.1457 -3.68386,-20.25 -4.86615,-30.0142 -5.38819,-44.491 -4.71142,-98.3493 1.43386,-143.1l0.563386 -4.10315 1.58977 -3.82441c27.0957,-65.1934 34.415,-138.604 29.987,-208.623 -2.03977,-32.2465 -6.74646,-70.9571 -15.4547,-102.336l-1.1811 -4.21654 0 -4.39725c0,-43.6264 18.9272,-82.5757 47.8241,-114.363 12.75,-14.0256 30.2977,-29.641 46.7268,-39.4985l7.6004 -4.56024 3.98622 0 0 -128.206 95.2241 0 0 -219.892 -1158.13 0 0 1007.13zm579.067 -801.612c164.606,0 298.044,133.441 298.044,298.046 0,164.606 -133.439,298.044 -298.044,298.044 -164.604,0 -298.046,-133.439 -298.046,-298.044 0,-164.604 133.441,-298.046 298.046,-298.046z"/>
  </g>
 </g>
 <rect class="fil1" width="2048" height="2048"/>
</svg>
