<?xml version="1.0" encoding="UTF-8"?>
<!DOCTYPE svg PUBLIC "-//W3C//DTD SVG 1.1//EN" "http://www.w3.org/Graphics/SVG/1.1/DTD/svg11.dtd">
<!-- Creator: CorelDRAW -->
<svg xmlns="http://www.w3.org/2000/svg" xml:space="preserve" width="2048px" height="2048px" style="shape-rendering:geometricPrecision; text-rendering:geometricPrecision; image-rendering:optimizeQuality; fill-rule:evenodd; clip-rule:evenodd"
viewBox="0 0 2048 2048"
 xmlns:xlink="http://www.w3.org/1999/xlink">
 <defs>
  <style type="text/css">
   <![CDATA[
    .fil2 {fill:none}
    .fil1 {fill:#424242}
    .fil0 {fill:#424242;fill-rule:nonzero}
   ]]>
  </style>
 </defs>
 <g id="Layer_x0020_1">
  <metadata id="CorelCorpID_0Corel-Layer"/>
  <g id="_337094840">
   <g>
    <path id="_337095584" class="fil0" d="M794.544 416.089c-1.27913,21.7772 15.3366,40.4717 37.1138,41.752 21.7772,1.27913 40.4717,-15.3366 41.752,-37.1138 0.7063,-11.7969 3.45827,-22.4823 8.24528,-32.0457 4.94646,-9.88465 12.2599,-19.1079 21.9201,-27.6614l0.0767717 0.0862205 0.0625985 -0.0555119 0.022441 0.0248032c0.316536,-0.279921 0.625985,-0.564567 0.93189,-0.852757 9.41812,-8.06694 20.1461,-14.1295 32.204,-18.1831 13.4114,-4.50945 29.0599,-6.76536 46.9678,-6.76536 18.9614,0 35.5796,2.35158 49.8532,7.04646 13.2591,4.35945 24.6437,10.7374 34.1492,19.1221 9.62127,8.51694 16.7043,17.4307 21.2339,26.7532 4.14095,8.52166 6.21615,17.8417 6.21615,27.9697 0,5.07048 -0.692127,9.90119 -2.06103,14.4791 -1.50473,5.03386 -3.75118,9.92599 -6.7193,14.6599l-0.068504 -0.0437008 -0.0744095 0.113386 -0.0271654 -0.0153543 -0.348425 0.569292c-3.11811,4.40788 -11.0315,11.6681 -20.9232,20.7437 -11.0445,10.1303 -24.0414,22.0559 -38.3835,37.5036l-31.6335 34.0677 28.917 26.9079 -29.0103 -26.9374c-7.07835,7.62402 -10.5756,17.2937 -10.5732,26.9374l-0.00354331 0 0 108.274c0,21.8634 17.7236,39.5882 39.587,39.5882 21.8634,0 39.5882,-17.7248 39.5882,-39.5882l0 -92.8595 20.9622 -22.5756c12.1039,-13.037 23.9705,-23.9244 34.0536,-33.1736 14.0847,-12.9225 25.3453,-23.2547 33.4607,-35.3303 0.453544,-0.634252 0.892914,-1.28386 1.31457,-1.95236l-0.0980316 -0.0625985c6.97678,-11.0858 12.2433,-22.5106 15.7524,-34.2496 3.63071,-12.1429 5.46378,-24.5043 5.46378,-37.0559 0,-21.9945 -4.75748,-42.7512 -14.2583,-62.2985 -9.10867,-18.7465 -22.4811,-35.902 -40.0996,-51.4973 -17.85,-15.7453 -38.5122,-27.4855 -61.9831,-35.204 -22.4221,-7.37481 -47.1839,-11.0669 -74.2867,-11.0669 -26.0256,0 -50.0185,3.69922 -72.0201,11.0976 -22.3181,7.50237 -41.9894,18.6118 -59.054,33.326 -0.496063,0.396851 -0.986221,0.806694 -1.46693,1.23307l26.2181 29.6599 -26.1331 -29.5358c-17.2606,15.2575 -30.6815,32.439 -40.2437,51.5445 -9.71812,19.4173 -15.2563,40.3087 -16.5969,62.6646z"/>
    <path id="_337095272" class="fil0" d="M584.028 1114.65c21.8634,0 39.5882,-17.7236 39.5882,-39.587 0,-21.8634 -17.7248,-39.5882 -39.5882,-39.5882l-135.697 0 575.665 -319.239 575.665 319.239 -135.728 0c-21.8646,0 -39.5882,17.7248 -39.5882,39.5882 0,21.8634 17.7236,39.587 39.5882,39.587l287.869 0c14.1213,0.204331 27.8965,-7.17284 35.224,-20.3894 10.6016,-19.1197 3.69803,-43.2154 -15.4217,-53.8182l-0.0625985 0.113386 -725.533 -402.35c-11.935,-7.96772 -27.7973,-9.14646 -41.2122,-1.70906l19.1988 34.6205 -19.1752 -34.4847 -725.466 402.313c-13.7693,6.19843 -23.3563,20.0386 -23.3563,36.117 0,21.8634 17.7248,39.587 39.5882,39.587l288.441 0z"/>
    <polygon id="_337095392" class="fil1" points="584.044,1024.09 1463.95,1024.09 1463.95,1631.89 584.044,1631.89 "/>
   </g>
   <rect id="_337094456" class="fil1" x="584.044" y="1663.89" width="879.908" height="128.014"/>
  </g>
 </g>
 <rect class="fil2" width="2048" height="2048"/>
</svg>
