<?xml version="1.0" encoding="UTF-8"?>
<!DOCTYPE svg PUBLIC "-//W3C//DTD SVG 1.1//EN" "http://www.w3.org/Graphics/SVG/1.1/DTD/svg11.dtd">
<!-- Creator: CorelDRAW -->
<svg xmlns="http://www.w3.org/2000/svg" xml:space="preserve" width="2048px" height="2048px" style="shape-rendering:geometricPrecision; text-rendering:geometricPrecision; image-rendering:optimizeQuality; fill-rule:evenodd; clip-rule:evenodd"
viewBox="0 0 2048 2048"
 xmlns:xlink="http://www.w3.org/1999/xlink">
 <defs>
  <style type="text/css">
   <![CDATA[
    .fil1 {fill:none}
    .fil0 {fill:#424242}
   ]]>
  </style>
 </defs>
 <g id="Layer_x0020_1">
  <metadata id="CorelCorpID_0Corel-Layer"/>
  <g id="_337095848">
   <polygon id="_337095728" class="fil0" points="918.655,256.001 918.655,964.132 1129.52,964.132 1129.52,256.001 "/>
   <polygon id="_337096160" class="fil0" points="908.457,996.133 630.295,1231.26 1417.88,1231.26 1139.72,996.133 "/>
   <path id="_337096400" class="fil0" d="M602.678 1263.27c-0.938977,59.2016 -11.3847,264.371 -109.46,350.967 46.3831,39.4181 98.9729,72.2812 155.713,98.5891 55.2804,-86.1379 99.8564,-374.263 110.76,-449.556l-157.014 0z"/>
   <path id="_337096376" class="fil0" d="M791.926 1263.27c-9.67914,67.3831 -54.5032,361.297 -113.686,462.414 54.5174,22.5957 112.384,39.417 171.9,50.465 21.6154,-97.9725 63.6851,-431.64 73.7859,-512.879l-132 0z"/>
   <path id="_337096352" class="fil0" d="M956.157 1263.27c-9.10867,73.3749 -51.7843,412.869 -74.569,518.158 46.9158,7.05001 94.656,10.5756 142.412,10.5756 46.1398,0 92.2642,-3.29055 137.645,-9.87166 -22.3441,-105.351 -61.5343,-445.022 -69.9284,-518.862l-135.559 0z"/>
   <path id="_337095968" class="fil0" d="M1123.86 1263.27c9.22205,80.993 47.9599,415.692 69.2504,513.747 53.6882,-9.6756 106.075,-24.0355 155.917,-43.0807 -57.3591,-102.356 -87.3981,-400.921 -93.7465,-470.666l-131.421 0z"/>
   <path id="_337095944" class="fil0" d="M1287.4 1263.27c6.87402,75.0379 37.0737,372.228 91.3229,458.635 64.5343,-27.6874 124.18,-63.5776 176.061,-107.668 -98.0765,-86.5961 -108.522,-291.766 -109.46,-350.967l-157.924 0z"/>
  </g>
 </g>
 <rect class="fil1" width="2048" height="2048"/>
</svg>
