<?xml version="1.0" encoding="UTF-8"?>
<!DOCTYPE svg PUBLIC "-//W3C//DTD SVG 1.1//EN" "http://www.w3.org/Graphics/SVG/1.1/DTD/svg11.dtd">
<!-- Creator: CorelDRAW -->
<svg xmlns="http://www.w3.org/2000/svg" xml:space="preserve" width="2048px" height="2048px" style="shape-rendering:geometricPrecision; text-rendering:geometricPrecision; image-rendering:optimizeQuality; fill-rule:evenodd; clip-rule:evenodd"
viewBox="0 0 2048 2048"
 xmlns:xlink="http://www.w3.org/1999/xlink">
 <defs>
  <style type="text/css">
   <![CDATA[
    .fil2 {fill:none}
    .fil0 {fill:#424242}
    .fil1 {fill:#424242;fill-rule:nonzero}
   ]]>
  </style>
 </defs>
 <g id="Layer_x0020_1">
  <metadata id="CorelCorpID_0Corel-Layer"/>
  <g id="_337080992">
   <path id="_323020944" class="fil0" d="M917.62 713.171l-95.5005 576.134c0,103.357 -426.174,103.357 -426.174,0l-92.2642 -574.804 309.788 30.9071 304.151 -32.237z"/>
   <path id="_323020632" class="fil1" d="M931.686 671.52c0.245669,8.99646 7.73977,16.089 16.7362,15.8433 8.99528,-0.246851 16.089,-7.74095 15.8421,-16.7362 -5.36339,-187.23 -93.1595,-308.639 -205.145,-363.992 -46.741,-23.1047 -97.6111,-34.6583 -148.427,-34.6583 -50.8134,0 -101.684,11.5536 -148.425,34.6583 -111.985,55.3536 -199.781,176.764 -205.143,363.992 -0.246851,8.99528 6.84686,16.4894 15.8421,16.7362 8.99646,0.245669 16.4906,-6.84686 16.7362,-15.8433 4.96536,-173.399 84.9827,-285.201 187.003,-335.629 42.0886,-20.804 88.0123,-31.2071 133.987,-31.2071 45.9768,0 91.9005,10.4032 133.989,31.2071 102.02,50.4284 182.038,162.229 187.004,335.629z"/>
   <path id="_323021016" class="fil0" d="M743.849 282.032l0 70.2213 -22.1599 -9.30355c-35.1213,-14.7437 -72.9142,-22.2898 -110.995,-22.2898 -38.0788,0 -75.8753,7.54607 -110.993,22.2886l-22.1599 9.30355 0 -70.2213 10.389 -3.87756c39.241,-14.648 80.8796,-22.154 122.764,-22.154 41.8855,0 83.5241,7.50709 122.765,22.1551l10.3902 3.87756z"/>
   <path id="_323020272" class="fil1" d="M727.873 293.123c-37.7634,-14.0965 -77.4875,-21.1465 -117.178,-21.1465 -39.6898,0 -79.4138,7.04882 -117.177,21.1453l0 35.0965c37.3677,-15.6862 77.2536,-23.5347 117.177,-23.5347 39.9248,0 79.8083,7.84843 117.178,23.5358l0 -35.0965z"/>
   <path id="_323020704" class="fil0" d="M1166.6 1121.53l522.499 0c45.189,0 82.1634,36.9733 82.1634,82.1634l0 82.1634 -686.825 0 0 -82.1634c0,-45.1902 36.9733,-82.1634 82.1623,-82.1634z"/>
   <path id="_323020680" class="fil1" d="M1136.29 1252.45c0,-9.03072 -7.32284,-16.3536 -16.3536,-16.3536 -9.03072,0 -16.3524,7.32284 -16.3524,16.3536l0 97.9253c0,9.03072 7.32166,16.3536 16.3524,16.3536 9.03072,0 16.3536,-7.32284 16.3536,-16.3536l0 -97.9253z"/>
   <path id="_337095512" class="fil1" d="M1467.88 1252.45c0,-9.03072 -7.32166,-16.3536 -16.3524,-16.3536 -9.0319,0 -16.3536,7.32284 -16.3536,16.3536l0 97.9253c0,9.03072 7.32166,16.3536 16.3536,16.3536 9.03072,0 16.3524,-7.32284 16.3524,-16.3536l0 -97.9253z"/>
   <path id="_337092704" class="fil1" d="M1183.66 1252.45c0,-9.03072 -7.32284,-16.3536 -16.3536,-16.3536 -9.03072,0 -16.3536,7.32284 -16.3536,16.3536l0 97.9253c0,9.03072 7.32284,16.3536 16.3536,16.3536 9.03072,0 16.3536,-7.32284 16.3536,-16.3536l0 -97.9253z"/>
   <path id="_337088192" class="fil1" d="M1515.25 1252.45c0,-9.03072 -7.32284,-16.3536 -16.3536,-16.3536 -9.03072,0 -16.3536,7.32284 -16.3536,16.3536l0 97.9253c0,9.03072 7.32284,16.3536 16.3536,16.3536 9.03072,0 16.3536,-7.32284 16.3536,-16.3536l0 -97.9253z"/>
   <path id="_337083416" class="fil1" d="M1231.03 1252.45c0,-9.03072 -7.32284,-16.3536 -16.3536,-16.3536 -9.03072,0 -16.3536,7.32284 -16.3536,16.3536l0 97.9253c0,9.03072 7.32284,16.3536 16.3536,16.3536 9.03072,0 16.3536,-7.32284 16.3536,-16.3536l0 -97.9253z"/>
   <path id="_337083392" class="fil1" d="M1562.62 1252.45c0,-9.03072 -7.32284,-16.3536 -16.3536,-16.3536 -9.03072,0 -16.3536,7.32284 -16.3536,16.3536l0 97.9253c0,9.03072 7.32284,16.3536 16.3536,16.3536 9.03072,0 16.3536,-7.32284 16.3536,-16.3536l0 -97.9253z"/>
   <path id="_337083920" class="fil1" d="M1278.4 1252.45c0,-9.03072 -7.32166,-16.3536 -16.3524,-16.3536 -9.03072,0 -16.3536,7.32284 -16.3536,16.3536l0 97.9253c0,9.03072 7.32284,16.3536 16.3536,16.3536 9.03072,0 16.3524,-7.32284 16.3524,-16.3536l0 -97.9253z"/>
   <path id="_337083608" class="fil1" d="M1609.99 1252.45c0,-9.03072 -7.32284,-16.3536 -16.3536,-16.3536 -9.03072,0 -16.3536,7.32284 -16.3536,16.3536l0 97.9253c0,9.03072 7.32284,16.3536 16.3536,16.3536 9.03072,0 16.3536,-7.32284 16.3536,-16.3536l0 -97.9253z"/>
   <path id="_337083464" class="fil1" d="M1325.77 1252.45c0,-9.03072 -7.32284,-16.3536 -16.3536,-16.3536 -9.03072,0 -16.3536,7.32284 -16.3536,16.3536l0 97.9253c0,9.03072 7.32284,16.3536 16.3536,16.3536 9.03072,0 16.3536,-7.32284 16.3536,-16.3536l0 -97.9253z"/>
   <path id="_337082696" class="fil1" d="M1657.36 1252.45c0,-9.03072 -7.32284,-16.3536 -16.3536,-16.3536 -9.03072,0 -16.3524,7.32284 -16.3524,16.3536l0 97.9253c0,9.03072 7.32166,16.3536 16.3524,16.3536 9.03072,0 16.3536,-7.32284 16.3536,-16.3536l0 -97.9253z"/>
   <path id="_337082648" class="fil1" d="M1373.14 1252.45c0,-9.03072 -7.32284,-16.3536 -16.3536,-16.3536 -9.03072,0 -16.3536,7.32284 -16.3536,16.3536l0 97.9253c0,9.03072 7.32284,16.3536 16.3536,16.3536 9.03072,0 16.3536,-7.32284 16.3536,-16.3536l0 -97.9253z"/>
   <path id="_337080632" class="fil1" d="M1704.73 1252.45c0,-9.03072 -7.32284,-16.3536 -16.3536,-16.3536 -9.03072,0 -16.3536,7.32284 -16.3536,16.3536l0 97.9253c0,9.03072 7.32284,16.3536 16.3536,16.3536 9.03072,0 16.3536,-7.32284 16.3536,-16.3536l0 -97.9253z"/>
   <path id="_337080728" class="fil1" d="M1420.51 1252.45c0,-9.03072 -7.32284,-16.3536 -16.3536,-16.3536 -9.03072,0 -16.3536,7.32284 -16.3536,16.3536l0 97.9253c0,9.03072 7.32284,16.3536 16.3536,16.3536 9.03072,0 16.3536,-7.32284 16.3536,-16.3536l0 -97.9253z"/>
   <path id="_337080344" class="fil1" d="M1752.1 1252.45c0,-9.03072 -7.32284,-16.3536 -16.3536,-16.3536 -9.03072,0 -16.3536,7.32284 -16.3536,16.3536l0 97.9253c0,9.03072 7.32284,16.3536 16.3536,16.3536 9.03072,0 16.3536,-7.32284 16.3536,-16.3536l0 -97.9253z"/>
   <rect id="_337081064" class="fil0" x="286.411" y="1588.26" width="1504.47" height="203.737"/>
   <path id="_337080416" class="fil0" d="M610.693 592.398c186.321,0 337.363,38.3433 337.363,85.6418 0,47.2996 -151.042,85.643 -337.363,85.643 -186.319,0 -337.361,-38.3433 -337.361,-85.643 0,-47.2985 151.042,-85.6418 337.361,-85.6418zm0.0011811 35.902c159.226,0 288.304,22.2685 288.304,49.7398 0,27.4713 -129.078,49.7398 -288.304,49.7398 -159.226,0 -288.304,-22.2685 -288.304,-49.7398 0,-27.4713 129.078,-49.7398 288.304,-49.7398z"/>
  </g>
 </g>
 <rect class="fil2" width="2048" height="2048"/>
</svg>
