<?xml version="1.0" encoding="UTF-8"?>
<!DOCTYPE svg PUBLIC "-//W3C//DTD SVG 1.1//EN" "http://www.w3.org/Graphics/SVG/1.1/DTD/svg11.dtd">
<!-- Creator: CorelDRAW -->
<svg xmlns="http://www.w3.org/2000/svg" xml:space="preserve" width="2048px" height="2048px" style="shape-rendering:geometricPrecision; text-rendering:geometricPrecision; image-rendering:optimizeQuality; fill-rule:evenodd; clip-rule:evenodd"
viewBox="0 0 2048 2048"
 xmlns:xlink="http://www.w3.org/1999/xlink">
 <defs>
  <style type="text/css">
   <![CDATA[
    .fil1 {fill:none}
    .fil0 {fill:#424242}
   ]]>
  </style>
 </defs>
 <g id="Layer_x0020_1">
  <metadata id="CorelCorpID_0Corel-Layer"/>
  <g id="_323021160">
   <path id="_323021232" class="fil0" d="M893.055 1541.08l0 0zm-226.319 -1073.14c0.657875,0.0389764 1.31221,0.090945 1.96299,0.157087 5.05158,0.485433 9.99804,1.58977 14.6315,3.31299 16.2874,6.05788 29.0126,20.015 29.0126,41.9032l-2.03504 59.0752 -5.83937 273.871c-0.0354331,1.66181 -0.157087,3.30236 -0.360236,4.91811 4.48111,3.24685 12.0508,0.0661418 11.5807,-5.9067l17.4851 -270.254c0.00944883,-0.154725 0.0141732,-0.308268 0.0141732,-0.461811l0.0188977 0c0,-22.7386 13.2201,-37.2366 30.1382,-43.5296 6.7004,-2.49213 14.028,-3.73819 21.4051,-3.73819 7.37835,0 14.7059,1.24606 21.4051,3.73819 16.9205,6.29292 30.1394,20.791 30.1394,43.5296l-22.6795 302.347c-0.494882,4.31221 2.88307,8.18268 7.54253,8.63977 4.65945,0.458268 8.84174,-2.66693 9.33544,-6.98032l22.7469 -192.03c0.0318898,-0.279921 0.0472441,-0.557481 0.0472441,-0.832678l0.0188977 0c0,-23.302 13.1728,-37.5544 30.0473,-43.6571 7.53544,-2.72481 15.8079,-3.90118 24.0106,-3.59646 8.19095,0.303544 16.3205,2.09528 23.5831,5.30197 15.8445,6.99213 27.3425,21.0295 25.4799,41.3055 -13.2,143.651 -24.8953,281.013 -26.4059,418.726 -1.48819,135.604 6.94725,270.925 33.6355,411.777l-70.6016 25.5248 -20.1756 5.96811c-0.308268,0.0637796 -0.614174,0.142913 -0.917717,0.243307 -144.832,45.9898 -278.488,37.3642 -362.952,12.9059 -25.2815,-7.32048 -46.017,-16.0217 -61.1776,-25.05 -14.1295,-8.413 -23.0398,-16.7776 -25.774,-24.1488 -0.879922,-2.3752 -1.01811,-4.56733 -0.361418,-6.50906 21.3851,-63.2587 26.0197,-147.579 30.7559,-233.782l6.163 -95.2902 -185.078 -337.34c-0.402756,-0.765355 -0.948426,-1.48347 -1.63583,-2.11772 -17.3717,-16.0772 -19.0984,-34.9866 -11.9398,-50.517 2.82992,-6.14292 7.05827,-11.8181 12.2693,-16.6406 5.21221,-4.82244 11.3421,-8.73544 17.9811,-11.3551 16.7823,-6.62481 37.213,-5.02678 54.5859,11.0504l133.597 123.639c1.54606,1.47638 3.71221,2.39528 6.10867,2.39528 4.69725,0 8.50631,-3.52559 8.50631,-7.87205l0 -312.107c0,-22.7386 13.2189,-37.2366 30.1382,-43.5296 6.69922,-2.49213 14.028,-3.73819 21.4051,-3.73819 7.37835,0 14.7059,1.24606 21.404,3.73819 16.9205,6.29292 30.1394,20.791 30.1394,43.5296l0.034252 0c0,0.0106299 0,0.0200788 0,0.0307087l1.13032 259.765c0.0177165,4.32992 2.82166,7.7752 7.50001,7.75985 1.95945,-0.00708662 3.44764,-0.62126 4.513,-1.65l2.99646 -140.568 0.804331 -125.337 0.034252 0 0 -61.2414c0,-21.8882 12.724,-35.8453 29.0114,-41.9032 6.44882,-2.39764 13.5036,-3.59882 20.6043,-3.59882 1.11732,0 2.23465,0.0307087 3.34725,0.0897638l0.19252 0.0106299 0.470079 0.0283465zm205.226 1079.35l0 0z"/>
   <path id="_323021400" class="fil0" d="M1154.95 1541.08l0 0zm226.319 -1073.14c-0.657875,0.0389764 -1.31221,0.090945 -1.96299,0.157087 -5.05158,0.485433 -9.99804,1.58977 -14.6315,3.31299 -16.2874,6.05788 -29.0126,20.015 -29.0126,41.9032l2.03504 59.0752 5.83937 273.871c0.0354331,1.66181 0.157087,3.30236 0.360236,4.91811 -4.48111,3.24685 -12.0508,0.0661418 -11.5807,-5.9067l-17.4851 -270.254c-0.00944883,-0.154725 -0.0141732,-0.308268 -0.0141732,-0.461811l-0.0188977 0c0,-22.7386 -13.2201,-37.2366 -30.1382,-43.5296 -6.7004,-2.49213 -14.028,-3.73819 -21.4051,-3.73819 -7.37835,0 -14.7059,1.24606 -21.4051,3.73819 -16.9205,6.29292 -30.1394,20.791 -30.1394,43.5296l22.6795 302.347c0.494882,4.31221 -2.88307,8.18268 -7.54253,8.63977 -4.65945,0.458268 -8.84174,-2.66693 -9.33544,-6.98032l-22.7469 -192.03c-0.0318898,-0.279921 -0.0472441,-0.557481 -0.0472441,-0.832678l-0.0188977 0c0,-23.302 -13.1728,-37.5544 -30.0473,-43.6571 -7.53544,-2.72481 -15.8079,-3.90118 -24.0106,-3.59646 -8.19095,0.303544 -16.3205,2.09528 -23.5831,5.30197 -15.8445,6.99213 -27.3425,21.0295 -25.4799,41.3055 13.2,143.651 24.8953,281.013 26.4059,418.726 1.48819,135.604 -6.94725,270.925 -33.6355,411.777l70.6016 25.5248 20.1756 5.96811c0.308268,0.0637796 0.614174,0.142913 0.917717,0.243307 144.832,45.9898 278.488,37.3642 362.952,12.9059 25.2815,-7.32048 46.017,-16.0217 61.1776,-25.05 14.1295,-8.413 23.0398,-16.7776 25.774,-24.1488 0.879922,-2.3752 1.01811,-4.56733 0.361418,-6.50906 -21.3851,-63.2587 -26.0197,-147.579 -30.7559,-233.782l-6.163 -95.2902 185.078 -337.34c0.402756,-0.765355 0.948426,-1.48347 1.63583,-2.11772 17.3717,-16.0772 19.0984,-34.9866 11.9398,-50.517 -2.82992,-6.14292 -7.05827,-11.8181 -12.2693,-16.6406 -5.21221,-4.82244 -11.3421,-8.73544 -17.9811,-11.3551 -16.7823,-6.62481 -37.213,-5.02678 -54.5859,11.0504l-133.597 123.639c-1.54606,1.47638 -3.71221,2.39528 -6.10867,2.39528 -4.69725,0 -8.50631,-3.52559 -8.50631,-7.87205l0 -312.107c0,-22.7386 -13.2189,-37.2366 -30.1382,-43.5296 -6.69922,-2.49213 -14.028,-3.73819 -21.4051,-3.73819 -7.37835,0 -14.7059,1.24606 -21.404,3.73819 -16.9205,6.29292 -30.1394,20.791 -30.1394,43.5296l-0.034252 0c0,0.0106299 0,0.0200788 0,0.0307087l-1.13032 259.765c-0.0177165,4.32992 -2.82166,7.7752 -7.50001,7.75985 -1.95945,-0.00708662 -3.44764,-0.62126 -4.513,-1.65l-2.99646 -140.568 -0.804331 -125.337 -0.034252 0 0 -61.2414c0,-21.8882 -12.724,-35.8453 -29.0114,-41.9032 -6.44882,-2.39764 -13.5036,-3.59882 -20.6043,-3.59882 -1.11732,0 -2.23465,0.0307087 -3.34725,0.0897638l-0.19252 0.0106299 -0.470079 0.0283465zm-205.226 1079.35l0 0z"/>
  </g>
 </g>
 <rect class="fil1" width="2048" height="2048"/>
</svg>
