<?xml version="1.0" encoding="UTF-8"?>
<!DOCTYPE svg PUBLIC "-//W3C//DTD SVG 1.1//EN" "http://www.w3.org/Graphics/SVG/1.1/DTD/svg11.dtd">
<!-- Creator: CorelDRAW -->
<svg xmlns="http://www.w3.org/2000/svg" xml:space="preserve" width="2048px" height="2048px" style="shape-rendering:geometricPrecision; text-rendering:geometricPrecision; image-rendering:optimizeQuality; fill-rule:evenodd; clip-rule:evenodd"
viewBox="0 0 2048 2048"
 xmlns:xlink="http://www.w3.org/1999/xlink">
 <defs>
  <style type="text/css">
   <![CDATA[
    .fil2 {fill:none}
    .fil0 {fill:#424242}
    .fil1 {fill:#424242;fill-rule:nonzero}
   ]]>
  </style>
 </defs>
 <g id="Layer_x0020_1">
  <metadata id="CorelCorpID_0Corel-Layer"/>
  <g id="_323006520">
   <path id="_323008128" class="fil0" d="M335.316 968.559l36.6083 0 0 -144.906c0,-111.578 91.2887,-202.869 202.866,-202.869l898.418 0c111.578,0 202.866,91.2969 202.866,202.869l0 144.906 36.6083 0c43.6252,0 79.317,35.6965 79.317,79.3158l0 152.534c-512,0 -1024,0 -1536,0l0 -152.534c0,-43.624 35.6918,-79.3158 79.317,-79.3158zm239.475 -231.851l898.418 0c47.8181,0 86.9434,39.13 86.9434,86.9434l0 144.907 -1072.3 0 0 -144.907c0,-47.8193 39.1252,-86.9434 86.9434,-86.9434z"/>
   <path id="_323007984" class="fil1" d="M348.852 1170.32c0,-13.8307 -11.2134,-25.0441 -25.0441,-25.0441 -13.8307,0 -25.0429,11.2134 -25.0429,25.0441l0 231.848c0,13.8307 11.2122,25.0441 25.0429,25.0441 13.8307,0 25.0441,-11.2134 25.0441,-25.0441l0 -231.848z"/>
   <path id="_323007720" class="fil1" d="M1090.23 1170.32c0,-13.8307 -11.2122,-25.0441 -25.0429,-25.0441 -13.8307,0 -25.0429,11.2134 -25.0429,25.0441l0 231.848c0,13.8307 11.2122,25.0441 25.0429,25.0441 13.8307,0 25.0429,-11.2134 25.0429,-25.0441l0 -231.848z"/>
   <path id="_323007624" class="fil1" d="M431.227 1170.32c0,-13.8307 -11.2134,-25.0441 -25.0441,-25.0441 -13.8307,0 -25.0429,11.2134 -25.0429,25.0441l0 231.848c0,13.8307 11.2122,25.0441 25.0429,25.0441 13.8307,0 25.0441,-11.2134 25.0441,-25.0441l0 -231.848z"/>
   <path id="_323007480" class="fil1" d="M1172.61 1170.32c0,-13.8307 -11.2122,-25.0441 -25.0429,-25.0441 -13.8307,0 -25.0441,11.2134 -25.0441,25.0441l0 231.848c0,13.8307 11.2134,25.0441 25.0441,25.0441 13.8307,0 25.0429,-11.2134 25.0429,-25.0441l0 -231.848z"/>
   <path id="_323007864" class="fil1" d="M513.603 1170.32c0,-13.8307 -11.2134,-25.0441 -25.0441,-25.0441 -13.8307,0 -25.0429,11.2134 -25.0429,25.0441l0 231.848c0,13.8307 11.2122,25.0441 25.0429,25.0441 13.8307,0 25.0441,-11.2134 25.0441,-25.0441l0 -231.848z"/>
   <path id="_323007360" class="fil1" d="M1254.98 1170.32c0,-13.8307 -11.2122,-25.0441 -25.0429,-25.0441 -13.8307,0 -25.0441,11.2134 -25.0441,25.0441l0 231.848c0,13.8307 11.2134,25.0441 25.0441,25.0441 13.8307,0 25.0429,-11.2134 25.0429,-25.0441l0 -231.848z"/>
   <path id="_323007768" class="fil1" d="M595.978 1170.32c0,-13.8307 -11.2134,-25.0441 -25.0441,-25.0441 -13.8307,0 -25.0429,11.2134 -25.0429,25.0441l0 231.848c0,13.8307 11.2122,25.0441 25.0429,25.0441 13.8307,0 25.0441,-11.2134 25.0441,-25.0441l0 -231.848z"/>
   <path id="_323007288" class="fil1" d="M1337.36 1170.32c0,-13.8307 -11.2122,-25.0441 -25.0429,-25.0441 -13.8307,0 -25.0441,11.2134 -25.0441,25.0441l0 231.848c0,13.8307 11.2134,25.0441 25.0441,25.0441 13.8307,0 25.0429,-11.2134 25.0429,-25.0441l0 -231.848z"/>
   <path id="_323007912" class="fil1" d="M678.354 1170.32c0,-13.8307 -11.2134,-25.0441 -25.0441,-25.0441 -13.8307,0 -25.0429,11.2134 -25.0429,25.0441l0 231.848c0,13.8307 11.2122,25.0441 25.0429,25.0441 13.8307,0 25.0441,-11.2134 25.0441,-25.0441l0 -231.848z"/>
   <path id="_323007216" class="fil1" d="M1419.73 1170.32c0,-13.8307 -11.2122,-25.0441 -25.0429,-25.0441 -13.8307,0 -25.0441,11.2134 -25.0441,25.0441l0 231.848c0,13.8307 11.2134,25.0441 25.0441,25.0441 13.8307,0 25.0429,-11.2134 25.0429,-25.0441l0 -231.848z"/>
   <path id="_323007648" class="fil1" d="M760.727 1170.32c0,-13.8307 -11.2122,-25.0441 -25.0429,-25.0441 -13.8307,0 -25.0429,11.2134 -25.0429,25.0441l0 231.848c0,13.8307 11.2122,25.0441 25.0429,25.0441 13.8307,0 25.0429,-11.2134 25.0429,-25.0441l0 -231.848z"/>
   <path id="_323007960" class="fil1" d="M1502.11 1170.32c0,-13.8307 -11.2122,-25.0441 -25.0429,-25.0441 -13.8307,0 -25.0441,11.2134 -25.0441,25.0441l0 231.848c0,13.8307 11.2134,25.0441 25.0441,25.0441 13.8307,0 25.0429,-11.2134 25.0429,-25.0441l0 -231.848z"/>
   <path id="_323007120" class="fil1" d="M843.103 1170.32c0,-13.8307 -11.2122,-25.0441 -25.0429,-25.0441 -13.8307,0 -25.0429,11.2134 -25.0429,25.0441l0 231.848c0,13.8307 11.2122,25.0441 25.0429,25.0441 13.8307,0 25.0429,-11.2134 25.0429,-25.0441l0 -231.848z"/>
   <path id="_323007096" class="fil1" d="M1584.48 1170.32c0,-13.8307 -11.2122,-25.0441 -25.0429,-25.0441 -13.8307,0 -25.0441,11.2134 -25.0441,25.0441l0 231.848c0,13.8307 11.2134,25.0441 25.0441,25.0441 13.8307,0 25.0429,-11.2134 25.0429,-25.0441l0 -231.848z"/>
   <path id="_323006784" class="fil1" d="M925.479 1170.32c0,-13.8307 -11.2122,-25.0441 -25.0429,-25.0441 -13.8307,0 -25.0429,11.2134 -25.0429,25.0441l0 231.848c0,13.8307 11.2122,25.0441 25.0429,25.0441 13.8307,0 25.0429,-11.2134 25.0429,-25.0441l0 -231.848z"/>
   <path id="_323006592" class="fil1" d="M1666.86 1170.32c0,-13.8307 -11.2122,-25.0441 -25.0429,-25.0441 -13.8307,0 -25.0441,11.2134 -25.0441,25.0441l0 231.848c0,13.8307 11.2134,25.0441 25.0441,25.0441 13.8307,0 25.0429,-11.2134 25.0429,-25.0441l0 -231.848z"/>
   <path id="_323006904" class="fil1" d="M1007.85 1170.32c0,-13.8307 -11.2122,-25.0441 -25.0429,-25.0441 -13.8307,0 -25.0429,11.2134 -25.0429,25.0441l0 231.848c0,13.8307 11.2122,25.0441 25.0429,25.0441 13.8307,0 25.0429,-11.2134 25.0429,-25.0441l0 -231.848z"/>
   <path id="_323006664" class="fil1" d="M1749.24 1170.32c0,-13.8307 -11.2122,-25.0441 -25.0429,-25.0441 -13.8307,0 -25.0441,11.2134 -25.0441,25.0441l0 231.848c0,13.8307 11.2134,25.0441 25.0441,25.0441 13.8307,0 25.0429,-11.2134 25.0429,-25.0441l0 -231.848z"/>
  </g>
 </g>
 <rect class="fil2" width="2048" height="2048"/>
</svg>
