<?xml version="1.0" encoding="UTF-8"?>
<!DOCTYPE svg PUBLIC "-//W3C//DTD SVG 1.1//EN" "http://www.w3.org/Graphics/SVG/1.1/DTD/svg11.dtd">
<!-- Creator: CorelDRAW -->
<svg xmlns="http://www.w3.org/2000/svg" xml:space="preserve" width="2048px" height="2048px" style="shape-rendering:geometricPrecision; text-rendering:geometricPrecision; image-rendering:optimizeQuality; fill-rule:evenodd; clip-rule:evenodd"
viewBox="0 0 2048 2048"
 xmlns:xlink="http://www.w3.org/1999/xlink">
 <defs>
  <style type="text/css">
   <![CDATA[
    .fil2 {fill:none}
    .fil0 {fill:#424242}
    .fil1 {fill:#424242;fill-rule:nonzero}
   ]]>
  </style>
 </defs>
 <g id="Layer_x0020_1">
  <metadata id="CorelCorpID_0Corel-Layer"/>
  <g id="_323008440">
   <path id="_323009400" class="fil0" d="M1144.37 729.364c117.34,39.6933 281.616,43.9866 306.156,338.446l-155.1 724.19 -542.849 0 -155.1 -724.19c24.5398,-294.46 188.816,-298.753 306.156,-338.446l0 -178.164 240.737 0 0 178.164zm-249.905 336.079l259.071 0 0 398.588 -259.071 0 0 -398.588z"/>
   <path id="_323009376" class="fil1" d="M1058.6 332.879c0,-15.7878 -15.4914,-28.5886 -34.5992,-28.5886 -19.1079,0 -34.5992,12.8008 -34.5992,28.5886l0 224.333c0,15.7878 15.4914,28.5886 34.5992,28.5886 19.1079,0 34.5992,-12.8008 34.5992,-28.5886l0 -224.333z"/>
   <path id="_323009232" class="fil0" d="M898.452 362.815c-1.68898,12.9307 273.461,-8.73898 406.664,14.3764 231.14,40.115 -386.603,-280.818 -406.664,-14.3764z"/>
   <path id="_323009496" class="fil1" d="M1144.37 763.962c19.1079,0 34.5992,-15.4902 34.5992,-34.5981 0,-19.1079 -15.4914,-34.5992 -34.5992,-34.5992l-240.737 0c-19.1079,0 -34.5992,15.4914 -34.5992,34.5992 0,19.1079 15.4914,34.5981 34.5992,34.5981l240.737 0z"/>
   <path id="_323009448" class="fil1" d="M1144.37 585.802c19.1079,0 34.5992,-15.4914 34.5992,-34.5992 0,-19.1067 -15.4914,-34.5981 -34.5992,-34.5981l-240.737 0c-19.1079,0 -34.5992,15.4914 -34.5992,34.5981 0,19.1079 15.4914,34.5992 34.5992,34.5992l240.737 0z"/>
   <path id="_323008488" class="fil1" d="M1201.01 585.802c19.1079,0 34.5992,-15.4914 34.5992,-34.5992 0,-19.1067 -15.4914,-34.5981 -34.5992,-34.5981l-354.017 0c-19.1079,0 -34.5992,15.4914 -34.5992,34.5981 0,19.1079 15.4914,34.5992 34.5992,34.5992l354.017 0z"/>
  </g>
 </g>
 <rect class="fil2" width="2048" height="2048"/>
</svg>
