<?xml version="1.0" encoding="UTF-8"?>
<!DOCTYPE svg PUBLIC "-//W3C//DTD SVG 1.1//EN" "http://www.w3.org/Graphics/SVG/1.1/DTD/svg11.dtd">
<!-- Creator: CorelDRAW -->
<svg xmlns="http://www.w3.org/2000/svg" xml:space="preserve" width="2048px" height="2048px" style="shape-rendering:geometricPrecision; text-rendering:geometricPrecision; image-rendering:optimizeQuality; fill-rule:evenodd; clip-rule:evenodd"
viewBox="0 0 2048 2048"
 xmlns:xlink="http://www.w3.org/1999/xlink">
 <defs>
  <style type="text/css">
   <![CDATA[
    .fil1 {fill:none}
    .fil0 {fill:#424242}
   ]]>
  </style>
 </defs>
 <g id="Layer_x0020_1">
  <metadata id="CorelCorpID_0Corel-Layer"/>
  <path class="fil0" d="M925 1382.97c-891.977,469.037 -891.988,-1186.85 -0.102756,-718.013l198.206 0c891.885,-468.84 891.875,1187.05 -0.102756,718.013l-198 0zm-450.302 -588.782c18.4441,0 33.3957,14.9516 33.3957,33.3957 0,18.4441 -14.9516,33.3957 -33.3957,33.3957 -18.4441,0 -33.3957,-14.9516 -33.3957,-33.3957 0,-18.4441 14.9516,-33.3957 33.3957,-33.3957zm183.101 0c18.4441,0 33.3957,14.9516 33.3957,33.3957 0,18.4441 -14.9516,33.3957 -33.3957,33.3957 -18.4441,0 -33.3957,-14.9516 -33.3957,-33.3957 0,-18.4441 14.9516,-33.3957 33.3957,-33.3957zm183.101 0c18.4441,0 33.3957,14.9516 33.3957,33.3957 0,18.4441 -14.9516,33.3957 -33.3957,33.3957 -18.4441,0 -33.3957,-14.9516 -33.3957,-33.3957 0,-18.4441 14.9516,-33.3957 33.3957,-33.3957zm183.101 0c18.4441,0 33.3957,14.9516 33.3957,33.3957 0,18.4441 -14.9516,33.3957 -33.3957,33.3957 -18.4441,0 -33.3957,-14.9516 -33.3957,-33.3957 0,-18.4441 14.9516,-33.3957 33.3957,-33.3957zm183.101 0c18.4441,0 33.3957,14.9516 33.3957,33.3957 0,18.4441 -14.9516,33.3957 -33.3957,33.3957 -18.4441,0 -33.3957,-14.9516 -33.3957,-33.3957 0,-18.4441 14.9516,-33.3957 33.3957,-33.3957zm183.101 0c18.4441,0 33.3957,14.9516 33.3957,33.3957 0,18.4441 -14.9516,33.3957 -33.3957,33.3957 -18.4441,0 -33.3957,-14.9516 -33.3957,-33.3957 0,-18.4441 14.9516,-33.3957 33.3957,-33.3957zm183.101 0c18.4441,0 33.3957,14.9516 33.3957,33.3957 0,18.4441 -14.9516,33.3957 -33.3957,33.3957 -18.4441,0 -33.3957,-14.9516 -33.3957,-33.3957 0,-18.4441 14.9516,-33.3957 33.3957,-33.3957zm-1007.05 130.942c18.4441,0 33.3957,14.9516 33.3957,33.3957 0,18.4441 -14.9516,33.3957 -33.3957,33.3957 -18.4441,0 -33.3957,-14.9516 -33.3957,-33.3957 0,-18.4441 14.9516,-33.3957 33.3957,-33.3957zm183.101 0c18.4441,0 33.3957,14.9516 33.3957,33.3957 0,18.4441 -14.9516,33.3957 -33.3957,33.3957 -18.4441,0 -33.3957,-14.9516 -33.3957,-33.3957 0,-18.4441 14.9516,-33.3957 33.3957,-33.3957zm183.101 0c18.4441,0 33.3957,14.9516 33.3957,33.3957 0,18.4441 -14.9516,33.3957 -33.3957,33.3957 -18.4441,0 -33.3957,-14.9516 -33.3957,-33.3957 0,-18.4441 14.9516,-33.3957 33.3957,-33.3957zm183.101 0c18.4441,0 33.3957,14.9516 33.3957,33.3957 0,18.4441 -14.9516,33.3957 -33.3957,33.3957 -18.4441,0 -33.3957,-14.9516 -33.3957,-33.3957 0,-18.4441 14.9516,-33.3957 33.3957,-33.3957zm183.101 0c18.4441,0 33.3957,14.9516 33.3957,33.3957 0,18.4441 -14.9516,33.3957 -33.3957,33.3957 -18.4441,0 -33.3957,-14.9516 -33.3957,-33.3957 0,-18.4441 14.9516,-33.3957 33.3957,-33.3957zm183.101 0c18.4441,0 33.3957,14.9516 33.3957,33.3957 0,18.4441 -14.9516,33.3957 -33.3957,33.3957 -18.4441,0 -33.3957,-14.9516 -33.3957,-33.3957 0,-18.4441 14.9516,-33.3957 33.3957,-33.3957zm-1007.05 130.942c18.4441,0 33.3957,14.9516 33.3957,33.3957 0,18.4441 -14.9516,33.3957 -33.3957,33.3957 -18.4441,0 -33.3957,-14.9516 -33.3957,-33.3957 0,-18.4441 14.9516,-33.3957 33.3957,-33.3957zm183.101 0c18.4441,0 33.3957,14.9516 33.3957,33.3957 0,18.4441 -14.9516,33.3957 -33.3957,33.3957 -18.4441,0 -33.3957,-14.9516 -33.3957,-33.3957 0,-18.4441 14.9516,-33.3957 33.3957,-33.3957zm183.101 0c18.4441,0 33.3957,14.9516 33.3957,33.3957 0,18.4441 -14.9516,33.3957 -33.3957,33.3957 -18.4441,0 -33.3957,-14.9516 -33.3957,-33.3957 0,-18.4441 14.9516,-33.3957 33.3957,-33.3957zm183.101 0c18.4441,0 33.3957,14.9516 33.3957,33.3957 0,18.4441 -14.9516,33.3957 -33.3957,33.3957 -18.4441,0 -33.3957,-14.9516 -33.3957,-33.3957 0,-18.4441 14.9516,-33.3957 33.3957,-33.3957zm183.101 0c18.4441,0 33.3957,14.9516 33.3957,33.3957 0,18.4441 -14.9516,33.3957 -33.3957,33.3957 -18.4441,0 -33.3957,-14.9516 -33.3957,-33.3957 0,-18.4441 14.9516,-33.3957 33.3957,-33.3957zm183.101 0c18.4441,0 33.3957,14.9516 33.3957,33.3957 0,18.4441 -14.9516,33.3957 -33.3957,33.3957 -18.4441,0 -33.3957,-14.9516 -33.3957,-33.3957 0,-18.4441 14.9516,-33.3957 33.3957,-33.3957zm183.101 0c18.4441,0 33.3957,14.9516 33.3957,33.3957 0,18.4441 -14.9516,33.3957 -33.3957,33.3957 -18.4441,0 -33.3957,-14.9516 -33.3957,-33.3957 0,-18.4441 14.9516,-33.3957 33.3957,-33.3957zm-1007.05 130.941c18.4441,0 33.3957,14.9516 33.3957,33.3957 0,18.4441 -14.9516,33.3957 -33.3957,33.3957 -18.4441,0 -33.3957,-14.9516 -33.3957,-33.3957 0,-18.4441 14.9516,-33.3957 33.3957,-33.3957zm183.101 0c18.4441,0 33.3957,14.9516 33.3957,33.3957 0,18.4441 -14.9516,33.3957 -33.3957,33.3957 -18.4441,0 -33.3957,-14.9516 -33.3957,-33.3957 0,-18.4441 14.9516,-33.3957 33.3957,-33.3957zm183.101 0c18.4441,0 33.3957,14.9516 33.3957,33.3957 0,18.4441 -14.9516,33.3957 -33.3957,33.3957 -18.4441,0 -33.3957,-14.9516 -33.3957,-33.3957 0,-18.4441 14.9516,-33.3957 33.3957,-33.3957zm183.101 0c18.4441,0 33.3957,14.9516 33.3957,33.3957 0,18.4441 -14.9516,33.3957 -33.3957,33.3957 -18.4441,0 -33.3957,-14.9516 -33.3957,-33.3957 0,-18.4441 14.9516,-33.3957 33.3957,-33.3957zm183.101 0c18.4441,0 33.3957,14.9516 33.3957,33.3957 0,18.4441 -14.9516,33.3957 -33.3957,33.3957 -18.4441,0 -33.3957,-14.9516 -33.3957,-33.3957 0,-18.4441 14.9516,-33.3957 33.3957,-33.3957zm183.101 0c18.4441,0 33.3957,14.9516 33.3957,33.3957 0,18.4441 -14.9516,33.3957 -33.3957,33.3957 -18.4441,0 -33.3957,-14.9516 -33.3957,-33.3957 0,-18.4441 14.9516,-33.3957 33.3957,-33.3957z"/>
 </g>
 <rect class="fil1" width="2048" height="2048"/>
</svg>
