<?xml version="1.0" encoding="UTF-8"?>
<!DOCTYPE svg PUBLIC "-//W3C//DTD SVG 1.1//EN" "http://www.w3.org/Graphics/SVG/1.1/DTD/svg11.dtd">
<!-- Creator: CorelDRAW -->
<svg xmlns="http://www.w3.org/2000/svg" xml:space="preserve" width="2048px" height="2048px" style="shape-rendering:geometricPrecision; text-rendering:geometricPrecision; image-rendering:optimizeQuality; fill-rule:evenodd; clip-rule:evenodd"
viewBox="0 0 2048 2048"
 xmlns:xlink="http://www.w3.org/1999/xlink">
 <defs>
  <style type="text/css">
   <![CDATA[
    .fil1 {fill:none}
    .fil0 {fill:#424242}
   ]]>
  </style>
 </defs>
 <g id="Layer_x0020_1">
  <metadata id="CorelCorpID_0Corel-Layer"/>
  <path class="fil0" d="M831.003 279.61l-168.058 168.058 168.058 168.059 168.059 -168.059 -168.059 -168.058zm-480.352 -23.6091l73.4091 0 -168.059 168.059 0 -73.4091c0,-52.0571 42.5929,-94.6501 94.6501,-94.6501zm120.625 0l336.121 0 -168.06 168.058 -168.06 -168.058zm383.335 0l336.121 0 -168.06 168.058 -168.06 -168.058zm383.337 0l336.12 0 -168.06 168.058 -168.059 -168.058zm383.335 0l76.0678 0c52.0583,0 94.6501,42.5929 94.6501,94.6501l0 76.0666 -170.718 -170.717zm170.718 212.617l0 341.435 -170.717 -170.717 170.717 -170.718zm0 383.337l0 341.435 -170.717 -170.718 170.717 -170.717zm0 383.335l0 341.435 -170.717 -170.718 170.717 -170.717zm0 383.335l0 78.7253c0,52.0583 -42.5918,94.6501 -94.6501,94.6501l-78.7253 0 173.375 -173.375zm-215.276 173.375l-341.435 0 170.717 -170.717 170.718 170.717zm-383.335 0l-341.435 0 170.717 -170.717 170.718 170.717zm-383.337 0l-341.435 0 170.718 -170.717 170.717 170.717zm-383.335 0l-76.0666 0c-52.0571,0 -94.6501,-42.5918 -94.6501,-94.6501l0 -76.0678 170.717 170.718zm-170.717 -217.934l0 -336.12 168.058 168.059 -168.058 168.06zm0 -383.335l0 -336.121 168.058 168.06 -168.058 168.06zm0 -383.335l0 -336.121 168.058 168.06 -168.058 168.06zm1150.01 766.669l168.059 -168.059 -168.059 -168.058 -168.058 168.058 168.058 168.059zm23.6091 23.6091l168.059 168.059 168.059 -168.059 -168.059 -168.059 -168.059 168.059zm-215.276 168.059l168.059 -168.059 -168.059 -168.059 -168.059 168.059 168.059 168.059zm-191.668 -191.668l168.059 -168.059 -168.059 -168.058 -168.059 168.058 168.059 168.059zm-383.335 0l168.059 -168.059 -168.059 -168.058 -168.059 168.058 168.059 168.059zm23.6091 23.6091l168.058 168.059 168.059 -168.059 -168.059 -168.059 -168.058 168.059zm-215.277 168.059l168.059 -168.059 -168.059 -168.059 -168.058 168.059 168.058 168.059zm1150.01 -719.454l-168.059 168.059 168.059 168.059 168.059 -168.059 -168.059 -168.059zm-191.668 144.45l168.059 -168.059 -168.059 -168.059 -168.058 168.059 168.058 168.059zm-383.335 0l168.059 -168.059 -168.059 -168.059 -168.059 168.059 168.059 168.059zm359.727 23.6091l-168.059 -168.059 -168.059 168.059 168.059 168.059 168.059 -168.059zm-551.396 -168.059l-168.058 168.059 168.058 168.059 168.059 -168.059 -168.059 -168.059zm-191.667 144.45l168.059 -168.059 -168.059 -168.059 -168.059 168.059 168.059 168.059zm-23.6091 23.6091l-168.059 -168.059 -168.058 168.059 168.058 168.059 168.059 -168.059zm790.28 -406.944l168.059 -168.059 -168.059 -168.059 -168.058 168.059 168.058 168.059zm23.6091 23.6079l168.059 168.059 168.059 -168.059 -168.059 -168.058 -168.059 168.058zm-215.276 168.059l168.059 -168.059 -168.059 -168.058 -168.059 168.058 168.059 168.059zm-191.668 -191.667l168.059 -168.059 -168.059 -168.059 -168.059 168.059 168.059 168.059zm-383.335 0l168.059 -168.059 -168.059 -168.059 -168.059 168.059 168.059 168.059zm23.6091 23.6079l168.058 168.059 168.059 -168.059 -168.059 -168.058 -168.058 168.058zm-215.277 168.059l168.059 -168.059 -168.059 -168.058 -168.058 168.058 168.058 168.059zm1150.01 -719.453l-168.059 168.058 168.059 168.059 168.059 -168.059 -168.059 -168.058zm-215.276 168.058l-168.059 -168.058 -168.059 168.058 168.059 168.059 168.059 -168.059zm-766.672 0l-168.059 -168.058 -168.058 168.058 168.058 168.059 168.059 -168.059z"/>
 </g>
 <rect class="fil1" width="2048" height="2048"/>
</svg>
