<?xml version="1.0" encoding="UTF-8"?>
<!DOCTYPE svg PUBLIC "-//W3C//DTD SVG 1.1//EN" "http://www.w3.org/Graphics/SVG/1.1/DTD/svg11.dtd">
<!-- Creator: CorelDRAW -->
<svg xmlns="http://www.w3.org/2000/svg" xml:space="preserve" width="2048px" height="2048px" style="shape-rendering:geometricPrecision; text-rendering:geometricPrecision; image-rendering:optimizeQuality; fill-rule:evenodd; clip-rule:evenodd"
viewBox="0 0 2048 2048"
 xmlns:xlink="http://www.w3.org/1999/xlink">
 <defs>
  <style type="text/css">
   <![CDATA[
    .fil0 {fill:none}
    .fil1 {fill:#424242}
   ]]>
  </style>
 </defs>
 <g id="Layer_x0020_1">
  <metadata id="CorelCorpID_0Corel-Layer"/>
  <g id="_323013840">
   <path id="_323014464" class="fil0" d="M430.916 287.888m1186.17 0m45.8516 0m37.5142 37.5154m0 45.8516m0 1186.17m0 45.8516m-37.5142 37.5142m-45.8516 0m-419.326 0m3.3567 -44.452m14.0421 -56.8914m35.6469 -69.3355m4.79292 -4.68898m4.24016 -5.40119m3.50551 -1172.13m-832.426 0m0 0m0 0m0 0m0 0m0 0m0 0m0 0m0 0m0 0m0 0m0 0m0 0m0 0m0 0m0 0m0 0m0 0m0 0m0 0m0 0m0 0m0 0m0 0m0 0m0 0m0 0m0 0m0 0m0 0m0 0m0 0m0 0m0 0m0 0m0 0m0 0m0 0m0 0m0 0m0 0m0 0m0 0m0 0m0 0m0 0m0 0m0 0m0 0m0 0m0 0m0 0m0 0m0 0m0 0m0 0m0 0m0 0m0 0m0 0m0 0m0 0m0 0m0 0m0 0m0 0m0 0"/>
   <path id="_323014656" class="fil0" d="M854.009 287.889m-168.819 168.819m94.5591 94.5591m12.7287 -24.0284m25.2851 -16.4681m28.95 0m0.0011811 0m32.8642 0m28.1421 21.2221m10.4091 29.4142m4.30158 -4.30158m0 -93.2398m0 -28.9736m16.4965 -25.3051m24.0614 -12.7181m-108.98 -108.979"/>
   <path id="_323013480" class="fil0" d="M1191.65 287.889m168.819 168.819m-141.174 141.175m-11.5536 -27.1087m-26.9528 -19.1303m-31.2024 0m-0.00236221 0m-9.44765 0m-9.05434 1.75984m-8.35867 3.19725m-48.8563 -48.8563m0 -43.8792m0 -16.3748m-5.27008 -15.2032m-8.92442 -12.4217m131.978 -131.976"/>
   <path id="_323013984" class="fil1" d="M1658.36 256.099l-1268.73 0c-73.4493,0 -133.545,60.0957 -133.545,133.549l0 906.5c0,73.4528 60.0957,133.547 133.545,133.547l279.623 0c-0.552756,-1.05827 -1.10906,-2.11536 -1.6689,-3.1689 -27.0166,-50.8134 -40.4138,-110.451 -48.1524,-167.136 -8.73662,-63.9945 -10.8697,-128.858 -10.8106,-193.383 0.0519685,-56.6351 2.02205,-113.239 4.04646,-169.832 1.60748,-44.9079 3.38032,-89.8347 3.38032,-134.778 0,-54.6296 44.439,-98.9942 99.0532,-98.9942 18.5421,0 35.9221,5.10591 50.7922,13.9902l0 -36.137c0,-54.6296 44.4355,-98.9918 99.0497,-98.9918 18.489,0 35.8323,5.08701 50.6788,13.9394l0 -36.0862c0,-54.6284 44.439,-98.9918 99.052,-98.9918 54.6142,0 99.0473,44.3634 99.0473,98.9918l0 76.4823c14.837,-8.86064 32.1744,-13.9547 50.6811,-13.9536 54.6119,0.0011811 99.0485,44.3634 99.0485,98.9906l0 456.194c0,10.7114 0.0708662,23.139 1.04173,35.2252 13.0701,-17.498 24.4677,-36.8658 35.2146,-55.6158 10.7953,-18.8362 21.0508,-37.976 31.1977,-57.1678 7.76457,-14.6858 15.2858,-29.4933 23.5961,-43.8851 17.713,-30.6768 50.7201,-49.4481 86.093,-49.4481 17.2618,0 34.304,4.52953 49.2508,13.1717 47.1804,27.2811 63.5918,88.0595 36.2918,135.285l-179.84 311.086 -1.1941 2.95158 -0.911812 1.26142 314.166 0c73.4493,0 133.545,-60.0945 133.545,-133.547l0 -906.5c0,-73.4528 -60.0957,-133.549 -133.545,-133.549z"/>
   <path id="_323013864" class="fil1" d="M754.586 1780.49c21.7288,-46.0524 21.7902,-101.421 14.5961,-150.871 -7.27914,-50.0315 -22.6323,-100.215 -41.2429,-147.163 -9.39568,-23.6988 -20.1,-48.3933 -32.0941,-70.9512 -25.0288,-47.0741 -37.5366,-103.96 -44.7012,-156.442 -8.50276,-62.2867 -10.5732,-126.208 -10.5165,-189.025 0.0519685,-56.2678 2.01496,-112.494 4.02638,-168.717 1.61929,-45.2481 3.4004,-90.645 3.4004,-135.923 0,-36.9662 30.0992,-66.9945 67.0536,-66.9945 36.9697,0 67.167,29.9835 67.167,66.9945l0 329.105c0,4.31811 3.4937,7.81654 7.813,7.81654 4.31929,0 7.81182,-3.49843 7.81182,-7.81654l0 -450.246c0,-36.9662 30.0957,-66.9922 67.0501,-66.9922 36.926,0 67.1871,30.0071 67.0524,67.0087l-1.63583 450.205c-0.0153543,4.30512 3.45945,7.83308 7.813,7.84134 4.30512,0 7.79764,-3.48307 7.813,-7.78819l1.63583 -450.274 0 -121.139c0,-36.965 30.1004,-66.9922 67.0524,-66.9922 36.9532,0 67.0477,30.0272 67.0477,66.9922l0 571.385c0,4.31693 3.49607,7.81654 7.813,7.81654 4.31929,0 7.813,-3.49725 7.813,-7.81654l0 -409.865c0,-36.9662 30.1016,-66.9922 67.0536,-66.991 36.952,0.0011811 67.0501,30.026 67.0501,66.991l0 456.194c0,21.7016 0.620079,49.0996 6.42638,70.1315 1.4315,5.18741 5.41536,17.6469 11.8051,19.0087 9.87993,2.10473 27.2079,-18.1051 32.4933,-24.574 17.0114,-20.8205 31.9311,-45.7288 45.2941,-69.0449 10.976,-19.1516 21.4063,-38.6091 31.7233,-58.1221 7.54134,-14.263 14.9551,-28.878 23.0185,-42.841 11.9929,-20.7709 34.4315,-33.45 58.3819,-33.45 11.641,0 23.1543,3.04725 33.2327,8.87481 31.9347,18.4642 43.089,59.5937 24.6059,91.5662l-180.676 312.534c-0.190158,0.329528 -0.356693,0.672048 -0.499607,1.02402l-0.362599 0.896457 -0.56693 0.784253c-0.155906,0.217323 -0.304725,0.440552 -0.438189,0.672048l-45.7878 79.1469c-3.05079,5.27244 -6.70158,10.0358 -11.0634,14.2854 -0.605906,0.591733 -1.11024,1.27323 -1.49882,2.02677 -27.5398,53.517 -49.4469,113.589 -53.5666,174.084 -2.20158,32.3221 0.698032,66.7264 12.176,97.252l4.06654 10.8154 -471.022 0 5.38583 -11.413z"/>
  </g>
 </g>
 <rect class="fil0" width="2048" height="2048"/>
</svg>
