<?xml version="1.0" encoding="UTF-8"?>
<!DOCTYPE svg PUBLIC "-//W3C//DTD SVG 1.1//EN" "http://www.w3.org/Graphics/SVG/1.1/DTD/svg11.dtd">
<!-- Creator: CorelDRAW -->
<svg xmlns="http://www.w3.org/2000/svg" xml:space="preserve" width="2048px" height="2048px" style="shape-rendering:geometricPrecision; text-rendering:geometricPrecision; image-rendering:optimizeQuality; fill-rule:evenodd; clip-rule:evenodd"
viewBox="0 0 2048 2048"
 xmlns:xlink="http://www.w3.org/1999/xlink">
 <defs>
  <style type="text/css">
   <![CDATA[
    .fil1 {fill:none}
    .fil0 {fill:#424242}
   ]]>
  </style>
 </defs>
 <g id="Layer_x0020_1">
  <metadata id="CorelCorpID_0Corel-Layer"/>
  <g id="_323014944">
   <ellipse id="_323016216" class="fil0" cx="425.371" cy="387.493" rx="131.493" ry="131.493"/>
   <ellipse id="_323015616" class="fil0" cx="854.356" cy="479.554" rx="84.3113" ry="84.3113"/>
   <ellipse id="_323015136" class="fil0" cx="1397.43" cy="429.216" rx="97.461" ry="97.461"/>
   <ellipse id="_323015496" class="fil0" cx="1643.51" cy="742.44" rx="110.61" ry="110.61"/>
   <ellipse id="_323015376" class="fil0" cx="536.912" cy="755.354" rx="84.3113" ry="84.3113"/>
   <ellipse id="_323015280" class="fil0" cx="1148.75" cy="742.205" rx="97.461" ry="97.461"/>
   <path id="_323015232" class="fil0" d="M929.795 1711.59c-847.867,445.842 -847.877,-1128.16 -0.0992127,-682.505l188.406 0c847.778,-445.655 847.769,1128.35 -0.0992127,682.505l-188.208 0zm-247.358 -312.795l49.415 -3.09095c1.05591,8.02087 3.24685,14.1236 6.53268,18.3484 5.32205,6.80788 12.991,10.1728 22.9276,10.1728 7.39489,0 13.1079,-1.72205 17.1378,-5.20394 3.98977,-3.48071 5.98583,-7.51182 5.98583,-12.0886 0,-4.34292 -1.87795,-8.25591 -5.713,-11.6988 -3.83386,-3.44292 -12.6768,-6.69095 -26.6044,-9.74292 -22.7705,-5.12363 -39.0071,-11.8925 -48.7111,-20.3835 -9.7819,-8.48977 -14.6717,-19.2886 -14.6717,-32.4343 0,-8.64686 2.50394,-16.8236 7.51182,-24.4925 5.00906,-7.66772 12.5209,-13.6937 22.5744,-18.1146 10.0559,-4.38189 23.8276,-6.57284 41.3174,-6.57284 21.4784,0 37.8721,3.99095 49.1398,11.9728 11.2689,7.98071 17.9587,20.6965 20.1106,38.1071l-48.9449 2.85591c-1.29095,-7.55197 -4.02992,-13.0677 -8.21694,-16.5106 -4.14685,-3.40394 -9.89883,-5.12599 -17.2146,-5.12599 -6.06497,0 -10.6028,1.25315 -13.6547,3.83504 -3.05079,2.54292 -4.57678,5.67284 -4.57678,9.35079 0,2.65984 1.25079,5.04685 3.75473,7.19764 2.46496,2.2311 8.25473,4.26615 17.4508,6.18308 22.6914,4.88977 38.928,9.85867 48.75,14.8677 9.81969,5.00788 16.9795,11.1898 21.4394,18.6225 4.45985,7.39489 6.72875,15.6898 6.72875,24.8847 0,10.7587 -3.01181,20.6965 -8.95867,29.7733 -5.94804,9.11694 -14.2819,16.0028 -25.0016,20.6965 -10.6795,4.69607 -24.1795,7.04292 -40.4551,7.04292 -28.5603,0 -48.3579,-5.47678 -59.3528,-16.5106 -11.0327,-10.9949 -17.2524,-24.9614 -18.7004,-41.941zm172.031 -28.3276c0,-27.4264 7.6689,-48.789 22.9276,-64.0465 15.2976,-15.2988 36.5823,-22.9276 63.8516,-22.9276 27.9744,0 49.5319,7.51182 64.6737,22.5355 15.1016,14.9858 22.6925,36.0343 22.6925,63.0697 0,19.6406 -3.32599,35.7603 -9.9378,48.3201 -6.61182,12.5587 -16.1587,22.3394 -28.6394,29.3433 -12.5209,7.00276 -28.0536,10.4847 -46.715,10.4847 -18.9366,0 -34.6264,-3.01181 -47.0681,-9.0378 -12.4016,-6.06378 -22.4575,-15.6106 -30.2044,-28.6784 -7.7067,-13.0677 -11.5807,-29.4225 -11.5807,-49.063zm51.9579 0.23504c0,16.9807 3.12992,29.1484 9.42875,36.5811 6.29882,7.39489 14.9079,11.1118 25.7445,11.1118 11.1496,0 19.7977,-3.6378 25.9016,-10.8756 6.10276,-7.27796 9.19371,-20.3067 9.19371,-39.0863 0,-15.8457 -3.20788,-27.3874 -9.58583,-34.7044 -6.37678,-7.27678 -15.0236,-10.9158 -25.9784,-10.9158 -10.4469,0 -18.8587,3.67796 -25.1965,11.1118 -6.33898,7.39371 -9.50788,19.6807 -9.50788,36.7772zm245.509 55.9477l-59.1579 0 -8.1378 27.7406 -53.0528 0 63.1477 -168.041 56.6126 0 63.1867 168.041 -54.3437 0 -8.25473 -27.7406zm-10.878 -36.3461l-18.5835 -60.4087 -18.4677 60.4087 37.0512 0zm89.8713 -103.955l86.3091 0c18.7795,0 32.8642,4.45985 42.2162,13.4197 9.35079,8.92087 14.0445,21.6756 14.0445,38.1473 0,16.9795 -5.08583,30.2433 -15.2965,39.7902 -10.213,9.54686 -25.7847,14.3197 -46.715,14.3197l-28.4055 0 0 62.3646 -52.1528 0 0 -168.041zm52.1528 71.6375l12.7158 0c10.0146,0 17.0197,-1.72205 21.0874,-5.20276 4.02992,-3.48189 6.06497,-7.94292 6.06497,-13.3417 0,-5.28189 -1.76102,-9.7819 -5.28189,-13.4197 -3.48189,-3.67796 -10.0937,-5.51693 -19.7977,-5.51693l-14.7886 0 0 37.4811z"/>
  </g>
 </g>
 <rect class="fil1" width="2048" height="2048"/>
</svg>
