<?xml version="1.0" encoding="UTF-8"?>
<!DOCTYPE svg PUBLIC "-//W3C//DTD SVG 1.1//EN" "http://www.w3.org/Graphics/SVG/1.1/DTD/svg11.dtd">
<!-- Creator: CorelDRAW -->
<svg xmlns="http://www.w3.org/2000/svg" xml:space="preserve" width="2048px" height="2048px" style="shape-rendering:geometricPrecision; text-rendering:geometricPrecision; image-rendering:optimizeQuality; fill-rule:evenodd; clip-rule:evenodd"
viewBox="0 0 2048 2048"
 xmlns:xlink="http://www.w3.org/1999/xlink">
 <defs>
  <style type="text/css">
   <![CDATA[
    .fil1 {fill:none}
    .fil0 {fill:#424242}
   ]]>
  </style>
 </defs>
 <g id="Layer_x0020_1">
  <metadata id="CorelCorpID_0Corel-Layer"/>
  <g id="_323015688">
   <path id="_323015808" class="fil0" d="M769.481 1528.26c-684.612,359.996 -684.619,-910.935 -0.0791339,-551.09l152.128 0c684.54,-359.846 684.532,911.085 -0.080315,551.09l-151.969 0zm-199.729 -252.567l39.8988 -2.49567c0.852757,6.47481 2.62205,11.4036 5.27599,14.8169 4.29685,5.49685 10.4882,8.21221 18.5114,8.21221 5.97166,0 10.5839,-1.39016 13.839,-4.20118 3.22087,-2.81103 4.83189,-6.06615 4.83189,-9.76182 0,-3.5067 -1.51536,-6.66497 -4.61221,-9.44528 -3.09567,-2.7815 -10.2354,-5.40237 -21.4807,-7.86615 -18.3874,-4.13859 -31.4977,-9.60473 -39.3319,-16.4599 -7.89804,-6.85394 -11.8465,-15.574 -11.8465,-26.1898 0,-6.9815 2.02087,-13.5839 6.06497,-19.7752 4.0441,-6.19252 10.1102,-11.0563 18.228,-14.6268 8.12008,-3.53859 19.2402,-5.3067 33.3603,-5.3067 17.3445,0 30.5811,3.22087 39.6792,9.66615 9.09922,6.44528 14.5004,16.7114 16.239,30.7701l-39.5221 2.30551c-1.04173,-6.09686 -3.25276,-10.5508 -6.63426,-13.3311 -3.34843,-2.74843 -7.99253,-4.13859 -13.8992,-4.13859 -4.89804,0 -8.56182,1.01102 -11.0256,3.09567 -2.46496,2.05394 -3.69567,4.5815 -3.69567,7.55079 0,2.14843 1.00984,4.07599 3.03189,5.81339 1.99016,1.8 6.66615,3.44292 14.0906,4.99134 18.3225,3.94843 31.4327,7.96064 39.3614,12.0036 7.92993,4.0441 13.7114,9.03544 17.3126,15.0378 3.60118,5.97166 5.43426,12.6685 5.43426,20.0929 0,8.68701 -2.43307,16.7114 -7.23426,24.0414 -4.80237,7.35945 -11.5311,12.9201 -20.1886,16.7102 -8.62323,3.79134 -19.5225,5.68701 -32.6646,5.68701 -23.061,0 -39.0461,-4.42205 -47.9244,-13.3311 -8.90788,-8.87835 -13.9311,-20.1555 -15.0992,-33.8658zm138.906 -22.8721c0,-22.1457 6.19252,-39.3957 18.5126,-51.7146 12.352,-12.3532 29.5382,-18.5126 51.5575,-18.5126 22.5874,0 39.9945,6.06497 52.2201,18.1961 12.1937,12.0992 18.3236,29.0953 18.3236,50.9244 0,15.8599 -2.68583,28.8756 -8.02442,39.0154 -5.33977,10.141 -13.0476,18.039 -23.1248,23.6941 -10.1102,5.65512 -22.6512,8.46615 -37.7209,8.46615 -15.2894,0 -27.9579,-2.43307 -38.0044,-7.29686 -10.0146,-4.89685 -18.1323,-12.6047 -24.3886,-23.1567 -6.22323,-10.552 -9.35079,-23.7567 -9.35079,-39.6154zm41.954 0.188977c0,13.7102 2.52638,23.5358 7.61339,29.5382 5.08583,5.97048 12.0354,8.97166 20.7862,8.97166 9.00473,0 15.9862,-2.9374 20.9138,-8.78268 4.92874,-5.87599 7.42442,-16.3961 7.42442,-31.5591 0,-12.7949 -2.59134,-22.1138 -7.73977,-28.0217 -5.14961,-5.87599 -12.1311,-8.81339 -20.9764,-8.81339 -8.43544,0 -15.228,2.96811 -20.3457,8.97166 -5.11772,5.97048 -7.67599,15.8906 -7.67599,29.6953zm198.234 45.1748l-47.765 0 -6.57048 22.3996 -42.8386 0 50.9882 -135.685 45.7134 0 51.0201 135.685 -43.8803 0 -6.66733 -22.3996zm-8.7815 -29.3481l-15.0059 -48.7772 -14.9114 48.7772 29.9173 0zm72.5658 -83.9375l69.6898 0c15.163,0 26.5358,3.60118 34.0878,10.8354 7.54961,7.20237 11.341,17.5028 11.341,30.802 0,13.7114 -4.10788,24.4193 -12.3532,32.1284 -8.24528,7.70788 -20.8193,11.5618 -37.7197,11.5618l-22.9358 0 0 50.3575 -42.1099 0 0 -135.685zm42.1099 57.8445l10.2673 0c8.0882,0 13.7421,-1.39016 17.028,-4.20237 3.25394,-2.81221 4.89685,-6.41339 4.89685,-10.7728 0,-4.26496 -1.42087,-7.89686 -4.26496,-10.8354 -2.81221,-2.97047 -8.15079,-4.45512 -15.9862,-4.45512l-11.941 0 0 30.2658z"/>
   <path id="_323015880" class="fil0" d="M623.06 888.753c-53.9481,-250.379 113.782,-573.88 503.428,-369.053l152.128 0c621.077,-326.484 678.619,689.388 172.645,611.699 -17.5807,-66.0284 -50.38,-127.923 -100.495,-174.248 -51.7075,-47.7981 -115.53,-72.9922 -185.661,-76.4445 -87.1288,-4.28859 -174.58,25.0347 -251.391,64.4611l-136.498 0c-48.1099,-24.6945 -100.391,-45.4241 -154.156,-56.4142zm303.777 -70.5308l39.9 -2.49567c0.852757,6.47599 2.62087,11.4047 5.27599,14.8169 4.29567,5.49685 10.4882,8.21339 18.5114,8.21339 5.97048,0 10.5827,-1.39016 13.8378,-4.20118 3.22205,-2.81221 4.83189,-6.06615 4.83189,-9.763 0,-3.50551 -1.51536,-6.66497 -4.61103,-9.44528 -3.09567,-2.78032 -10.2354,-5.40237 -21.4819,-7.86497 -18.3874,-4.13859 -31.4965,-9.60473 -39.3319,-16.4599 -7.89686,-6.85512 -11.8465,-15.5752 -11.8465,-26.1898 0,-6.9815 2.02205,-13.5839 6.06497,-19.7764 4.0441,-6.19134 10.1102,-11.0563 18.228,-14.6268 8.12008,-3.5374 19.2402,-5.3067 33.3603,-5.3067 17.3445,0 30.5811,3.22205 39.6792,9.66615 9.09922,6.44646 14.5016,16.7126 16.239,30.7713l-39.5209 2.30551c-1.04291,-6.09686 -3.25394,-10.5508 -6.63426,-13.3311 -3.34843,-2.74843 -7.99253,-4.13859 -13.9004,-4.13859 -4.89685,0 -8.56182,1.00984 -11.0256,3.09567 -2.46496,2.05276 -3.69567,4.5815 -3.69567,7.54961 0,2.14843 1.01102,4.07599 3.03189,5.81339 1.99016,1.80118 6.66615,3.4441 14.0906,4.99134 18.3225,3.94961 31.4327,7.96064 39.3626,12.0047 7.92875,4.0441 13.7102,9.03544 17.3114,15.0366 3.60118,5.97166 5.43426,12.6685 5.43426,20.0929 0,8.6882 -2.43307,16.7126 -7.23426,24.0414 -4.80118,7.36064 -11.5311,12.9201 -20.1874,16.7114 -8.62323,3.79134 -19.5236,5.68583 -32.6658,5.68583 -23.061,0 -39.0461,-4.42205 -47.9233,-13.3311 -8.90906,-8.87717 -13.9323,-20.1555 -15.1004,-33.8658zm138.906 -22.8709c0,-22.1469 6.19252,-39.3957 18.5126,-51.7158 12.352,-12.3532 29.5382,-18.5126 51.5575,-18.5126 22.5874,0 39.9945,6.06497 52.2213,18.1961 12.1937,12.1004 18.3225,29.0953 18.3225,50.9256 0,15.8587 -2.68583,28.8744 -8.02442,39.0154 -5.33977,10.141 -13.0465,18.0378 -23.1248,23.6941 -10.1102,5.65394 -22.6512,8.46497 -37.7209,8.46497 -15.2894,0 -27.9579,-2.43189 -38.0032,-7.29686 -10.0158,-4.89685 -18.1335,-12.6047 -24.3898,-23.1567 -6.22205,-10.5508 -9.35079,-23.7567 -9.35079,-39.6142zm41.954 0.187795c0,13.7114 2.52756,23.537 7.61339,29.5382 5.08583,5.97166 12.0366,8.97284 20.7862,8.97284 9.00473,0 15.9862,-2.93858 20.9138,-8.78268 4.92874,-5.87599 7.42442,-16.3961 7.42442,-31.5591 0,-12.7961 -2.59016,-22.1138 -7.73977,-28.0229 -5.14961,-5.87481 -12.1311,-8.81339 -20.9764,-8.81339 -8.43544,0 -15.2268,2.96929 -20.3457,8.97284 -5.11654,5.9693 -7.67599,15.8894 -7.67599,29.6941zm198.235 45.176l-47.765 0 -6.57166 22.3984 -42.8374 0 50.987 -135.685 45.7134 0 51.0201 135.685 -43.8803 0 -6.66615 -22.3984zm-8.78268 -29.3481l-15.0047 -48.7772 -14.9126 48.7772 29.9173 0zm72.5658 -83.9386l69.6898 0c15.163,0 26.537,3.60236 34.0878,10.8366 7.54961,7.20237 11.341,17.5016 11.341,30.8008 0,13.7114 -4.10788,24.4205 -12.3532,32.1296 -8.24528,7.70788 -20.8181,11.5618 -37.7185,11.5618l-22.937 0 0 50.3563 -42.1099 0 0 -135.685zm42.1099 57.8445l10.2685 0c8.08701,0 13.741,-1.39016 17.0268,-4.20118 3.25394,-2.81221 4.89685,-6.41339 4.89685,-10.7728 0,-4.26615 -1.42087,-7.89804 -4.26378,-10.8354 -2.81339,-2.97047 -8.15197,-4.4563 -15.9862,-4.4563l-11.9421 0 0 30.2658z"/>
  </g>
 </g>
 <rect class="fil1" width="2048" height="2048"/>
</svg>
