<?xml version="1.0" encoding="UTF-8"?>
<!DOCTYPE svg PUBLIC "-//W3C//DTD SVG 1.1//EN" "http://www.w3.org/Graphics/SVG/1.1/DTD/svg11.dtd">
<!-- Creator: CorelDRAW -->
<svg xmlns="http://www.w3.org/2000/svg" xml:space="preserve" width="2048px" height="2048px" style="shape-rendering:geometricPrecision; text-rendering:geometricPrecision; image-rendering:optimizeQuality; fill-rule:evenodd; clip-rule:evenodd"
viewBox="0 0 2048 2048"
 xmlns:xlink="http://www.w3.org/1999/xlink">
 <defs>
  <style type="text/css">
   <![CDATA[
    .fil2 {fill:none}
    .fil1 {fill:#424242}
    .fil0 {fill:#424242;fill-rule:nonzero}
   ]]>
  </style>
 </defs>
 <g id="Layer_x0020_1">
  <metadata id="CorelCorpID_0Corel-Layer"/>
  <g id="_323018040">
   <path id="_323019096" class="fil0" d="M256.706 1599.85c-3.68268,17.3764 7.41733,34.4504 24.7925,38.1331 17.3764,3.68268 34.4504,-7.41615 38.1331,-24.7925l260.012 -1213.39c3.68268,-17.3752 -7.41615,-34.4492 -24.7925,-38.1319 -17.3764,-3.68268 -34.4492,7.41615 -38.1331,24.7925l-260.012 1213.38z"/>
   <path id="_323018208" class="fil0" d="M1024.4 510.522l96.215 0 4.47402 27.1099 -32.837 0 15.424 93.4347 -30.3662 0 -15.4228 -93.4347 -33.0118 0 -4.4752 -27.1099zm703.967 1151.07c3.68268,17.3764 20.7567,28.4764 38.1331,24.7925 17.3752,-3.68268 28.4752,-20.7555 24.7925,-38.1319l-270.383 -1261.79 -31.4622 6.66969 31.5024 -6.75119c-3.27638,-15.2953 -16.9122,-25.7067 -31.9819,-25.4669l-940.789 0c-17.7933,0 -32.2193,14.4248 -32.2193,32.2181 0,3.02481 0.416929,5.94804 1.19646,8.72363l269.942 1259.73c3.68268,17.3764 20.7567,28.4764 38.1331,24.7925 17.3752,-3.68268 28.4752,-20.7555 24.7925,-38.1319l-262.049 -1222.9 224.854 1049.32 875.485 0 40.0536 186.921zm-573.377 -1030.52l-19.898 -120.545 30.3662 0 19.8969 120.545 -30.365 0zm35.6138 -60.1808c-1.46221,-9.21851 -1.26024,-17.6221 0.636615,-25.2118 1.85906,-7.62048 5.18859,-14.1874 9.95316,-19.7291 4.76339,-5.54174 10.7079,-9.81969 17.8595,-12.8315 7.15512,-3.01063 15.2268,-4.54843 24.2847,-4.57796 9.06733,0.0295276 17.648,1.56732 25.7658,4.57796 8.11772,3.01181 15.4736,7.28977 22.0382,12.8315 6.56339,5.54174 12.0319,12.1087 16.4091,19.7291 4.40079,7.58977 7.37717,15.9933 8.92678,25.2118 1.49173,9.21615 1.29095,17.6197 -0.604725,25.2106 -1.86142,7.62048 -5.16142,14.1862 -9.89646,19.728 -4.73386,5.54174 -10.6772,9.81969 -17.8016,12.8327 -7.12323,3.01181 -15.1961,4.54725 -24.254,4.57678 -9.06851,-0.0295276 -17.6469,-1.56496 -25.7965,-4.57678 -8.14607,-3.01299 -15.502,-7.29095 -22.0949,-12.8327 -6.59292,-5.54174 -12.0921,-12.1075 -16.4681,-19.728 -4.40079,-7.59095 -7.37835,-15.9945 -8.95749,-25.2106zm151.166 60.1808l-19.8969 -120.545 31.2484 0 58.6146 66.3272 -10.9476 -66.3272 30.5421 0 19.8969 120.545 -29.3055 0 -61.3004 -69.7607 11.5146 69.7607 -30.3662 0zm-489.498 -120.545l64.2095 120.545 -34.4256 0 -8.6882 -17.3504 -46.4327 0 -2.96103 17.3504 -34.4268 0 24.4146 -120.545 38.3103 0zm117.939 95.243c5.40945,-0.0307087 9.79017,-1.11496 13.0961,-3.19252 3.32953,-2.10945 5.61733,-5.00079 6.86457,-8.6752 1.24843,-3.67441 1.48819,-7.92284 0.696851,-12.711l-11.6634 -70.6642 30.7181 0 11.8134 71.5678c1.24252,7.52953 1.26378,14.4272 0.056693,20.6634 -1.21299,6.20434 -3.7063,11.5961 -7.51536,16.1433 -3.80551,4.57914 -8.99528,8.07166 -15.5563,10.5744 -6.53623,2.46969 -14.537,3.73347 -23.9752,3.763 -9.45119,-0.0295276 -17.8701,-1.29331 -25.2851,-3.7937 -7.41615,-2.50158 -13.7941,-6.02481 -19.1351,-10.5732 -5.37048,-4.54843 -9.70276,-9.93898 -12.9862,-16.1138 -3.32008,-6.20552 -5.56654,-13.0429 -6.79489,-20.4827l-11.8429 -71.7485 30.8953 0 11.6634 70.6642c0.791339,4.78819 2.43307,9.03662 4.89449,12.711 2.4874,3.67441 5.73189,6.56575 9.7878,8.6752 4.01929,2.07756 8.78977,3.16181 14.2677,3.19252zm-115.135 419.824l111.015 -83.7178 -0.0129921 -0.0366142c6.58583,-4.96536 14.889,-6.04961 22.1681,-3.63898l101.169 28.7941 80.2394 -110.208 -78.6178 -2.55473c-12.0874,0.623623 -22.989,-7.90276 -25.0429,-20.1284l0.0425197 -0.0413386 -18.1984 -108.286c-2.18977,-13.1374 6.68504,-25.5626 19.8213,-27.7512 13.1374,-2.18977 25.5626,6.68504 27.7512,19.8213l14.928 88.8237 106.273 3.45236 0.0295276 -0.080315c8.57481,0.277559 15.9602,4.99252 20.0268,11.8689l67.7977 99.2292 0.0425197 -0.0283465c4.88859,7.15512 5.40827,16.0051 2.15433,23.3918l-32.9339 98.7969c-4.17048,12.6142 -17.7791,19.461 -30.3933,15.2906 -12.6142,-4.17048 -19.461,-17.7791 -15.2906,-30.3933l29.8925 -89.6741 -42.7429 -62.5583 -94.7989 130.206 -42.626 112.834 24.2126 92.2914c3.33544,12.8764 -4.39725,26.0209 -17.2736,29.3563 -12.8764,3.33544 -26.0197,-4.39725 -29.3551,-17.2736l-25.6418 -97.741c-1.81772,-5.17796 -1.89213,-10.9984 0.198425,-16.5307l0.0531496 0.0200788 37.1303 -98.2867 -81.5386 -23.2063 -101.407 76.4705c-10.6347,8.02796 -25.7634,5.91497 -33.7914,-4.71969 -8.02796,-10.6347 -5.91497,-25.7646 4.71969,-33.7925zm107.052 266.099l24.7819 0 -10.0016 85.2036 -23.2477 0 -21.9248 -53.3953 -3.87874 53.3953 -23.2488 0 -38.7969 -85.2036 24.6555 0 22.5059 56.8453 4.95709 -56.8453 16.8626 0 24.1666 56.8453 3.1689 -56.8453zm31.6796 0l62.465 0 3.23859 19.161 -40.4941 0 2.2441 13.285 39.5988 0 3.23859 19.161 -39.5988 0 2.43898 14.4354 40.4929 0 3.23859 19.161 -62.4662 0 -14.3965 -85.2036zm70.3843 0l69.619 0 3.23859 19.161 -23.7603 0 11.1591 66.0426 -21.9709 0 -11.1591 -66.0426 -23.8878 0 -3.23859 -19.161zm112.795 0l62.465 0 3.2374 19.161 -40.4929 0 2.2441 13.285 39.5988 0 3.23859 19.161 -39.5988 0 5.67638 33.5965 -21.9721 0 -14.3965 -85.2036zm107.092 66.0426l34.2343 0 3.2374 19.161 -56.2052 0 -14.3965 -85.2036 21.9709 0 11.1591 66.0426zm41.7792 -55.141c3.44646,-3.91772 7.74804,-6.94134 12.9225,-9.06969 5.17678,-2.12835 11.0173,-3.21614 17.5713,-3.23622 6.56221,0.0200788 12.7701,1.10787 18.6437,3.23622 5.87363,2.12835 11.1957,5.15197 15.9461,9.06969 4.74804,3.91654 8.70591,8.55827 11.8725,13.9453 3.18544,5.36339 5.33859,11.3032 6.45945,17.8193 1.07953,6.51378 0.934253,12.4536 -0.437008,17.8193 -1.34646,5.38701 -3.73583,10.0276 -7.15985,13.9453 -3.42638,3.91654 -7.72796,6.94016 -12.8811,9.06969 -5.15552,2.12835 -10.9961,3.21378 -17.55,3.23504 -6.56103,-0.0212599 -12.7701,-1.10669 -18.665,-3.23504 -5.89489,-2.12953 -11.2169,-5.15315 -15.9874,-9.06969 -4.77166,-3.91772 -8.74843,-8.55827 -11.9173,-13.9453 -3.18307,-5.36575 -5.33622,-11.3055 -6.48071,-17.8193 -1.05709,-6.51615 -0.910631,-12.4559 0.459449,-17.8193 1.34764,-5.38701 3.75591,-10.0287 7.20355,-13.9453zm110.771 -9.06969c5.17678,-2.12835 11.0173,-3.21614 17.5713,-3.23622 6.56103,0.0200788 12.7701,1.10787 18.6437,3.23622 5.87363,2.12835 11.1957,5.15197 15.9461,9.06969 4.74804,3.91654 8.70591,8.55827 11.8725,13.9453 3.18425,5.36339 5.33859,11.3032 6.45945,17.8193 1.07953,6.51378 0.933072,12.4536 -0.437008,17.8193 -1.34646,5.38701 -3.73583,10.0276 -7.15985,13.9453 -3.42638,3.91654 -7.72796,6.94016 -12.8811,9.06969 -5.15552,2.12835 -10.9961,3.21378 -17.55,3.23504 -6.56103,-0.0212599 -12.7701,-1.10669 -18.665,-3.23504 -5.89607,-2.12953 -11.2169,-5.15315 -15.9874,-9.06969 -4.77166,-3.91772 -8.74961,-8.55827 -11.9173,-13.9453 -3.18307,-5.36575 -5.33622,-11.3055 -6.48071,-17.8193 -1.05709,-6.51615 -0.910631,-12.4559 0.459449,-17.8193 1.34646,-5.38701 3.75591,-10.0287 7.20355,-13.9453 3.44646,-3.91772 7.74686,-6.94134 12.9225,-9.06969zm-159.33 -615.84c18.9284,0 36.0697,7.67363 48.4748,20.0811 12.4075,12.4075 20.0811,29.5453 20.0811,48.4748 0,18.9284 -7.67363,36.0674 -20.0811,48.4748 -12.4051,12.4075 -29.5465,20.0811 -48.4748,20.0811 -18.9284,0 -36.0685,-7.67363 -48.4737,-20.0811 -12.4075,-12.4075 -20.0811,-29.5465 -20.0811,-48.4748 0,-18.9295 7.67363,-36.0674 20.0811,-48.4748 12.4051,-12.4075 29.5453,-20.0811 48.4737,-20.0811zm-520.067 -89.4461l28.2166 12.652c-1.24134,3.88465 -3.0189,7.73977 -5.33386,11.5358 -2.31614,3.79488 -5.27599,7.25906 -8.9067,10.3913 -3.66142,3.13347 -8.07402,5.63268 -13.3217,7.53071 -5.22402,1.86732 -11.3917,2.8311 -18.4725,2.89016 -7.27205,-0.0295276 -14.2583,-0.992127 -21.0213,-2.92087 -6.73111,-1.92756 -13.0193,-4.72914 -18.9118,-8.34331 -5.8689,-3.6437 -11.1508,-8.0126 -15.8221,-13.1327 -4.67008,-5.12008 -8.56182,-10.8732 -11.7,-17.2288 -3.11339,-6.38623 -5.31142,-13.2827 -6.56812,-20.7225 -1.20473,-7.47166 -1.28858,-14.3988 -0.283465,-20.7839 1.03583,-6.38623 3.02835,-12.1394 6.00945,-17.2595 2.98229,-5.09056 6.82323,-9.45709 11.4945,-13.0725 4.69489,-3.64488 10.063,-6.41693 16.1646,-8.31379 6.1252,-1.92756 12.7925,-2.89134 20.0551,-2.92087 7.09607,0.0295276 13.5815,0.993308 19.4114,2.80158 5.86418,1.83543 11.0976,4.3063 15.7843,7.37835 4.65827,3.10276 8.75788,6.53623 12.3248,10.3323 3.57048,3.79488 6.62363,7.68071 9.16418,11.6575l-24.0118 12.8315c-1.85433,-3.22441 -4.25433,-6.17599 -7.21772,-8.79686 -2.93858,-2.6504 -6.23032,-4.75867 -9.81261,-6.32481 -3.61418,-1.56614 -7.30867,-2.37992 -11.1071,-2.41063 -4.82244,0.0307087 -9.09095,0.904725 -12.8055,2.6504 -3.71221,1.74803 -6.78189,4.18819 -9.17717,7.32048 -2.42008,3.16181 -4.05,6.83623 -4.96772,11.0847 -0.891733,4.21654 -0.925985,8.82402 -0.129921,13.826 0.844489,4.93819 2.39882,9.54804 4.68307,13.7646 2.31496,4.21654 5.15906,7.89095 8.62442,11.0539 3.43347,3.16299 7.31339,5.63268 11.602,7.37953 4.29095,1.74685 8.85355,2.6504 13.6843,2.6811 3.79016,-0.0307087 7.21536,-0.844489 10.3122,-2.40945 3.06733,-1.56614 5.65985,-3.67559 7.72442,-6.32599 2.09882,-2.62087 3.52205,-5.57245 4.31575,-8.79568zm753.794 703.454l42.665 0c4.72914,0.0212599 9.07087,0.767717 12.9744,2.19331 3.92717,1.44803 7.35709,3.47126 10.3264,6.04607 2.96811,2.57599 5.39056,5.57835 7.26851,9.00591 1.89921,3.42756 3.18662,7.13268 3.85866,11.1142 0.604725,3.70394 0.647245,6.98268 0.148819,9.83505 -0.51378,2.87481 -1.41732,5.34449 -2.70355,7.43032 -1.2874,2.08701 -2.82284,3.83268 -4.59449,5.19567 -1.74921,1.36181 -3.59882,2.38347 -5.52284,3.08622l22.6606 31.2969 -25.1658 0 -19.141 -28.6134 -11.2417 0 4.83544 28.6134 -21.9721 0 -14.3965 -85.2036z"/>
   <path id="_323017992" class="fil0" d="M337.242 1345.18c-17.7933,0 -32.2193,14.426 -32.2193,32.2181 0,17.7933 14.426,32.2193 32.2193,32.2193l415.502 0c17.7933,0 32.2193,-14.426 32.2193,-32.2193 0,-17.7921 -14.426,-32.2181 -32.2193,-32.2181l-415.502 0z"/>
   <polygon id="_323018616" class="fil1" points="860.596,586.608 838.276,541.246 830.76,586.608 "/>
   <path id="_323018520" class="fil1" d="M1285.58 584.56c0.806694,-4.21772 0.819686,-8.76497 0.00826772,-13.6736 -0.818505,-4.97244 -2.33977,-9.54922 -4.53662,-13.7658 -2.16614,-4.21772 -4.92638,-7.92284 -8.2382,-11.0539 -3.31772,-3.16299 -7.07835,-5.63268 -11.3126,-7.38071 -4.20473,-1.77638 -8.73426,-2.6504 -13.6228,-2.6811 -4.85079,0.0307087 -9.11812,0.904725 -12.7689,2.6811 -3.65433,1.74803 -6.62953,4.21772 -8.90316,7.38071 -2.30669,3.1311 -3.87284,6.83623 -4.67835,11.0539 -0.83504,4.21654 -0.81378,8.79331 -0.022441,13.7658 0.839764,4.90867 2.32677,9.45591 4.55079,13.6736 2.19803,4.21772 4.98662,7.92284 8.33386,11.0847 3.31772,3.16299 7.10788,5.63268 11.3433,7.40906 4.2378,1.77756 8.79922,2.6811 13.6595,2.71181 4.87914,-0.0307087 9.11457,-0.934253 12.7335,-2.71181 3.64961,-1.77638 6.59764,-4.24607 8.87127,-7.40906 2.27244,-3.16181 3.80906,-6.86693 4.58268,-11.0847z"/>
   <path id="_323018496" class="fil1" d="M1383.6 1351.85c1.64646,-2.23465 2.7567,-4.85433 3.31772,-7.83426 0.581103,-2.97992 0.592914,-6.19489 0.00472441,-9.66497 -0.592914,-3.5126 -1.6937,-6.75001 -3.28229,-9.72993 -1.56851,-2.9811 -3.56457,-5.59961 -5.96103,-7.81418 -2.40118,-2.23583 -5.12244,-3.9815 -8.18386,-5.21575 -3.0437,-1.25551 -6.32126,-1.87323 -9.85867,-1.89331 -3.50906,0.0200788 -6.59764,0.637796 -9.23741,1.89331 -2.64449,1.23425 -4.79882,2.97992 -6.44292,5.21575 -1.67126,2.21457 -2.80394,4.83307 -3.38622,7.81418 -0.603544,2.97992 -0.588189,6.21733 -0.0165354,9.72993 0.609449,3.47008 1.68307,6.68504 3.2941,9.66497 1.58858,2.97992 3.60827,5.59961 6.02953,7.83426 2.40118,2.23583 5.1437,3.9815 8.20867,5.23819 3.06496,1.25551 6.36615,1.89449 9.88347,1.91575 3.53032,-0.0212599 6.5941,-0.660237 9.21261,-1.91575 2.64095,-1.25669 4.77402,-3.00236 6.41812,-5.23819z"/>
   <path id="_323018472" class="fil1" d="M1484.76 1344.02c0.581103,-2.97992 0.591733,-6.19489 0.00472441,-9.66497 -0.592914,-3.5126 -1.6937,-6.75001 -3.28229,-9.72993 -1.56851,-2.9811 -3.56457,-5.59961 -5.96103,-7.81418 -2.40118,-2.23583 -5.12244,-3.9815 -8.18386,-5.21575 -3.0437,-1.25551 -6.32126,-1.87323 -9.85867,-1.89331 -3.51024,0.0200788 -6.59764,0.637796 -9.23741,1.89331 -2.64567,1.23425 -4.79882,2.97992 -6.44292,5.21575 -1.67126,2.21457 -2.80394,4.83307 -3.38622,7.81418 -0.603544,2.97992 -0.588189,6.21733 -0.0165354,9.72993 0.609449,3.47008 1.68307,6.68504 3.2941,9.66497 1.58858,2.97992 3.60827,5.59961 6.02953,7.83426 2.4,2.23583 5.1437,3.9815 8.20867,5.23819 3.06496,1.25551 6.36615,1.89449 9.88229,1.91575 3.5315,-0.0212599 6.59528,-0.660237 9.21379,-1.91575 2.64095,-1.25669 4.77402,-3.00236 6.41812,-5.23819 1.64528,-2.23465 2.7567,-4.85433 3.31772,-7.83426z"/>
   <path id="_323018112" class="fil1" d="M1565.15 1324.97c0.728741,-1.36181 0.912993,-3.0437 0.595276,-5.04567 -0.351969,-1.95827 -1.10079,-3.6189 -2.28543,-4.95945 -1.16693,-1.36299 -2.59252,-2.36457 -4.30748,-3.06614 -1.71496,-0.702756 -3.56103,-1.0441 -5.54056,-1.0441l-17.3728 0 3.08622 18.2681 17.3717 0c1.98071,0 3.70866,-0.362599 5.18977,-1.0441 1.47638,-0.702756 2.55827,-1.74567 3.26339,-3.10866z"/>
  </g>
 </g>
 <rect class="fil2" width="2048" height="2048"/>
</svg>
