<?xml version="1.0" encoding="UTF-8"?>
<!DOCTYPE svg PUBLIC "-//W3C//DTD SVG 1.1//EN" "http://www.w3.org/Graphics/SVG/1.1/DTD/svg11.dtd">
<!-- Creator: CorelDRAW -->
<svg xmlns="http://www.w3.org/2000/svg" xml:space="preserve" width="2048px" height="2048px" style="shape-rendering:geometricPrecision; text-rendering:geometricPrecision; image-rendering:optimizeQuality; fill-rule:evenodd; clip-rule:evenodd"
viewBox="0 0 2048 2048"
 xmlns:xlink="http://www.w3.org/1999/xlink">
 <defs>
  <style type="text/css">
   <![CDATA[
    .fil1 {fill:none}
    .fil0 {fill:#424242;fill-rule:nonzero}
   ]]>
  </style>
 </defs>
 <g id="Layer_x0020_1">
  <metadata id="CorelCorpID_0Corel-Layer"/>
  <g id="_323020104">
   <path id="_323020080" class="fil0" d="M1540.88 910.087c-0.864568,0.493701 -1.73622,0.980316 -2.61851,1.45394 -21.0449,11.3162 -46.8508,16.9748 -72.9827,16.9748 -26.1319,0 -51.9378,-5.65867 -72.9827,-16.9736 -149.915,-80.6127 1.50473,-80.6127 -148.41,0 -21.0461,11.315 -46.852,16.9736 -72.9827,16.9736 -26.1319,0 -51.9378,-5.65867 -72.9827,-16.9748 -149.921,-80.6103 1.51299,-80.6068 -148.409,0 -21.0461,11.3162 -46.852,16.9748 -72.9827,16.9748 -26.1319,0 -51.9378,-5.65867 -72.9827,-16.9748 -149.915,-80.6079 1.50709,-80.6127 -148.408,0 -21.0461,11.3162 -46.852,16.9748 -72.9839,16.9748 -26.1319,0 -51.9378,-5.65867 -72.9839,-16.9748 -0.646063,-0.347244 -1.2874,-0.700394 -1.92402,-1.05827l141.436 424.302 750.63 0 141.568 -424.698z"/>
   <path id="_323019576" class="fil0" d="M287.999 625.593c-17.6728,0 -32.0008,14.328 -32.0008,32.0008 0,17.6728 14.328,32.0008 32.0008,32.0008l53.55 0 236.941 710.814 30.2504 -10.0004 -30.3579 10.1197c4.5437,13.6347 17.3788,22.1729 31.0311,21.8811l829.842 0c15.2067,0 27.9366,-10.6087 31.1929,-24.828l236 -707.986 53.5512 0c17.6728,0 32.0008,-14.328 32.0008,-32.0008 0,-17.6728 -14.328,-32.0008 -32.0008,-32.0008l-75.7949 0c-13.6524,-0.291733 -26.4874,8.24646 -31.0311,21.8811l30.3579 10.1197 -30.2504 -10.0004 -236.942 710.814 -784.681 0 -235.999 -707.986c-3.2563,-14.2193 -15.9862,-24.828 -31.1929,-24.828l-76.467 0z"/>
  </g>
 </g>
 <rect class="fil1" width="2048" height="2048"/>
</svg>
