<?xml version="1.0" encoding="UTF-8"?>
<!DOCTYPE svg PUBLIC "-//W3C//DTD SVG 1.1//EN" "http://www.w3.org/Graphics/SVG/1.1/DTD/svg11.dtd">
<!-- Creator: CorelDRAW -->
<svg xmlns="http://www.w3.org/2000/svg" xml:space="preserve" width="2048px" height="2048px" style="shape-rendering:geometricPrecision; text-rendering:geometricPrecision; image-rendering:optimizeQuality; fill-rule:evenodd; clip-rule:evenodd"
viewBox="0 0 2048 2048"
 xmlns:xlink="http://www.w3.org/1999/xlink">
 <defs>
  <style type="text/css">
   <![CDATA[
    .fil2 {fill:none}
    .fil0 {fill:#424242}
    .fil1 {fill:#424242;fill-rule:nonzero}
   ]]>
  </style>
 </defs>
 <g id="Layer_x0020_1">
  <metadata id="CorelCorpID_0Corel-Layer"/>
  <g id="_323483448">
   <path id="_323484192" class="fil0" d="M1738.22 930.527c71.7024,0 71.7012,130.873 0,130.873 -195.928,0 -391.857,0 -587.787,0 -71.7012,0 -71.7024,-130.873 0,-130.873 195.93,0 391.858,0 587.787,0z"/>
   <path id="_323483784" class="fil0" d="M1738.22 1224.79c71.7012,0 71.7024,-130.873 0,-130.873 -195.928,0 -391.857,0 -587.787,0 -71.7024,0 -71.7012,130.873 0,130.873 195.93,0 391.858,0 587.787,0z"/>
   <path id="_323482968" class="fil0" d="M1738.22 1257.31c71.7024,0 71.7012,130.873 0,130.873 -195.928,0 -391.857,0 -587.787,0 -71.7012,0 -71.7024,-130.873 0,-130.873 195.93,0 391.858,0 587.787,0z"/>
   <path id="_323482944" class="fil0" d="M1150.44 1551.58c-71.7012,0 -71.7024,-130.873 0,-130.873 195.93,0 391.858,0 587.787,0 71.7024,0 71.7012,130.873 0,130.873 -195.928,0 -391.857,0 -587.787,0z"/>
   <g>
    <path id="_323483472" class="fil1" d="M419.002 1490.76c-12.2386,-42.9284 -21.7299,-87.8906 -28.1646,-134.508 -6.36024,-46.0713 -9.68859,-93.1867 -9.68859,-140.936 0,-199.43 56.654,-381.656 149.758,-519.724 95.595,-141.763 229.847,-237.405 381.553,-258.689 3.22677,-0.452363 2.25709,-6.29764 7.7752,-13.0925 15.1819,-18.6851 30.4713,-37.5095 56.2559,-37.5095 17.9599,0 32.5193,14.5606 32.5193,32.5205l0 877.492c0,17.9587 -14.5595,32.5193 -32.5193,32.5193 -1.82008,0 -3.60473,-0.152362 -5.34213,-0.43937 -0.689764,-0.0425197 -1.45158,-0.0862205 -2.29252,-0.126378 -0.362599,-0.0177165 -1.85315,-0.0283465 -4.63347,-0.0283465 -31.565,0 -61.5284,15.1476 -87.0473,41.1603 -28.7457,29.302 -51.7807,71.8808 -65.752,122.545l0.0944883 0.0259843c-4.03583,14.6362 -17.4543,24.1618 -31.9677,23.876l-328.883 0c-15.4016,0 -28.3028,-10.7091 -31.6654,-25.0866zm324.496 -192.796l0 -469.696c0,-87.5977 -34.6453,-134.445 -99.2954,-43.6713 -90.6201,127.238 -152.372,303.819 -152.372,439.921 0,123.682 118.918,73.4469 251.667,73.4469z"/>
    <path id="_323483136" class="fil1" d="M1009.01 1215.31c0,-17.9599 -14.5595,-32.5205 -32.5193,-32.5205 -17.9599,0 -32.5205,14.5606 -32.5205,32.5205l0 120.586c0,17.9599 14.5606,32.5193 32.5205,32.5193 17.9599,0 32.5193,-14.5595 32.5193,-32.5193l0 -120.586z"/>
    <path id="_323483112" class="fil1" d="M761.717 1020.46c0,-17.9599 -14.5606,-32.5193 -32.5205,-32.5193 -17.9599,0 -32.5193,14.5595 -32.5193,32.5193l0 120.585c0,17.9599 14.5595,32.5205 32.5193,32.5205 17.9599,0 32.5205,-14.5606 32.5205,-32.5205l0 -120.585z"/>
    <path id="_323483304" class="fil1" d="M637.989 1414.96c13.1008,-2.94449 21.3331,-15.9555 18.3874,-29.0563 -2.94567,-13.1008 -15.9567,-21.3331 -29.0575,-18.3874 -81.6804,18.5705 -65.0812,84.0957 -49.9512,143.813 6.73465,26.5819 12.9827,51.2504 7.40552,54.4559 -15.6992,9.02245 -58.5343,4.12441 -99.6674,-0.579922 -53.8477,-6.15709 -105.374,-12.0473 -127.062,14.8583 -10.1445,12.5847 -21.424,20.928 -33.2303,26.0268 -13.6134,5.87835 -28.2803,7.61693 -42.9461,6.66615 -13.4173,-0.840946 -24.978,9.35316 -25.8189,22.7705 -0.842127,13.4162 9.35316,24.9768 22.7693,25.8189 21.8469,1.41496 44.0528,-1.32874 65.2406,-10.4787 18.7028,-8.07638 36.3496,-21.0201 51.9048,-40.317 4.80473,-5.95985 43.3418,-1.55315 83.6162,3.05197 48.8091,5.58189 99.6355,11.3941 129.393,-5.70709 37.6264,-21.6248 27.0496,-63.3804 15.6496,-108.379 -9.31064,-36.7512 -19.526,-77.0776 13.3665,-84.5564z"/>
   </g>
  </g>
 </g>
 <rect class="fil2" width="2048" height="2048"/>
</svg>
