<?xml version="1.0" encoding="UTF-8"?>
<!DOCTYPE svg PUBLIC "-//W3C//DTD SVG 1.1//EN" "http://www.w3.org/Graphics/SVG/1.1/DTD/svg11.dtd">
<!-- Creator: CorelDRAW -->
<svg xmlns="http://www.w3.org/2000/svg" xml:space="preserve" width="2048px" height="2048px" style="shape-rendering:geometricPrecision; text-rendering:geometricPrecision; image-rendering:optimizeQuality; fill-rule:evenodd; clip-rule:evenodd"
viewBox="0 0 2048 2048"
 xmlns:xlink="http://www.w3.org/1999/xlink">
 <defs>
  <style type="text/css">
   <![CDATA[
    .fil2 {fill:none}
    .fil1 {fill:#424242}
    .fil0 {fill:#424242;fill-rule:nonzero}
   ]]>
  </style>
 </defs>
 <g id="Layer_x0020_1">
  <metadata id="CorelCorpID_0Corel-Layer"/>
  <g id="_323470416">
   <path id="_323472096" class="fil0" d="M762.552 1726.64c-18.0484,0 -32.6811,14.6339 -32.6811,32.6823 0,18.0484 14.6327,32.6811 32.6811,32.6811l522.896 0c18.0484,0 32.6811,-14.6327 32.6811,-32.6811 0,-18.0484 -14.6327,-32.6823 -32.6811,-32.6823l-522.896 0z"/>
   <path id="_323471712" class="fil0" d="M680.435 1012.52c-18.0484,0 -32.6811,14.6339 -32.6811,32.6823 0,18.0484 14.6327,32.6811 32.6811,32.6811l687.129 0c18.0484,0 32.6811,-14.6327 32.6811,-32.6811 0,-18.0484 -14.6327,-32.6823 -32.6811,-32.6823l-687.129 0z"/>
   <path id="_323470992" class="fil0" d="M654.361 441.933c-18.0496,0 -32.6823,-14.6327 -32.6823,-32.6811 0,-18.0484 14.6327,-32.6823 32.6823,-32.6823l403.183 0 336.096 0c18.0496,0 32.6823,14.6339 32.6823,32.6823 0,18.0484 -14.6327,32.6811 -32.6823,32.6811 -246.427,0 -492.852,0 -739.279,0z"/>
   <path id="_323471256" class="fil1" d="M1024 1045.19l298.661 0c0,164.948 -133.713,298.661 -298.661,298.661 -164.948,0 -298.661,-133.713 -298.661,-298.661l298.661 0zm108.137 210.742c3.55158,-39.3189 35.2418,-70.5178 74.7792,-73.3016l0 -0.413386c-40.6111,-2.85827 -72.9449,-35.6953 -75.0119,-76.519l-0.212599 0c-2.06575,40.8237 -34.3996,73.6619 -75.0095,76.5213l0 0.413386c39.5363,2.78268 71.2264,33.9803 74.7816,73.2993l0.673229 0z"/>
   <circle id="_323471088" class="fil1" cx="1024" cy="311.532" r="55.5312"/>
   <path id="_323470656" class="fil1" d="M1106.09 1332.38l-164.188 0c-2.07638,102.233 -44.7886,338.186 -92.3174,426.935l348.822 0c-47.5288,-88.7481 -90.241,-324.702 -92.3174,-426.935z"/>
   <line id="_323471136" class="fil2" x1="882.27" y1="1759.32" x2="1165.73" y2= "1759.32" />
   <path id="_323470056" class="fil1" d="M728.634 906.021l590.732 0c17.9528,0 32.6433,-14.6882 32.6433,-32.6457l0 -464.159c0,-17.9575 -14.6906,-32.6457 -32.6433,-32.6457l-590.732 0c-17.9528,0 -32.6433,14.6882 -32.6433,32.6457l0 464.159c0,17.9575 14.6906,32.6457 32.6433,32.6457zm481.959 -159.807c5.10827,-56.5453 50.68,-101.41 107.536,-105.415l0 -0.592914c-58.3997,-4.11142 -104.899,-51.3319 -107.869,-110.04l-0.307087 0c-2.96929,58.7079 -49.4693,105.928 -107.87,110.042l0 0.595276c56.8571,4.00158 102.43,48.8646 107.541,105.41l0.969686 0z"/>
  </g>
 </g>
 <rect class="fil2" width="2048" height="2048"/>
</svg>
