<?xml version="1.0" encoding="UTF-8"?>
<!DOCTYPE svg PUBLIC "-//W3C//DTD SVG 1.1//EN" "http://www.w3.org/Graphics/SVG/1.1/DTD/svg11.dtd">
<!-- Creator: CorelDRAW -->
<svg xmlns="http://www.w3.org/2000/svg" xml:space="preserve" width="2048px" height="2048px" style="shape-rendering:geometricPrecision; text-rendering:geometricPrecision; image-rendering:optimizeQuality; fill-rule:evenodd; clip-rule:evenodd"
viewBox="0 0 2048 2048"
 xmlns:xlink="http://www.w3.org/1999/xlink">
 <defs>
  <style type="text/css">
   <![CDATA[
    .fil1 {fill:none}
    .fil0 {fill:#424242}
   ]]>
  </style>
 </defs>
 <g id="Layer_x0020_1">
  <metadata id="CorelCorpID_0Corel-Layer"/>
  <g id="_323471688">
   <ellipse id="_323473656" class="fil0" cx="438.287" cy="384.655" rx="128.655" ry="128.655"/>
   <ellipse id="_323473104" class="fil0" cx="857.639" cy="338.492" rx="82.4921" ry="82.492"/>
   <ellipse id="_323473344" class="fil0" cx="1184.72" cy="514.76" rx="95.358" ry="95.3579"/>
   <ellipse id="_323472648" class="fil0" cx="1634.75" cy="592.987" rx="108.223" ry="108.223"/>
   <path id="_323472552" class="fil0" d="M1024 1307.17l751.655 0c0,267.763 -336.528,484.828 -751.655,484.828 -415.128,0 -751.656,-217.064 -751.656,-484.828l751.656 0z"/>
   <path id="_323472816" class="fil0" d="M751.912 569.182c194.801,0 352.72,157.918 352.72,352.72 0,194.801 -157.919,352.718 -352.72,352.718 -194.801,0 -352.718,-157.917 -352.718,-352.718 0,-194.802 157.917,-352.72 352.718,-352.72zm0 188.118c90.9072,0 164.602,73.6949 164.602,164.602 0,90.906 -73.6949,164.6 -164.602,164.6 -90.906,0 -164.6,-73.6938 -164.6,-164.6 0,-90.9072 73.6938,-164.602 164.6,-164.602z"/>
   <path id="_323472456" class="fil0" d="M1376.72 730.442c-150.271,0 -272.09,121.819 -272.09,272.088 0,150.271 121.819,272.09 272.09,272.09 150.269,0 272.088,-121.819 272.088,-272.09 0,-150.269 -121.819,-272.088 -272.088,-272.088zm0 145.115c-70.1268,0 -126.975,56.8477 -126.975,126.973 0,70.1256 56.8477,126.975 126.975,126.975 70.1245,0 126.972,-56.8489 126.972,-126.975 0,-70.1256 -56.8477,-126.973 -126.972,-126.973z"/>
  </g>
 </g>
 <rect class="fil1" width="2048" height="2048"/>
</svg>
