<?xml version="1.0" encoding="UTF-8"?>
<!DOCTYPE svg PUBLIC "-//W3C//DTD SVG 1.1//EN" "http://www.w3.org/Graphics/SVG/1.1/DTD/svg11.dtd">
<!-- Creator: CorelDRAW -->
<svg xmlns="http://www.w3.org/2000/svg" xml:space="preserve" width="2048px" height="2048px" style="shape-rendering:geometricPrecision; text-rendering:geometricPrecision; image-rendering:optimizeQuality; fill-rule:evenodd; clip-rule:evenodd"
viewBox="0 0 2048 2048"
 xmlns:xlink="http://www.w3.org/1999/xlink">
 <defs>
  <style type="text/css">
   <![CDATA[
    .fil2 {fill:none}
    .fil0 {fill:#424242}
    .fil1 {fill:#424242;fill-rule:nonzero}
   ]]>
  </style>
 </defs>
 <g id="Layer_x0020_1">
  <metadata id="CorelCorpID_0Corel-Layer"/>
  <g id="_323475600">
   <g>
    <path id="_323477232" class="fil0" d="M898.005 700.555l-92.8194 559.967c0,100.456 -414.216,100.456 -414.216,0l-89.6741 -558.675 301.094 30.039 295.616 -31.3311z"/>
    <path id="_323476392" class="fil1" d="M911.676 660.071c0.239764,8.74371 7.52363,15.6378 16.2662,15.398 8.74371,-0.238583 15.6378,-7.52245 15.398,-16.2662 -5.21221,-181.975 -90.5457,-299.978 -199.388,-353.778 -45.43,-22.4563 -94.8721,-33.6851 -144.261,-33.6851 -49.389,0 -98.8312,11.2287 -144.261,33.6851 -108.842,53.8004 -194.176,171.804 -199.387,353.778 -0.239764,8.74371 6.65434,16.0276 15.398,16.2662 8.74371,0.239764 16.0276,-6.65434 16.2662,-15.398 4.82599,-168.533 82.5981,-277.198 181.755,-326.211 40.9075,-20.2205 85.5438,-30.3319 130.228,-30.3319 44.6859,0 89.3209,10.1114 130.228,30.3319 99.1572,49.0134 176.929,157.677 181.756,326.211z"/>
    <path id="_323476272" class="fil0" d="M729.109 281.514l0 68.2501 -21.5374 -9.04253c-34.1351,-14.3291 -70.8686,-21.665 -107.881,-21.665 -37.0099,0 -73.7457,7.33583 -107.878,21.6638l-21.5374 9.04253 0 -68.2501 10.0973 -3.7689c38.139,-14.237 78.6095,-21.5327 119.319,-21.5327 40.7103,0 81.1808,7.29686 119.321,21.5339l10.0973 3.7689z"/>
    <path id="_323476632" class="fil1" d="M713.582 292.292c-36.7051,-13.7008 -75.3142,-20.5536 -113.891,-20.5536 -38.576,0 -77.1851,6.85158 -113.889,20.5524l0 34.1126c36.3201,-15.2469 75.0863,-22.8744 113.889,-22.8744 38.804,0 77.5701,7.62756 113.891,22.8756l0 -34.1126z"/>
    <path id="_323476224" class="fil0" d="M599.691 583.17c181.091,0 327.896,37.2674 327.896,83.2394 0,45.9709 -146.804,83.2383 -327.896,83.2383 -181.091,0 -327.896,-37.2674 -327.896,-83.2383 0,-45.9721 146.804,-83.2394 327.896,-83.2394zm0.0011811 34.8945c154.758,0 280.213,21.6437 280.213,48.3449 0,26.7 -125.456,48.3437 -280.213,48.3437 -154.758,0 -280.214,-21.6437 -280.214,-48.3437 0,-26.7012 125.457,-48.3449 280.214,-48.3449z"/>
   </g>
   <path id="_323475792" class="fil0" d="M1676.7 1281.27l0 0zm-860.349 181.442c0.0318898,-0.526772 0.0732284,-1.05236 0.126378,-1.57323 0.388583,-4.05 1.27441,-8.01615 2.6563,-11.7307 4.8567,-13.0571 16.0453,-23.2583 33.5929,-23.2583l47.3622 1.6311 219.565 4.68071c1.33228,0.0283465 2.64803,0.126378 3.94252,0.28937 2.60315,-3.59292 0.0531496,-9.66142 -4.73504,-9.28465l-216.665 -14.0173c-0.124016,-0.00826772 -0.248032,-0.0129921 -0.370866,-0.0129921l0 -0.0141732c-18.2291,0 -29.8524,-10.598 -34.8981,-24.1618 -1.99725,-5.37166 -2.99764,-11.2465 -2.99764,-17.1614 0,-5.91497 1.00039,-11.7898 2.99764,-17.1602 5.04567,-13.565 16.6689,-24.163 34.8981,-24.163l242.395 18.1819c3.45709,0.396851 6.55985,-2.31142 6.92599,-6.04725 0.367323,-3.73465 -2.1378,-7.0878 -5.59607,-7.48347l-153.952 -18.2362c-0.22441,-0.0259843 -0.446457,-0.0377953 -0.667323,-0.0377953l0 -0.0153543c-18.6815,0 -30.1075,-10.5614 -35.0008,-24.0898 -2.18386,-6.04134 -3.12756,-12.6732 -2.88307,-19.2496 0.243307,-6.56575 1.67953,-13.0831 4.25079,-18.9059 5.60552,-12.7028 16.8591,-21.9213 33.1146,-20.4284 115.167,10.5827 225.292,19.9595 335.698,21.1701 108.713,1.19291 217.203,-5.57008 330.125,-26.9658l20.4638 56.602 4.78465 16.1752c0.0507874,0.246851 0.114567,0.49252 0.194882,0.735827 36.8705,116.113 29.9551,223.266 10.3465,290.983 -5.8689,20.2677 -12.8445,36.8918 -20.0823,49.0465 -6.74528,11.328 -13.4516,18.4713 -19.3606,20.6622 -1.90394,0.7063 -3.66142,0.817323 -5.21811,0.290551 -50.7154,-17.1449 -118.316,-20.8606 -187.426,-24.6579l-76.3949 -4.94055 -270.448 148.378c-0.614174,0.323622 -1.19055,0.760631 -1.69843,1.31221 -12.8894,13.9276 -28.05,15.3118 -40.5,9.57284 -4.92402,-2.2689 -9.47481,-5.65985 -13.3406,-9.83741 -3.86693,-4.17874 -7.00276,-9.09331 -9.10394,-14.4154 -5.31142,-13.4551 -4.02992,-29.8335 8.85827,-43.7622l99.1241 -107.106c1.18347,-1.23898 1.91929,-2.97638 1.91929,-4.89804 0,-3.76536 -2.8252,-6.81851 -6.31063,-6.81851l-250.219 0c-18.2291,0 -29.8524,-10.598 -34.8981,-24.1618 -1.99725,-5.37166 -2.99764,-11.2465 -2.99764,-17.1614 0,-5.91497 1.00039,-11.7898 2.99764,-17.1602 5.04567,-13.565 16.6689,-24.163 34.8981,-24.163l0 -0.0271654c0.00944883,0 0.0165354,0 0.0248032,0l208.257 -0.905906c3.47126,-0.0141732 6.23268,-2.26181 6.21969,-6.013 -0.00472441,-1.57087 -0.497244,-2.76378 -1.32284,-3.61772l-112.694 -2.40236 -100.485 -0.644882 0 -0.0271654 -49.0985 0c-17.5477,0 -28.7362,-10.2024 -33.5929,-23.2595 -1.92284,-5.16969 -2.88544,-10.826 -2.88544,-16.5189 0,-0.895276 0.0236221,-1.79055 0.0720473,-2.68347l0.00826772 -0.154725 0.022441 -0.376772zm865.328 -164.531l0 0z"/>
   <path id="_323475264" class="fil0" d="M1281.23 1116.45l0 0zm181.442 -860.349c-0.526772,0.0318898 -1.05118,0.0732284 -1.57323,0.126378 -4.05,0.388583 -8.01497,1.27441 -11.7295,2.6563 -13.0583,4.8567 -23.2595,16.0453 -23.2595,33.5941l1.6311 47.3611 4.68071 219.565c0.0283465,1.33228 0.126378,2.64803 0.28937,3.94252 -3.59292,2.60315 -9.66142,0.0531496 -9.28347,-4.73504l-14.0185 -216.665c-0.00826772,-0.124016 -0.011811,-0.246851 -0.011811,-0.369685l-0.0153543 0c0,-18.2303 -10.598,-29.8536 -24.1618,-34.8992 -5.37166,-1.99725 -11.2465,-2.99646 -17.1602,-2.99646 -5.91497,0 -11.791,0.999213 -17.1614,2.99646 -13.565,5.04567 -24.163,16.6689 -24.163,34.8992l18.1831 242.394c0.39567,3.45709 -2.31142,6.55985 -6.04725,6.92717 -3.73583,0.366142 -7.0878,-2.13898 -7.48465,-5.59725l-18.2362 -153.952c-0.0259843,-0.22441 -0.0377953,-0.446457 -0.0377953,-0.667323l-0.0153543 0c0,-18.6815 -10.5602,-30.1075 -24.0898,-35.0008 -6.04016,-2.18386 -12.6721,-3.12756 -19.2496,-2.88307 -6.56575,0.243307 -13.0831,1.67953 -18.9059,4.25079 -12.7028,5.60552 -21.9213,16.8591 -20.4284,33.1146 10.5839,115.167 19.9595,225.292 21.1701,335.698 1.19291,108.713 -5.5689,217.203 -26.9658,330.125l56.602 20.4638 16.1752 4.78465c0.246851,0.0507874 0.49252,0.114567 0.735827,0.194882 116.113,36.8705 223.267,29.9551 290.983,10.3465 20.2677,-5.8689 36.8918,-12.8445 49.0465,-20.0823 11.328,-6.74528 18.4713,-13.4516 20.6634,-19.3595 0.705119,-1.90512 0.816142,-3.6626 0.28937,-5.2193 -17.1449,-50.7154 -20.8595,-118.316 -24.6567,-187.426l-4.94174 -76.3949 148.38 -270.448c0.322441,-0.614174 0.759449,-1.19055 1.31102,-1.69843 13.9276,-12.8894 15.3118,-28.0488 9.57284,-40.5 -2.2689,-4.92402 -5.65985,-9.47481 -9.83741,-13.3406 -4.17874,-3.86575 -9.09331,-7.00276 -14.4154,-9.10394 -13.4539,-5.31142 -29.8335,-4.02992 -43.7622,8.85946l-107.106 99.1229c-1.23898,1.18347 -2.9752,1.91929 -4.89685,1.91929 -3.76654,0 -6.81969,-2.8252 -6.81969,-6.31063l0 -250.218c0,-18.2303 -10.598,-29.8536 -24.1618,-34.8992 -5.37166,-1.99725 -11.2465,-2.99646 -17.1602,-2.99646 -5.91615,0 -11.791,0.999213 -17.1614,2.99646 -13.565,5.04567 -24.163,16.6689 -24.163,34.8992l-0.0271654 0c0,0.00826772 0,0.0153543 0,0.0236221l-0.905906 208.257c-0.0141732,3.47126 -2.26181,6.23268 -6.013,6.21969 -1.57087,-0.00472441 -2.76378,-0.497244 -3.61772,-1.32165l-2.40236 -112.695 -0.644882 -100.484 -0.0271654 0 0 -49.0985c0,-17.5488 -10.2012,-28.7374 -23.2583,-33.5941 -5.17087,-1.92284 -10.826,-2.88544 -16.5201,-2.88544 -0.895276,0 -1.79055,0.0248032 -2.68229,0.0720473l-0.154725 0.00826772 -0.377953 0.022441zm-164.531 865.328l0 0z"/>
  </g>
 </g>
 <rect class="fil2" width="2048" height="2048"/>
</svg>
