<?xml version="1.0" encoding="UTF-8"?>
<!DOCTYPE svg PUBLIC "-//W3C//DTD SVG 1.1//EN" "http://www.w3.org/Graphics/SVG/1.1/DTD/svg11.dtd">
<!-- Creator: CorelDRAW -->
<svg xmlns="http://www.w3.org/2000/svg" xml:space="preserve" width="2048px" height="2048px" style="shape-rendering:geometricPrecision; text-rendering:geometricPrecision; image-rendering:optimizeQuality; fill-rule:evenodd; clip-rule:evenodd"
viewBox="0 0 2048 2048"
 xmlns:xlink="http://www.w3.org/1999/xlink">
 <defs>
  <style type="text/css">
   <![CDATA[
    .fil2 {fill:none}
    .fil1 {fill:#424242}
    .fil0 {fill:#424242;fill-rule:nonzero}
   ]]>
  </style>
 </defs>
 <g id="Layer_x0020_1">
  <metadata id="CorelCorpID_0Corel-Layer"/>
  <g id="_323477400">
   <path id="_323479008" class="fil0" d="M533.476 733.372c0,-26.0197 -21.0957,-47.1142 -47.1154,-47.1142 -26.0197,0 -47.1142,21.0945 -47.1142,47.1142l0 1044.47 94.2296 0 0 -1044.47zm1046.95 1044.47l0 -1062.72c0,-26.0197 -21.0957,-47.1142 -47.1154,-47.1142 -26.0197,0 -47.1142,21.0945 -47.1142,47.1142l0 1062.72 94.2296 0z"/>
   <path id="_323478384" class="fil0" d="M1729.18 851.665c0,17.3469 14.0634,31.4103 31.4103,31.4103 17.3469,0 31.4103,-14.0634 31.4103,-31.4103l0 -75.7536c0,-11.8193 -6.53032,-22.1138 -16.1788,-27.4748l-734.849 -473.218 0.034252 -0.0543308c-11.315,-7.28623 -25.5484,-6.38386 -35.7485,1.19528l-734.779 473.174 16.9323 26.3788 -17.0067 -26.4083c-9.39331,6.04961 -14.4803,16.2662 -14.4036,26.6693l0 75.4926c0,17.3469 14.0634,31.4103 31.4103,31.4103 17.3469,0 31.4103,-14.0634 31.4103,-31.4103l0 -58.6985 1410.36 0 0 58.6985z"/>
   <g>
    <g>
     <path id="_323478888" class="fil1" d="M1396.4 1325.24l-62.928 379.628c0,68.1048 -280.817,68.1048 -280.817,0l-60.7949 -378.753 204.127 20.3658 200.413 -21.241z"/>
     <path id="_323478528" class="fil0" d="M1405.67 1297.79c0.161811,5.92678 5.1,10.6016 11.028,10.4386 5.92678,-0.161811 10.6016,-5.1 10.4386,-11.028 -3.53386,-123.37 -61.3855,-203.369 -135.175,-239.843 -30.7984,-15.2244 -64.3182,-22.8366 -97.8024,-22.8366 -33.4819,0 -67.0016,7.61221 -97.8001,22.8366 -73.7894,36.4737 -131.641,116.474 -135.175,239.843 -0.161811,5.92796 4.51181,10.8662 10.4398,11.028 5.92678,0.162992 10.865,-4.51181 11.028,-10.4386 3.27047,-114.258 55.9973,-187.927 123.22,-221.155 27.7335,-13.7091 57.9945,-20.5642 88.2875,-20.5642 30.2953,0 60.5552,6.85512 88.2887,20.5642 67.2237,33.228 119.949,106.897 123.222,221.155z"/>
     <path id="_323478432" class="fil1" d="M1281.9 1041.15l0 46.2697 -14.6008 -6.12993c-23.1425,-9.71457 -48.0449,-14.6882 -73.1375,-14.6882 -25.0914,0 -49.9961,4.97363 -73.1363,14.687l-14.602 6.12993 0 -46.2697 6.84567 -2.55473c25.8567,-9.65198 53.2937,-14.5984 80.8926,-14.5984 27.5988,0 55.0359,4.94646 80.8926,14.5984l6.84567 2.55591z"/>
     <path id="_323477832" class="fil0" d="M1271.37 1048.46c-24.8835,-9.2882 -51.0591,-13.9347 -77.2123,-13.9347 -26.1532,0 -52.3276,4.64528 -77.2111,13.9335l0 23.126c24.6225,-10.3358 50.9044,-15.5067 77.2111,-15.5067 26.3067,0 52.5874,5.17087 77.2123,15.5079l0 -23.126z"/>
     <path id="_323478048" class="fil1" d="M1194.16 1245.66c122.772,0 222.298,25.2662 222.298,56.4319 0,31.167 -99.5257,56.4319 -222.298,56.4319 -122.77,0 -222.295,-25.265 -222.295,-56.4319 0,-31.1658 99.5257,-56.4319 222.295,-56.4319zm0.0011811 23.6575c104.917,0 189.971,14.6728 189.971,32.7744 0,18.1016 -85.0536,32.7744 -189.971,32.7744 -104.917,0 -189.97,-14.6728 -189.97,-32.7744 0,-18.1016 85.0524,-32.7744 189.97,-32.7744z"/>
    </g>
    <g>
     <path id="_323478288" class="fil1" d="M741.314 1588.42c92.5217,0 167.525,75.0036 167.525,167.525l-335.051 0c0,-92.5217 75.0036,-167.525 167.525,-167.525z"/>
     <path id="_323478240" class="fil1" d="M828.401 1593.93c0.562205,-20.9528 -4.11024,-53.5607 -37.7705,-57.9036l-49.317 0 -49.317 0c-33.6603,4.34292 -38.3327,36.952 -37.7705,57.9036 25.924,-13.9654 55.5792,-21.8965 87.0875,-21.8965 31.5083,0 61.1623,7.93111 87.0875,21.8965z"/>
     <polygon id="_323478216" class="fil1" points="785.754,1519.98 785.754,1444.55 696.873,1444.55 696.873,1519.98 "/>
     <path id="_323477904" class="fil0" d="M724.926 1460.91c0,9.04961 7.33819,16.3878 16.3878,16.3878 9.05079,0 16.3878,-7.33819 16.3878,-16.3878l0 -442.413c0,-9.04961 -7.33701,-16.3878 -16.3878,-16.3878 -9.04961,0 -16.3878,7.33819 -16.3878,16.3878l0 442.413z"/>
    </g>
   </g>
  </g>
 </g>
 <rect class="fil2" width="2048" height="2048"/>
</svg>
