<?xml version="1.0" encoding="UTF-8"?>
<!DOCTYPE svg PUBLIC "-//W3C//DTD SVG 1.1//EN" "http://www.w3.org/Graphics/SVG/1.1/DTD/svg11.dtd">
<!-- Creator: CorelDRAW -->
<svg xmlns="http://www.w3.org/2000/svg" xml:space="preserve" width="2048px" height="2048px" style="shape-rendering:geometricPrecision; text-rendering:geometricPrecision; image-rendering:optimizeQuality; fill-rule:evenodd; clip-rule:evenodd"
viewBox="0 0 2048 2048"
 xmlns:xlink="http://www.w3.org/1999/xlink">
 <defs>
  <style type="text/css">
   <![CDATA[
    .fil1 {fill:none}
    .fil0 {fill:#424242}
   ]]>
  </style>
 </defs>
 <g id="Layer_x0020_1">
  <metadata id="CorelCorpID_0Corel-Layer"/>
  <g id="_323481264">
   <path id="_323481528" class="fil0" d="M1738.56 332.893c74.8394,86.9339 71.0823,219.317 -11.2831,301.682l-6.03898 6.03898 -94.6536 -195.745 111.976 -111.976zm-41.387 331.786l-73.1386 73.1386 -94.6536 -195.744 72.4524 -72.4536 92.1461 190.559c0.829134,1.71614 1.91693,3.22441 3.1937,4.5zm-97.2048 97.2048l-73.1375 73.1375 -94.6536 -195.744 72.4524 -72.4536 92.1461 190.559c0.829134,1.71614 1.91693,3.22441 3.19252,4.50118zm-97.2036 97.2036l-73.1375 73.1375 -94.6548 -195.744 72.4536 -72.4524 92.145 190.559c0.830316,1.71614 1.91693,3.22323 3.1937,4.5zm-97.2036 97.2036l-73.1386 73.1386 -94.6536 -195.745 72.4536 -72.4524 92.1461 190.56c0.829134,1.71614 1.91693,3.22323 3.19252,4.49882zm-97.2036 97.2036l-73.1386 73.1386 -94.6536 -195.745 72.4524 -72.4524 92.1461 190.559c0.830316,1.71614 1.91693,3.22323 3.1937,4.5zm-97.2048 97.2036l-51.2126 51.2138 -145.199 -145.199 101.073 -101.074 92.1461 190.559c0.829134,1.71614 1.91693,3.22441 3.19252,4.5zm-219.859 -117.434l-145.2 -145.199 51.2138 -51.2126c1.27559,1.27559 2.78386,2.36457 4.5,3.1937l190.559 92.145 -101.073 101.073zm-69.9213 -220.478l73.1386 -73.1386c1.27677,1.27677 2.78386,2.36457 4.5,3.1937l190.559 92.1461 -72.4524 72.4524 -195.745 -94.6536zm97.2036 -97.2036l73.1386 -73.1386c1.27677,1.27677 2.78386,2.36339 4.5,3.1937l190.559 92.145 -72.4524 72.4536 -195.745 -94.6536zm97.2048 -97.2036l73.1375 -73.1386c1.27677,1.27677 2.78386,2.36339 4.5,3.1937l190.559 92.145 -72.4524 72.4536 -195.744 -94.6536zm97.2036 -97.2048l73.1375 -73.1375c1.27677,1.27677 2.78504,2.36457 4.50118,3.1937l190.559 92.145 -72.4536 72.4524 -195.744 -94.6536zm97.2036 -97.2036l73.1386 -73.1375c1.27559,1.27559 2.78386,2.36457 4.50118,3.1937l190.558 92.145 -72.4524 72.4524 -195.745 -94.6536zm97.2036 -97.2036l6.03898 -6.03898c82.3654,-82.3654 214.746,-86.1237 301.682,-11.2831l-111.976 111.976 -195.745 -94.6536z"/>
   <rect id="_323480928" class="fil0" transform="matrix(0.418703 0.418703 -1.00592 1.00592 738.84 1215.37)" width="224" height="480"/>
   <rect id="_323480832" class="fil0" transform="matrix(0.732721 0.732721 -0.808155 0.808155 980.341 1022.3)" width="61.9016" height="293.182"/>
  </g>
 </g>
 <rect class="fil1" width="2048" height="2048"/>
</svg>
