<?xml version="1.0" encoding="UTF-8"?>
<!DOCTYPE svg PUBLIC "-//W3C//DTD SVG 1.1//EN" "http://www.w3.org/Graphics/SVG/1.1/DTD/svg11.dtd">
<!-- Creator: CorelDRAW -->
<svg xmlns="http://www.w3.org/2000/svg" xml:space="preserve" width="2048px" height="2048px" style="shape-rendering:geometricPrecision; text-rendering:geometricPrecision; image-rendering:optimizeQuality; fill-rule:evenodd; clip-rule:evenodd"
viewBox="0 0 2048 2048"
 xmlns:xlink="http://www.w3.org/1999/xlink">
 <defs>
  <style type="text/css">
   <![CDATA[
    .fil1 {fill:none}
    .fil0 {fill:#424242}
   ]]>
  </style>
 </defs>
 <g id="Layer_x0020_1">
  <metadata id="CorelCorpID_0Corel-Layer"/>
  <path class="fil0" d="M1477.45 829.59c0,-276.769 -116.852,-452.766 -266.608,-529.277 -57.9827,-29.6244 -120.943,-44.3776 -183.928,-44.3115 -62.8937,0.0637796 -125.908,14.9728 -184.102,44.6681 -150.747,76.9229 -268.664,253.44 -268.664,528.92 0,87.1253 15.9744,146.929 30.3248,200.661 26.2099,98.132 44.3445,210.59 -36.1784,388.651l0.034252 -0.00236221c-53.876,9.51851 -103.081,35.5323 -141.178,72.5422 -47.7744,46.4115 -78.039,110.107 -78.039,180.167l0 120.391 193.666 0 0 -193.011c0,-9.02363 7.31693,-16.3406 16.3406,-16.3406l116.721 0 0 -167.223c10.9772,-0.18189 22.0051,-0.32126 32.6799,-0.403937l0 167.627 630.969 0 0 -167.081c10.539,0.174803 21.5681,0.375591 32.6799,0.584646l0 166.497 116.723 0c9.02363,0 16.3406,7.31693 16.3406,16.3406l0 193.011 193.664 0 0 -120.391c0,-71.3493 -27.4925,-135.993 -72.8245,-182.551 -35.7851,-36.7524 -82.7623,-62.2642 -136.149,-70.9146l0.0295276 0c-79.8225,-178.088 -68.9682,-290.802 -42.8327,-388.281 14.3551,-53.5359 30.3331,-113.134 30.3331,-200.273zm-687.212 587.338c1.49646,0.231496 2.64331,0.486615 3.37559,0.766536l0.483071 0.210236c10.5319,-14.0303 72.2587,-91.9324 101.362,-194.906 50.6504,19.539 155.052,47.0292 260.466,-2.0941 30.2209,103.445 97.4398,180.697 108.071,194.869l1.02756 -0.441733 0.00236221 0 -234.183 100.55c-4.13268,1.98071 -9.07205,2.21929 -13.6028,0.240945l0.0188977 -0.0437008 -227.021 -99.1513zm-77.778 -648.605c0,-9.64843 0.26811,-19.9701 0.811418,-30.9638 0.368504,-7.86379 6.25512,-14.1626 13.7398,-15.3331 1.76457,-1.22599 3.79843,-2.12126 6.03662,-2.57717 38.2949,-7.8626 86.1497,-31.0276 128.862,-64.6571 33.124,-26.0799 62.843,-58.2851 82.1233,-94.2579 -20.2028,-17.3445 -52.7174,-44.7851 -69.2363,-96.1477 107.189,104.909 298.624,176.998 434.422,203.362 6.28583,0.516142 11.9705,4.67481 14.1225,11.0256 16.7374,48.8906 17.1969,99.5942 8.87009,149.36 -8.15316,48.7288 -24.7323,96.4016 -42.5398,140.437 -165.173,408.48 -577.211,211.484 -577.211,-200.248zm643.367 954.059c-9.02363,0 -16.3406,-7.31693 -16.3406,-16.3406l0 -90.7123 -630.969 0 0 90.7123c0,9.02363 -7.31693,16.3406 -16.3406,16.3406 -9.02363,0 -16.3394,-7.31693 -16.3394,-16.3406l0 -90.7123 -100.382 0 0 176.672 897.094 0 0 -176.672 -100.383 0 0 90.7123c0,9.02363 -7.31575,16.3406 -16.3394,16.3406z"/>
 </g>
 <rect class="fil1" width="2048" height="2048"/>
</svg>
