<?xml version="1.0" encoding="UTF-8"?>
<!DOCTYPE svg PUBLIC "-//W3C//DTD SVG 1.1//EN" "http://www.w3.org/Graphics/SVG/1.1/DTD/svg11.dtd">
<!-- Creator: CorelDRAW -->
<svg xmlns="http://www.w3.org/2000/svg" xml:space="preserve" width="2048px" height="2048px" style="shape-rendering:geometricPrecision; text-rendering:geometricPrecision; image-rendering:optimizeQuality; fill-rule:evenodd; clip-rule:evenodd"
viewBox="0 0 2048 2048"
 xmlns:xlink="http://www.w3.org/1999/xlink">
 <defs>
  <style type="text/css">
   <![CDATA[
    .fil1 {fill:none}
    .fil0 {fill:#424242}
   ]]>
  </style>
 </defs>
 <g id="Layer_x0020_1">
  <metadata id="CorelCorpID_0Corel-Layer"/>
  <g id="_323482632">
   <path id="_250970104" class="fil0" d="M1400.95 1079.27l0 712.727 -1005.32 0 0 -912.549c7.02993,22.6571 15.3461,44.6209 25.0784,65.4745 28.7988,61.7126 79.7753,130.864 153.914,134.219l-0.157087 0.127559 826.481 0z"/>
   <g>
    <path id="_250970632" class="fil0" d="M580.267 255.999c-101.972,0 -184.632,177.132 -184.632,395.638 0,218.503 82.6607,395.637 184.632,395.637 101.969,0 184.63,-177.134 184.63,-395.637 0,-218.505 -82.6607,-395.638 -184.63,-395.638zm-0.0011811 277.662c-30.4063,0 -55.0559,52.8189 -55.0559,117.976 0,65.1556 24.6496,117.976 55.0559,117.976 30.4063,0 55.0559,-52.8201 55.0559,-117.976 0,-65.1567 -24.6496,-117.976 -55.0559,-117.976z"/>
    <path id="_323484000" class="fil0" d="M665.001 1047.27l802.731 0c101.972,0 184.632,-177.134 184.632,-395.637 0,-218.505 -82.6607,-395.638 -184.632,-395.638l-802.731 0c32.8713,26.5547 57.7418,65.7591 74.817,102.347 41.217,88.3229 57.078,196.516 57.078,293.29 0,96.7749 -15.8622,204.966 -57.078,293.289 -17.0752,36.5882 -41.9457,75.7914 -74.817,102.347z"/>
   </g>
  </g>
 </g>
 <rect class="fil1" width="2048" height="2048"/>
</svg>
