<?xml version="1.0" encoding="UTF-8"?>
<!DOCTYPE svg PUBLIC "-//W3C//DTD SVG 1.1//EN" "http://www.w3.org/Graphics/SVG/1.1/DTD/svg11.dtd">
<!-- Creator: CorelDRAW -->
<svg xmlns="http://www.w3.org/2000/svg" xml:space="preserve" width="2048px" height="2048px" style="shape-rendering:geometricPrecision; text-rendering:geometricPrecision; image-rendering:optimizeQuality; fill-rule:evenodd; clip-rule:evenodd"
viewBox="0 0 2048 2048"
 xmlns:xlink="http://www.w3.org/1999/xlink">
 <defs>
  <style type="text/css">
   <![CDATA[
    .fil2 {fill:none}
    .fil1 {fill:#424242}
    .fil0 {fill:#424242;fill-rule:nonzero}
   ]]>
  </style>
 </defs>
 <g id="Layer_x0020_1">
  <metadata id="CorelCorpID_0Corel-Layer"/>
  <g id="_250971424">
   <path id="_250971472" class="fil0" d="M1493.59 963.713l298.413 -184.272c-80.9516,-130.865 -195.08,-235.989 -328.509,-307.89 -132.233,-71.2524 -283.314,-110.586 -439.492,-110.586 -156.178,0 -307.26,39.3331 -439.492,110.586 -133.428,71.9008 -247.557,177.025 -328.509,307.89l389.144 240.201 0.0011811 -2.82402c0.0484252,-52.3193 1.86969,-104.611 3.73937,-156.892 1.48228,-41.4343 3.11811,-82.8851 3.11811,-124.352 0,-51.7926 42.13,-93.8564 93.9095,-93.8564 16.0583,0 31.1965,4.03937 44.4414,11.1579l0 -29.1496c0,-51.7937 42.1276,-93.854 93.9072,-93.854 16.0122,0 31.115,4.02402 44.3374,11.1165l0 -29.1107c0,-51.7926 42.1311,-93.8528 93.9095,-93.8528 51.7796,0 93.9048,42.0603 93.9048,93.8528l0 66.404c13.213,-7.09843 28.3134,-11.126 44.3374,-11.126 51.7796,0.0011811 93.9072,42.0603 93.9072,93.8528l0 421.203c0,7.82599 0.0389764,16.6984 0.510237,25.6122 10.3724,-14.5961 19.6158,-30.3614 28.3807,-45.6567 9.95316,-17.3681 19.4091,-35.0162 28.7646,-52.7115 7.18465,-13.5874 14.1425,-27.2858 21.8315,-40.6004 16.7929,-29.0823 48.0792,-46.8804 81.6142,-46.8804 16.3689,0 32.5276,4.29567 46.7008,12.4913 12.9047,7.46221 23.3752,17.5713 31.1292,29.2477z"/>
   <path id="_250970920" class="fil1" d="M782.363 1676.5c20.0622,-42.5197 20.1189,-93.6414 13.4764,-139.298 -6.72048,-46.1941 -20.8961,-92.5288 -38.08,-135.875 -8.6752,-21.8811 -18.5575,-44.6811 -29.6327,-65.5099 -23.1083,-43.4622 -34.6571,-95.9847 -41.2725,-144.442 -7.84961,-57.5091 -9.76182,-116.528 -9.70985,-174.527 0.0484252,-51.9508 1.86024,-103.865 3.71811,-155.776 1.49528,-41.7768 3.13937,-83.6918 3.13937,-125.497 0,-34.1303 27.7902,-61.8556 61.9099,-61.8556 34.1351,0 62.0162,27.6839 62.0162,61.8556l0 303.862c0,3.98622 3.22559,7.21654 7.213,7.21654 3.98859,0 7.213,-3.23032 7.213,-7.21654l0 -415.712c0,-34.1303 27.7866,-61.8532 61.9075,-61.8532 34.0937,0 62.0327,27.7051 61.9087,61.8686l-1.51063 415.673c-0.0141732,3.97559 3.19488,7.23308 7.21418,7.24016 3.97441,0 7.20001,-3.21614 7.21418,-7.19056l1.50945 -415.738 0 -111.847c0,-34.1292 27.7925,-61.8532 61.9099,-61.8532 34.1185,0 61.9052,27.724 61.9052,61.8532l0 527.559c0,3.98504 3.22796,7.21654 7.213,7.21654 3.98859,0 7.21418,-3.22914 7.21418,-7.21654l0 -378.428c0,-34.1315 27.7925,-61.8544 61.9099,-61.8532 34.1185,0.0011811 61.9075,27.7229 61.9075,61.8532l0 421.203c0,20.0374 0.572835,45.3331 5.93386,64.7528 1.32165,4.78937 4.99961,16.2933 10.8992,17.55 9.12284,1.94291 25.1209,-16.7162 30.0012,-22.689 15.7063,-19.2236 29.4815,-42.2209 41.8205,-63.7489 10.1339,-17.6823 19.7634,-35.6481 29.289,-53.6646 6.96378,-13.1681 13.8083,-26.6622 21.254,-39.554 11.0728,-19.1788 31.7894,-30.8847 53.9032,-30.8847 10.748,0 21.378,2.81339 30.6839,8.19331 29.4851,17.048 39.7843,55.0229 22.7185,84.5434l-166.818 288.562c-0.174803,0.303544 -0.329528,0.620079 -0.46063,0.944883l-0.335433 0.827953 -0.523229 0.724016c-0.144095,0.200788 -0.281103,0.4063 -0.403937,0.620079l-42.2764 73.0772c-2.81693,4.86733 -6.1878,9.26576 -10.2142,13.1894 -0.559843,0.54567 -1.0252,1.1752 -1.38425,1.87087 -25.428,49.4126 -45.6544,104.877 -49.4575,160.732 -2.03268,29.8429 0.643701,61.6087 11.2417,89.7922l3.75473 9.98623 -434.894 0 4.97363 -10.5378z"/>
  </g>
 </g>
 <rect class="fil2" width="2048" height="2048"/>
</svg>
