<?xml version="1.0" encoding="UTF-8"?>
<!DOCTYPE svg PUBLIC "-//W3C//DTD SVG 1.1//EN" "http://www.w3.org/Graphics/SVG/1.1/DTD/svg11.dtd">
<!-- Creator: CorelDRAW -->
<svg xmlns="http://www.w3.org/2000/svg" xml:space="preserve" width="2048px" height="2048px" style="shape-rendering:geometricPrecision; text-rendering:geometricPrecision; image-rendering:optimizeQuality; fill-rule:evenodd; clip-rule:evenodd"
viewBox="0 0 2048 2048"
 xmlns:xlink="http://www.w3.org/1999/xlink">
 <defs>
  <style type="text/css">
   <![CDATA[
    .fil2 {fill:none}
    .fil0 {fill:#424242}
    .fil1 {fill:#424242;fill-rule:nonzero}
   ]]>
  </style>
 </defs>
 <g id="Layer_x0020_1">
  <metadata id="CorelCorpID_0Corel-Layer"/>
  <g id="_250971856">
   <path id="_250972624" class="fil0" d="M773.412 1776l109.039 0c-3.53268,-7.97481 -6.62953,-17.2689 -9.28583,-27.6827 -8.37757,-32.8453 -13.8638,-79.1221 -15.7028,-129.61l-19.8236 -544.03 -199.478 0 46.5945 542.156c4.03347,46.93 15.8244,89.5607 33.7512,119.359 14.7862,24.5788 33.5221,39.8079 54.9048,39.8079zm144.338 0l212.501 0c3.11575,0 7.98426,-13.6039 13.5839,-35.5571 7.89686,-30.9579 13.076,-74.83 14.8264,-122.86l19.7847 -542.906 -308.89 0 19.7835 542.906c1.7504,48.0272 6.92953,91.8993 14.8264,122.858 5.60079,21.9543 10.4693,35.5583 13.585,35.5583zm247.799 0l109.038 0c21.3827,0 40.1197,-15.2291 54.9059,-39.8079 17.9256,-29.7969 29.7177,-72.4276 33.75,-119.359l46.5945 -542.156 -199.477 0 -19.8248 544.03c-1.83898,50.4898 -7.3252,96.7666 -15.7028,129.611 -2.6563,10.4126 -5.75197,19.7067 -9.28465,27.6815zm-516.421 16.0004l76.6205 0c-13.1232,-9.52796 -24.7146,-22.9736 -34.617,-39.4335 -20.4591,-34.0075 -33.8173,-81.5268 -38.2512,-133.109l-46.8201 -544.78 -183.275 0 69.8741 543.468c12.1701,94.656 70.4103,173.855 156.469,173.855zm673.123 0l76.6217 0c86.0587,0 144.298,-79.1953 156.468,-173.855l69.8741 -543.468 -183.275 0 -46.8201 544.78c-4.43268,51.5847 -17.7921,99.1028 -38.25,133.109 -9.90237,16.4599 -21.4937,29.9055 -34.6181,39.4335z"/>
   <path id="_250973128" class="fil1" d="M358.797 976.629c-18.2386,0 -33.0236,14.7862 -33.0236,33.0248 0,18.2374 14.7851,33.0236 33.0236,33.0236l1330.41 0c18.2386,0 33.0248,-14.7862 33.0248,-33.0236 0,-18.2386 -14.7862,-33.0248 -33.0248,-33.0248l-1330.41 0z"/>
   <path id="_250971760" class="fil1" d="M1360.09 726.404c27.3567,0 49.5355,-22.1788 49.5355,-49.5355 0,-27.3555 -22.1788,-49.5343 -49.5355,-49.5343l-680.353 0c-37.3843,0 -71.4083,-15.3307 -96.1064,-40.0276 -24.6969,-24.6981 -40.0276,-58.7221 -40.0276,-96.1064 0,-37.3831 15.3307,-71.4071 40.0276,-96.104 24.6981,-24.6969 58.7221,-40.0276 96.1064,-40.0276l680.353 0c27.3567,0 49.5355,-22.1788 49.5355,-49.5355 0,-27.3555 -22.1788,-49.5343 -49.5355,-49.5343l-680.353 0c-64.7327,0 -123.546,26.4461 -166.152,69.0508 -42.6059,42.6059 -69.052,101.419 -69.052,166.151 0,64.7327 26.4461,123.545 69.052,166.152 42.6059,42.6059 101.419,69.052 166.152,69.052l680.353 0z"/>
   <path id="_250972192" class="fil1" d="M687.908 432.311c-27.3567,0 -49.5355,22.1788 -49.5355,49.5355 0,27.3567 22.1788,49.5343 49.5355,49.5343l680.352 0c37.3843,0 71.4083,15.3319 96.1064,40.0288 24.6969,24.6969 40.0276,58.7209 40.0276,96.1052 0,37.3843 -15.3307,71.4071 -40.0276,96.1052 -24.6981,24.6969 -58.7221,40.0276 -96.1064,40.0276l-680.352 0c-27.3567,0 -49.5355,22.1788 -49.5355,49.5355 0,27.3555 22.1788,49.5343 49.5355,49.5343l680.352 0c64.7327,0 123.546,-26.4461 166.152,-69.0508 42.6059,-42.6071 69.052,-101.42 69.052,-166.152 0,-64.7315 -26.4461,-123.545 -69.052,-166.152 -42.6059,-42.6059 -101.419,-69.052 -166.152,-69.052l-680.352 0z"/>
  </g>
 </g>
 <rect class="fil2" width="2048" height="2048"/>
</svg>
