<?xml version="1.0" encoding="UTF-8"?>
<!DOCTYPE svg PUBLIC "-//W3C//DTD SVG 1.1//EN" "http://www.w3.org/Graphics/SVG/1.1/DTD/svg11.dtd">
<!-- Creator: CorelDRAW -->
<svg xmlns="http://www.w3.org/2000/svg" xml:space="preserve" width="2048px" height="2048px" style="shape-rendering:geometricPrecision; text-rendering:geometricPrecision; image-rendering:optimizeQuality; fill-rule:evenodd; clip-rule:evenodd"
viewBox="0 0 2048 2048"
 xmlns:xlink="http://www.w3.org/1999/xlink">
 <defs>
  <style type="text/css">
   <![CDATA[
    .fil2 {fill:none}
    .fil1 {fill:#424242}
    .fil0 {fill:#424242;fill-rule:nonzero}
   ]]>
  </style>
 </defs>
 <g id="Layer_x0020_1">
  <metadata id="CorelCorpID_0Corel-Layer"/>
  <g id="_250972696">
   <path id="_250973464" class="fil0" d="M610.653 1751.45c0,17.3728 14.0847,31.4575 31.4575,31.4575 17.3728,0 31.4587,-14.0847 31.4587,-31.4575l0 -79.3938c0,-17.3728 -14.0858,-31.4575 -31.4587,-31.4575 -17.3728,0 -31.4575,14.0847 -31.4575,31.4575l0 79.3938z"/>
   <path id="_250973632" class="fil0" d="M1381.58 1751.45c0,17.3728 14.0847,31.4575 31.4575,31.4575 17.374,0 31.4587,-14.0847 31.4587,-31.4575l0 -79.3938c0,-17.3728 -14.0847,-31.4575 -31.4587,-31.4575 -17.3728,0 -31.4575,14.0847 -31.4575,31.4575l0 79.3938z"/>
   <path id="_250973416" class="fil1" d="M625.043 1672.05l805.067 0c150.441,0 273.528,-123.087 273.528,-273.529l0 -273.527 -1352.12 0 0 273.527c0,150.442 123.086,273.529 273.528,273.529zm703.814 -250.2c5.17205,-57.2386 51.3048,-102.657 108.861,-106.709l0 -0.603544c-59.1189,-4.15985 -106.191,-51.9615 -109.198,-111.391l-0.309449 0c-3.00709,59.4296 -50.0788,107.231 -109.198,111.395l0 0.603544c57.5563,4.05 103.69,49.467 108.865,106.706l0.979135 0zm-322.477 123.471c3.6815,-40.7339 36.5114,-73.0548 77.4721,-75.9402l0 -0.427559c-42.0733,-2.96103 -75.5705,-36.9792 -77.7107,-79.2721l-0.222047 0c-2.13898,42.2929 -35.6362,76.3111 -77.7095,79.2733l0 0.42874c40.9607,2.88307 73.7906,35.204 77.4745,75.9379l0.69567 0z"/>
   <path id="_250973200" class="fil0" d="M287.457 1093.54c-17.3728,0 -31.4575,14.0847 -31.4575,31.4575 0,17.374 14.0847,31.4587 31.4575,31.4587l1473.09 0c17.3728,0 31.4575,-14.0847 31.4575,-31.4587 0,-17.3728 -14.0847,-31.4575 -31.4575,-31.4575l-1473.09 0z"/>
   <path id="_250973824" class="fil1" d="M942.794 713.481l-139.325 0c0,-76.9477 62.3776,-139.325 139.325,-139.325 76.9477,0 139.326,62.3776 139.326,139.325l-139.326 0z"/>
   <path id="_250973176" class="fil0" d="M898.57 577.946c0,21.7158 17.6055,39.3213 39.3225,39.3213 21.7169,0 39.3225,-17.6055 39.3225,-39.3213 0,-172.069 -140.783,-312.852 -312.849,-312.852l-0.0011811 0c-86.0741,0 -164.299,35.1851 -220.982,91.8686 -56.6823,56.6859 -91.8674,134.908 -91.8674,220.983l0 742.43c0,21.7169 17.6043,39.3225 39.3213,39.3225 21.7169,0 39.3225,-17.6055 39.3225,-39.3225l0 -742.43c0,-64.3666 26.361,-122.912 68.8276,-165.379 42.4677,-42.4677 101.011,-68.8288 165.378,-68.8288l0.0011811 0c128.813,0 234.205,105.392 234.205,234.208z"/>
  </g>
 </g>
 <rect class="fil2" width="2048" height="2048"/>
</svg>
