<?xml version="1.0" encoding="UTF-8"?>
<!DOCTYPE svg PUBLIC "-//W3C//DTD SVG 1.1//EN" "http://www.w3.org/Graphics/SVG/1.1/DTD/svg11.dtd">
<!-- Creator: CorelDRAW -->
<svg xmlns="http://www.w3.org/2000/svg" xml:space="preserve" width="2048px" height="2048px" style="shape-rendering:geometricPrecision; text-rendering:geometricPrecision; image-rendering:optimizeQuality; fill-rule:evenodd; clip-rule:evenodd"
viewBox="0 0 2048 2048"
 xmlns:xlink="http://www.w3.org/1999/xlink">
 <defs>
  <style type="text/css">
   <![CDATA[
    .fil2 {fill:none}
    .fil0 {fill:#424242}
    .fil1 {fill:#424242;fill-rule:nonzero}
   ]]>
  </style>
 </defs>
 <g id="Layer_x0020_1">
  <metadata id="CorelCorpID_0Corel-Layer"/>
  <g id="_250974640">
   <path id="_250974664" class="fil0" d="M856.719 1053.47c69.1123,105.573 207.299,357.268 253.471,738.526 0,0 103.104,0.337796 232.768,-61.304 -0.0448819,-0.219685 -0.0850394,-0.440552 -0.122835,-0.664961 -37.8071,-228.096 -184.181,-429.363 -222.656,-482.265l-2.08465 -2.86654c-5.28544,-7.29686 -3.65788,-17.5016 3.64134,-22.7894 7.29567,-5.28662 17.5004,-3.65788 22.787,3.64016l2.08347 2.86536c38.8737,53.4496 185.288,254.79 226.76,486.701 62.0174,-33.2894 128.509,-81.0296 191.775,-149.531 67.3241,-62.178 114.612,-127.478 147.822,-188.58 -232.445,-41.1626 -434.423,-188.034 -487.969,-226.977l-2.86536 -2.08347c-7.29686,-5.28662 -8.92796,-15.4914 -3.63898,-22.7882 5.28662,-7.29686 15.4902,-8.92678 22.7882,-3.64016l2.86654 2.08347c52.9028,38.4756 254.168,184.849 482.266,222.656 0.7063,0.114567 1.3937,0.275197 2.06103,0.473622 63.241,-131.225 62.8843,-236.093 62.8843,-236.093 -381.258,-46.1729 -632.956,-184.36 -738.529,-253.472l-196.108 196.109z"/>
   <path id="_250974592" class="fil0" d="M838.469 1026.47l187.355 -187.356 -33.013 -33.013c-51.5233,-51.5233 -135.832,-51.5233 -187.354,0l-0.0011811 0.0011811c-51.5233,51.5233 -51.5244,135.83 0,187.355l33.013 33.013z"/>
   <path id="_250974136" class="fil1" d="M312.222 265.534c-12.7134,-12.7134 -33.3272,-12.7134 -46.0418,0 -12.7134,12.7146 -12.7134,33.3284 0,46.0429l542.113 544.691c12.7146,12.7146 33.3284,12.7146 46.0418,0 12.7146,-12.7146 12.7146,-33.3284 0,-46.0418l-542.113 -544.692z"/>
  </g>
 </g>
 <rect class="fil2" width="2048" height="2048"/>
</svg>
