<?xml version="1.0" encoding="UTF-8"?>
<!DOCTYPE svg PUBLIC "-//W3C//DTD SVG 1.1//EN" "http://www.w3.org/Graphics/SVG/1.1/DTD/svg11.dtd">
<!-- Creator: CorelDRAW -->
<svg xmlns="http://www.w3.org/2000/svg" xml:space="preserve" width="2048px" height="2048px" style="shape-rendering:geometricPrecision; text-rendering:geometricPrecision; image-rendering:optimizeQuality; fill-rule:evenodd; clip-rule:evenodd"
viewBox="0 0 2048 2048"
 xmlns:xlink="http://www.w3.org/1999/xlink">
 <defs>
  <style type="text/css">
   <![CDATA[
    .fil2 {fill:none}
    .fil0 {fill:#424242}
    .fil1 {fill:#424242;fill-rule:nonzero}
   ]]>
  </style>
 </defs>
 <g id="Layer_x0020_1">
  <metadata id="CorelCorpID_0Corel-Layer"/>
  <g id="_250974880">
   <ellipse id="_250975840" class="fil0" cx="1075.09" cy="410.659" rx="154.659" ry="154.659"/>
   <path id="_250975672" class="fil1" d="M340.062 941.371c-29.3965,95.6375 116.017,140.33 145.413,44.6965 0.243307,-0.787796 109.313,-262.602 269.236,-268.423l-134.332 261.047 319.232 174.478c34.3488,-114.363 76.4587,-257.212 96.5457,-326.07 110.753,79.3241 123.197,306.272 44.0398,467.061 -61.0689,79.076 59.3174,172.042 120.383,92.9682 107.232,-200.199 121.631,-420.235 16.7917,-591.248 -199.161,-324.877 -691.597,-459.356 -877.309,145.489zm218.107 165.539c-28.6394,126.268 -32.7485,470.379 -41.6788,604.55 -7.05473,99.9485 144.913,110.674 151.968,10.728 9.31654,-136.772 68.9339,-428.306 98.7036,-479.967l174.243 464.77c37.2343,92.8902 178.475,36.2799 141.241,-56.6138l-131.464 -328.661 -393.013 -214.806z"/>
   <path id="_250975120" class="fil1" d="M502.465 954.872c-17.2288,-9.38387 -38.8028,-3.02362 -48.1855,14.2051 -9.38387,17.2288 -3.02481,38.8016 14.2039,48.1855l586.798 320.72c17.2288,9.38387 38.8028,3.02481 48.1867,-14.2039 9.38268,-17.2288 3.02362,-38.8028 -14.2051,-48.1855l-586.798 -320.722zm719.682 395.277c-17.2288,-9.45946 -38.8654,-3.16299 -48.3248,14.0658 -9.45946,17.2288 -3.16299,38.8654 14.0646,48.3248l159.167 87.4394c17.2288,9.45946 38.8654,3.16299 48.3248,-14.0658 9.45946,-17.2276 3.16299,-38.8654 -14.0658,-48.3248l-159.165 -87.4394z"/>
   <path id="_250974952" class="fil0" d="M1416.1 1374.07l-150.551 106.945c-24.4099,17.3374 -18.1169,15.587 3.28347,42.4052 123.07,154.245 239.182,39.1713 442.676,184.773 8.73662,-457.959 -154.882,-110.125 -295.409,-334.123z"/>
  </g>
 </g>
 <rect class="fil2" width="2048" height="2048"/>
</svg>
