<?xml version="1.0" encoding="UTF-8"?>
<!DOCTYPE svg PUBLIC "-//W3C//DTD SVG 1.1//EN" "http://www.w3.org/Graphics/SVG/1.1/DTD/svg11.dtd">
<!-- Creator: CorelDRAW -->
<svg xmlns="http://www.w3.org/2000/svg" xml:space="preserve" width="2048px" height="2048px" style="shape-rendering:geometricPrecision; text-rendering:geometricPrecision; image-rendering:optimizeQuality; fill-rule:evenodd; clip-rule:evenodd"
viewBox="0 0 2048 2048"
 xmlns:xlink="http://www.w3.org/1999/xlink">
 <defs>
  <style type="text/css">
   <![CDATA[
    .fil2 {fill:none}
    .fil0 {fill:#424242}
    .fil1 {fill:#424242;fill-rule:nonzero}
   ]]>
  </style>
 </defs>
 <g id="Layer_x0020_1">
  <metadata id="CorelCorpID_0Corel-Layer"/>
  <g id="_250976680">
   <ellipse id="_250966816" class="fil0" cx="860.29" cy="405.494" rx="149.495" ry="149.495"/>
   <path id="_250966480" class="fil1" d="M362.385 1119.46c-16.8236,111.762 144.539,137.77 162.243,20.1225 21.4181,-144.089 43.3843,-236.789 107.226,-295.732 14.9539,332.216 14.2028,633.017 14.2028,883.187 0,35.8784 33.5658,64.9642 74.9693,64.9642 41.4036,0 74.9693,-29.0858 74.9693,-64.9642l29.5051 -460.153c3.96969,-17.7012 20.0386,-30.4855 31.1362,-30.1382 10.9028,0.341339 26.8099,7.98308 29.9244,30.3886l29.7768 459.555c0,35.687 33.3898,64.617 74.5725,64.617 41.1839,0 74.5701,-28.9299 74.5701,-64.617 0,-243.633 -31.376,-564.171 -16.1173,-890.423 66.6768,92.4981 292.467,128.835 459.89,74.4319 103.826,-33.5008 55.017,-163.961 -42.8457,-150.323 -132.11,18.3992 -260.786,56.8241 -367.288,-60.5103 -74.3493,-81.9154 -175.557,-117.595 -287.065,-105.802 -292.217,30.9071 -416.479,291.43 -449.671,525.396z"/>
   <path id="_250966792" class="fil1" d="M1432.18 1754.18c0,18.8516 15.2835,34.1351 34.1339,34.1351 18.8516,0 34.1351,-15.2835 34.1351,-34.1351l0 -1147.92c0,-18.8504 -15.2835,-34.1339 -34.1351,-34.1339 -18.8504,0 -34.1339,15.2835 -34.1339,34.1339l0 1147.92z"/>
   <path id="_250966216" class="fil1" d="M1279.91 572.796c-18.8516,0 -34.1339,15.2835 -34.1339,34.1339 0,18.8516 15.2823,34.1351 34.1339,34.1351l372.796 0c18.8504,0 34.1339,-15.2835 34.1339,-34.1351 0,-18.8504 -15.2835,-34.1339 -34.1339,-34.1339l-372.796 0z"/>
   <path id="_250964752" class="fil1" d="M1302.65 457.199c0,-9.42402 -7.64174,-17.0669 -17.0669,-17.0669 -9.4252,0 -17.0669,7.64292 -17.0669,17.0669l0 149.732c0,9.4252 7.64174,17.0681 17.0669,17.0681 9.4252,0 17.0669,-7.64292 17.0669,-17.0681l0 -149.732z"/>
   <path id="_250961608" class="fil1" d="M1362.89 457.199c0,-9.42402 -7.64292,-17.0669 -17.0669,-17.0669 -9.4252,0 -17.0669,7.64292 -17.0669,17.0669l0 149.732c0,9.4252 7.64174,17.0681 17.0669,17.0681 9.42402,0 17.0669,-7.64292 17.0669,-17.0681l0 -149.732z"/>
   <path id="_250961440" class="fil1" d="M1423.13 457.199c0,-9.42402 -7.64292,-17.0669 -17.0681,-17.0669 -9.42402,0 -17.0669,7.64292 -17.0669,17.0669l0 149.732c0,9.4252 7.64292,17.0681 17.0669,17.0681 9.4252,0 17.0681,-7.64292 17.0681,-17.0681l0 -149.732z"/>
   <path id="_250961248" class="fil1" d="M1483.38 457.199c0,-9.42402 -7.64174,-17.0669 -17.0669,-17.0669 -9.42402,0 -17.0669,7.64292 -17.0669,17.0669l0 149.732c0,9.4252 7.64292,17.0681 17.0669,17.0681 9.4252,0 17.0669,-7.64292 17.0669,-17.0681l0 -149.732z"/>
   <path id="_250961080" class="fil1" d="M1543.62 457.199c0,-9.42402 -7.64174,-17.0669 -17.0669,-17.0669 -9.4252,0 -17.0669,7.64292 -17.0669,17.0669l0 149.732c0,9.4252 7.64174,17.0681 17.0669,17.0681 9.4252,0 17.0669,-7.64292 17.0669,-17.0681l0 -149.732z"/>
   <path id="_250976872" class="fil1" d="M1603.87 457.199c0,-9.42402 -7.64174,-17.0669 -17.0669,-17.0669 -9.4252,0 -17.0669,7.64292 -17.0669,17.0669l0 149.732c0,9.4252 7.64174,17.0681 17.0669,17.0681 9.4252,0 17.0669,-7.64292 17.0669,-17.0681l0 -149.732z"/>
   <path id="_250976728" class="fil1" d="M1664.11 457.199c0,-9.42402 -7.64174,-17.0669 -17.0669,-17.0669 -9.4252,0 -17.0669,7.64292 -17.0669,17.0669l0 149.732c0,9.4252 7.64174,17.0681 17.0669,17.0681 9.4252,0 17.0669,-7.64292 17.0669,-17.0681l0 -149.732z"/>
  </g>
 </g>
 <rect class="fil2" width="2048" height="2048"/>
</svg>
