<?xml version="1.0" encoding="UTF-8"?>
<!DOCTYPE svg PUBLIC "-//W3C//DTD SVG 1.1//EN" "http://www.w3.org/Graphics/SVG/1.1/DTD/svg11.dtd">
<!-- Creator: CorelDRAW -->
<svg xmlns="http://www.w3.org/2000/svg" xml:space="preserve" width="2048px" height="2048px" style="shape-rendering:geometricPrecision; text-rendering:geometricPrecision; image-rendering:optimizeQuality; fill-rule:evenodd; clip-rule:evenodd"
viewBox="0 0 2048 2048"
 xmlns:xlink="http://www.w3.org/1999/xlink">
 <defs>
  <style type="text/css">
   <![CDATA[
    .fil2 {fill:none}
    .fil0 {fill:#424242}
    .fil1 {fill:#424242;fill-rule:nonzero}
   ]]>
  </style>
 </defs>
 <g id="Layer_x0020_1">
  <metadata id="CorelCorpID_0Corel-Layer"/>
  <g id="_250966504">
   <path id="_250967488" class="fil0" d="M1686.29 1118.92c16.839,111.852 -144.653,137.881 -162.371,20.139 -21.4358,-144.202 -39.2492,-236.978 -103.141,-295.967 -14.9669,332.479 -14.2158,633.52 -14.2158,883.889 0,35.9067 -33.5918,65.0174 -75.0284,65.0174 -41.4366,0 -75.0296,-29.1107 -75.0296,-65.0174l-29.5288 -460.52c-3.97323,-17.7142 -20.0551,-30.5079 -31.161,-30.1618 -10.9122,0.34252 -26.8299,7.99016 -29.9481,30.4134l-29.8004 459.922c0,35.7154 -33.4158,64.6689 -74.6316,64.6689 -41.2158,0 -74.6292,-28.9536 -74.6292,-64.6689 0,-243.828 1.17284,-539.893 -14.0965,-866.405 -66.7288,92.5713 -262.474,104.211 -430.03,49.7634 -103.908,-33.5256 -55.0607,-164.089 42.88,-150.441 132.216,18.4146 260.994,56.8689 367.581,-60.5587 74.4083,-81.9816 175.696,-117.693 287.294,-105.887 292.451,30.9296 412.64,291.663 445.857,525.814z"/>
   <path id="_250967296" class="fil0" d="M1192.16 255.999c-82.6312,0 -149.615,66.9827 -149.615,149.614 0,82.63 66.9839,149.614 149.615,149.614 82.6288,0 149.614,-66.9839 149.614,-149.614 0,-82.6312 -66.9851,-149.614 -149.614,-149.614z"/>
   <polygon id="_250967512" class="fil0" points="377.556,1697.72 787.484,1697.72 804.564,1792 360.476,1792 "/>
   <path id="_250967584" class="fil1" d="M616.681 645.691c0,-18.8669 -15.2953,-34.1622 -34.161,-34.1622 -18.8658,0 -34.161,15.2953 -34.161,34.1622l0 1043.83c0,18.8658 15.2953,34.161 34.161,34.161 18.8658,0 34.161,-15.2953 34.161,-34.161l0 -1043.83z"/>
  </g>
 </g>
 <rect class="fil2" width="2048" height="2048"/>
</svg>
