<?xml version="1.0" encoding="UTF-8"?>
<!DOCTYPE svg PUBLIC "-//W3C//DTD SVG 1.1//EN" "http://www.w3.org/Graphics/SVG/1.1/DTD/svg11.dtd">
<!-- Creator: CorelDRAW -->
<svg xmlns="http://www.w3.org/2000/svg" xml:space="preserve" width="2048px" height="2048px" style="shape-rendering:geometricPrecision; text-rendering:geometricPrecision; image-rendering:optimizeQuality; fill-rule:evenodd; clip-rule:evenodd"
viewBox="0 0 2048 2048"
 xmlns:xlink="http://www.w3.org/1999/xlink">
 <defs>
  <style type="text/css">
   <![CDATA[
    .fil2 {fill:none}
    .fil1 {fill:#424242}
    .fil0 {fill:#424242;fill-rule:nonzero}
   ]]>
  </style>
 </defs>
 <g id="Layer_x0020_1">
  <metadata id="CorelCorpID_0Corel-Layer"/>
  <g id="_250968712">
   <path id="_250969864" class="fil0" d="M723.89 966.761c15.1784,-9.55631 19.7362,-29.6079 10.1787,-44.7863 -9.55631,-15.1784 -29.6079,-19.7362 -44.7863,-10.1799 -238.598,150.193 -202.641,305.048 -135.063,437.104 32.6481,63.7973 47.3929,121.502 27.5244,172.507 -6.46418,16.7232 1.85315,35.5229 18.5752,41.987 16.7232,6.46418 35.524,-1.85197 41.9882,-18.5752 30.3638,-77.9528 9.10985,-148.381 -30.3236,-225.438 -54.4973,-106.494 -76.4764,-234.037 111.906,-352.618z"/>
   <path id="_250969912" class="fil1" d="M430.686 1680.14l240.947 0 0 -103.909c0,-76.1989 -62.3434,-138.543 -138.543,-138.543l-242.455 0 0 142.867c10.8496,-3.77244 22.5012,-5.82993 34.637,-5.82993 58.2189,0 105.413,47.1957 105.413,105.415z"/>
   <ellipse id="_250969408" class="fil1" cx="325.272" cy="1680.14" rx="69.2728" ry="69.2728"/>
   <ellipse id="_250969288" class="fil1" cx="1330.9" cy="446.526" rx="147.937" ry="147.936"/>
   <path id="_250969120" class="fil0" d="M777.494 958.667c-15.7406,-8.57245 -35.4508,-2.7626 -44.0233,12.978 -8.57363,15.7417 -2.76378,35.452 12.978,44.0244l610.609 334.106c15.7406,8.57245 35.4508,2.7626 44.0244,-12.978 8.57245,-15.7417 2.7626,-35.452 -12.978,-44.0244l-610.61 -334.106zm667.875 367.055c-15.7406,-8.57363 -35.4508,-2.7626 -44.0233,12.978 -8.57363,15.7406 -2.76378,35.4508 12.978,44.0244l226.373 123.147c15.7406,8.57245 35.4508,2.7626 44.0244,-12.978 8.57245,-15.7406 2.7626,-35.4508 -12.978,-44.0244l-226.374 -123.147z"/>
   <path id="_250968736" class="fil1" d="M1792 1544.94l-286.36 0c0,-70.1493 74.8075,-95.6103 145.362,-96.7111 72.593,-1.13268 140.998,24.1264 140.998,96.7111z"/>
   <path id="_250968784" class="fil0" d="M674.64 953.03c-26.8583,87.3768 105.997,128.21 132.853,40.8355 0.223229,-0.720473 99.8741,-239.922 245.984,-245.241l-130.325 253.265 294.325 161.045c32.1744,-106.844 73.813,-248.056 93.1394,-314.307 101.189,72.4737 112.558,279.82 40.2366,426.723 -55.7941,72.2469 54.1949,157.184 109.986,84.939 97.9713,-182.909 111.126,-383.941 15.3414,-540.185 -181.961,-296.818 -631.867,-419.683 -801.539,132.925zm196.03 167.087c-23.2583,126.046 -27.0295,419.152 -34.839,536.491 -6.44528,91.3158 132.398,101.115 138.842,9.80079 8.51221,-124.958 62.9812,-362.684 90.1796,-409.884l159.195 396c34.0181,84.8682 163.061,33.1465 129.043,-51.7241l-110.976 -277.442 -371.444 -203.242z"/>
  </g>
 </g>
 <rect class="fil2" width="2048" height="2048"/>
</svg>
