<?xml version="1.0" encoding="UTF-8"?>
<!DOCTYPE svg PUBLIC "-//W3C//DTD SVG 1.1//EN" "http://www.w3.org/Graphics/SVG/1.1/DTD/svg11.dtd">
<!-- Creator: CorelDRAW -->
<svg xmlns="http://www.w3.org/2000/svg" xml:space="preserve" width="2048px" height="2048px" style="shape-rendering:geometricPrecision; text-rendering:geometricPrecision; image-rendering:optimizeQuality; fill-rule:evenodd; clip-rule:evenodd"
viewBox="0 0 2048 2048"
 xmlns:xlink="http://www.w3.org/1999/xlink">
 <defs>
  <style type="text/css">
   <![CDATA[
    .fil2 {fill:none}
    .fil1 {fill:#424242}
    .fil0 {fill:#424242;fill-rule:nonzero}
   ]]>
  </style>
 </defs>
 <g id="Layer_x0020_1">
  <metadata id="CorelCorpID_0Corel-Layer"/>
  <g id="_322908712">
   <path id="_322909576" class="fil0" d="M1444.71 824.729c-10.0181,126.092 -9.26221,285.75 -17.8276,410.966 -8.96221,131.036 -25.0736,260.189 -53.2063,485.252 -10.2118,83.6705 117.006,99.195 127.218,15.528 17.7827,-142.262 35.5654,-284.523 53.3481,-426.785 5.54174,-29.6776 43.3193,-29.7532 49.2532,0.826772l26.3717 421.95c4.93937,83.9965 132.66,76.4882 127.72,-7.513 -21.7488,-347.992 -31.8047,-621.321 -31.8047,-963.411 0,-70.8142 -64.5827,-128.221 -144.248,-128.221 -56.589,0 -242.747,46.6784 -309.462,59.0245l-142.964 -153.364c-17.9256,-30.5327 -57.2103,-40.7528 -87.743,-22.8272 -30.5327,17.9256 -40.7528,57.2103 -22.8272,87.743 24.3603,27.6508 93.2953,112.511 147.662,166.031 27.7583,27.3236 51.7193,46.4823 64.0111,45.6839l214.5 9.11457z"/>
   <circle id="_322909312" class="fil1" cx="1597.01" cy="486.186" r="128.598"/>
   <path id="_322908592" class="fil1" d="M1139.09 558.102l98.3186 -14.8606c0,0 21.0851,-80.9493 -30.0449,-171.307 -80.791,11.4154 -119.394,11.1685 -92.1875,-65.7556 -78.4276,-68.0292 -186.122,-47.1626 -186.122,-47.1626l-42.3048 72.469 69.378 36.6366c-137.558,57.7548 -173.902,178.117 -281.201,217.088 52.1859,85.8922 185.319,-15.9969 213.422,156.461l132.174 -108.346 118.567 -75.2221z"/>
   <path id="_322908448" class="fil1" d="M1059.59 1787.31l0 -659.203 -769.326 0 0 659.203 769.326 0zm-384.663 -543.587c109.345,0 197.987,88.6418 197.987,197.986 0,109.344 -88.6418,197.986 -197.987,197.986 -109.343,0 -197.985,-88.6418 -197.985,-197.986 0,-109.344 88.6418,-197.986 197.985,-197.986z"/>
   <path id="_322909072" class="fil1" d="M290.268 888.035l769.326 0 0 208.074 -769.326 0 0 -208.074zm148.35 62.9965c22.6666,0 41.041,18.3732 41.041,41.0398 0,22.6654 -18.3744,41.0398 -41.041,41.0398 -22.6654,0 -41.0398,-18.3744 -41.0398,-41.0398 0,-22.6666 18.3744,-41.0398 41.0398,-41.0398zm236.313 0c22.6666,0 41.041,18.3732 41.041,41.0398 0,22.6654 -18.3744,41.0398 -41.041,41.0398 -22.6654,0 -41.0398,-18.3744 -41.0398,-41.0398 0,-22.6666 18.3744,-41.0398 41.0398,-41.0398zm236.314 0c22.6666,0 41.0398,18.3732 41.0398,41.0398 0,22.6654 -18.3732,41.0398 -41.0398,41.0398 -22.6654,0 -41.0398,-18.3744 -41.0398,-41.0398 0,-22.6666 18.3744,-41.0398 41.0398,-41.0398z"/>
  </g>
 </g>
 <rect class="fil2" width="2048" height="2048"/>
</svg>
