<?xml version="1.0" encoding="UTF-8"?>
<!DOCTYPE svg PUBLIC "-//W3C//DTD SVG 1.1//EN" "http://www.w3.org/Graphics/SVG/1.1/DTD/svg11.dtd">
<!-- Creator: CorelDRAW -->
<svg xmlns="http://www.w3.org/2000/svg" xml:space="preserve" width="2048px" height="2048px" style="shape-rendering:geometricPrecision; text-rendering:geometricPrecision; image-rendering:optimizeQuality; fill-rule:evenodd; clip-rule:evenodd"
viewBox="0 0 2048 2048"
 xmlns:xlink="http://www.w3.org/1999/xlink">
 <defs>
  <style type="text/css">
   <![CDATA[
    .fil2 {fill:none}
    .fil1 {fill:#424242}
    .fil0 {fill:#424242;fill-rule:nonzero}
   ]]>
  </style>
 </defs>
 <g id="Layer_x0020_1">
  <metadata id="CorelCorpID_0Corel-Layer"/>
  <g id="_322918696">
   <path id="_325985616" class="fil0" d="M584.287 810.839c10.1634,127.904 9.39568,289.855 18.0839,416.868 9.09095,132.918 25.4339,263.926 53.9705,492.22 10.3583,84.8717 -118.687,100.621 -129.045,15.75 -18.0378,-144.304 -36.0756,-288.608 -54.1134,-432.912 -5.62205,-30.104 -43.9418,-30.1807 -49.9607,0.837402l-26.7508 428.011c-5.01024,85.2036 -134.564,77.5867 -129.554,-7.62048 22.0618,-352.989 32.2618,-630.244 32.2618,-977.246 0,-71.8312 65.5099,-130.062 146.32,-130.062 57.4016,0 246.233,47.3481 313.907,59.8713l184.438 -198.404c18.1831,-30.9721 58.0323,-41.3386 89.002,-23.1555 30.9721,18.1831 41.3386,58.0323 23.1555,89.0032 -24.7099,28.0477 -134.055,156.966 -189.203,211.254 -28.1551,27.717 -52.4611,47.1508 -64.9288,46.3406l-217.582 9.2445z"/>
   <ellipse id="_325992672" class="fil1" cx="435.412" cy="453.924" rx="130.062" ry="130.062"/>
   <polygon id="_322907176" class="fil1" points="1020.14,617.848 1165.51,533.439 1051.21,336.61 905.848,421.018 942.977,484.961 "/>
   <path id="_322906960" class="fil1" d="M802.818 255.999l472.559 0 0 429.222 -299.228 0c8.88072,-10.3677 17.6929,-20.7803 26.5169,-31.1788l5.40355 9.30355 202.934 -117.836 -147.722 -254.398 -202.932 117.836 39.3248 67.7233c-8.37757,6.57993 -15.7996,14.6268 -21.8457,24.0307l-75.0107 80.4686 0 -325.172zm505.845 0l472.561 0 0 429.222 -472.561 0 0 -429.222zm472.561 462.509l0 429.222 -472.561 0 0 -429.222 472.561 0zm-505.846 429.222l-472.559 0 0 -312.861 0.462992 -0.0200788c30.0095,-1.27559 66.5138,-35.8406 86.8666,-55.8756 19.3122,-19.0099 37.7953,-39.0331 55.8615,-59.2252l1.10906 -1.24016 328.259 0 0 429.222z"/>
  </g>
 </g>
 <rect class="fil2" width="2048" height="2048"/>
</svg>
