<?xml version="1.0" encoding="UTF-8"?>
<!DOCTYPE svg PUBLIC "-//W3C//DTD SVG 1.1//EN" "http://www.w3.org/Graphics/SVG/1.1/DTD/svg11.dtd">
<!-- Creator: CorelDRAW -->
<svg xmlns="http://www.w3.org/2000/svg" xml:space="preserve" width="2048px" height="2048px" style="shape-rendering:geometricPrecision; text-rendering:geometricPrecision; image-rendering:optimizeQuality; fill-rule:evenodd; clip-rule:evenodd"
viewBox="0 0 2048 2048"
 xmlns:xlink="http://www.w3.org/1999/xlink">
 <defs>
  <style type="text/css">
   <![CDATA[
    .fil2 {fill:none}
    .fil0 {fill:#424242}
    .fil1 {fill:#424242;fill-rule:nonzero}
   ]]>
  </style>
 </defs>
 <g id="Layer_x0020_1">
  <metadata id="CorelCorpID_0Corel-Layer"/>
  <g id="_325987152">
   <path id="_323474856" class="fil0" d="M1792 894.68c-88.5178,-32.2831 -171.847,-29.9764 -251.027,0l23.1933 430.904 204.64 0 23.1933 -430.904z"/>
   <path id="_323470392" class="fil1" d="M1682.61 851.039c0,-8.90079 -7.21772,-16.1185 -16.1197,-16.1185 -8.90079,0 -16.1185,7.21772 -16.1185,16.1185l0 29.2347c0,8.90198 7.21772,16.1197 16.1185,16.1197 8.90198,0 16.1197,-7.21772 16.1197,-16.1197l0 -29.2347z"/>
   <path id="_323015016" class="fil0" d="M1532.35 1334.3c-184.677,69.8103 -173.38,275.899 -362.906,275.899 -199.686,0 -291.018,-161.878 -291.018,-361.564 0,-13.5177 -35.3953,-25.7847 -33.9496,-38.9162l681.168 0 6.70512 124.582z"/>
   <path id="_325985448" class="fil0" d="M1162.1 1642.36l0 92.517 504.383 0c-42.5929,-141.631 -48.815,-268.199 -12.2882,-377.058l-90.7442 0c-59.8418,17.5654 -100.963,50.3233 -140.113,99.2965 -36.8611,46.1079 -66.9709,99.704 -113.21,137.395 -41.2866,33.6579 -87.6745,47.9185 -140.684,47.9185 -2.45315,0 -4.9004,-0.0248032 -7.3441,-0.0696851z"/>
   <path id="_249955808" class="fil1" d="M617.686 1153.49c10.6264,143.765 26.4957,260.786 57.1784,506.249 11.1366,91.2556 -127.613,108.189 -138.751,16.937 -19.3937,-155.157 -39.6886,-309.412 -59.0847,-464.569l-81.5776 460.197c-5.38701,91.6123 -144.685,83.4225 -139.298,-8.19331 14.0929,-209.697 56.6965,-315.258 30.1099,-496.476 -8.87835,-60.5304 -0.604725,-178.449 73.3749,-301.321 58.9241,-97.865 46.2792,-94.8627 108.93,-203.248 38.6504,-66.8658 130.968,-85.8225 206.191,-42.3414 53.4343,30.8859 203.736,176.57 259.993,224.641l143.108 -39.9614c33.5918,-19.0465 76.2662,-7.25434 95.3127,26.3362 19.0453,33.5906 7.25434,76.2638 -26.3362,95.3115 -38.0953,12.8138 -73.9146,28.4965 -154.461,49.3559 -41.1237,10.65 -74.2064,15.6638 -85.3772,8.2004l-198.618 -105.239c-38.2866,129.658 -96.2268,197.282 -90.6934,274.12z"/>
   <ellipse id="_249955568" class="fil0" cx="736.001" cy="450.606" rx="139.844" ry="139.844"/>
   <path id="_325989312" class="fil0" d="M1094.18 955.465l116.871 37.9618 75.039 -207.632 -71.3989 -144.791c-67.278,17.9303 -58.9737,87.4229 -58.9737,87.4229l-28.6689 58.9619 -32.8689 168.077z"/>
   <polygon id="_325988952" class="fil0" points="1243.49,701.116 1314.39,649.238 1293.85,608.937 1213.99,641.289 "/>
   <path id="_325988928" class="fil1" d="M1293.79 619.727c-5.7567,2.71536 -8.22048,9.58347 -5.50512,15.3402 2.71536,5.75552 9.58465,8.2193 15.3402,5.50394l16.0051 -7.60867c5.7567,-2.71536 8.22048,-9.58347 5.50512,-15.3402 -2.71536,-5.75552 -9.58465,-8.2193 -15.3402,-5.50394l-16.0051 7.60867z"/>
  </g>
 </g>
 <rect class="fil2" width="2048" height="2048"/>
</svg>
