<?xml version="1.0" encoding="UTF-8"?>
<!DOCTYPE svg PUBLIC "-//W3C//DTD SVG 1.1//EN" "http://www.w3.org/Graphics/SVG/1.1/DTD/svg11.dtd">
<!-- Creator: CorelDRAW -->
<svg xmlns="http://www.w3.org/2000/svg" xml:space="preserve" width="2048px" height="2048px" style="shape-rendering:geometricPrecision; text-rendering:geometricPrecision; image-rendering:optimizeQuality; fill-rule:evenodd; clip-rule:evenodd"
viewBox="0 0 2048 2048"
 xmlns:xlink="http://www.w3.org/1999/xlink">
 <defs>
  <style type="text/css">
   <![CDATA[
    .fil2 {fill:none}
    .fil0 {fill:#424242}
    .fil1 {fill:#424242;fill-rule:nonzero}
   ]]>
  </style>
 </defs>
 <g id="Layer_x0020_1">
  <metadata id="CorelCorpID_0Corel-Layer"/>
  <g id="_328707328">
   <path id="_328709056" class="fil0" d="M1236.6 382.895c-14.0244,22.7469 -22.1232,49.5378 -22.1232,78.2209 0,82.4351 66.8268,149.263 149.263,149.263 82.4339,0 149.261,-66.828 149.261,-149.263 0,-28.6831 -8.09883,-55.4741 -22.1232,-78.2209l-254.277 0z"/>
   <path id="_328709104" class="fil1" d="M1106.85 1339.09c22.3914,-101.026 134.025,-194.103 26.0008,-461.837 -38.6363,53.6008 -122.949,78.5375 -218.906,78.0473 -15.8445,-76.4316 -83.5631,-133.889 -164.687,-133.889 -27.1311,0 -52.7563,6.43583 -75.4501,17.8488 9.74174,-34.8733 44.6115,-64.1209 92.4142,-57.3473 125.208,17.4378 247.16,53.8548 348.097,-57.3497 54.5233,-60.0709 124.287,-93.9013 202.021,-100.958l47.3941 129.463 45.8729 -125.309c216.639,38.3894 315.943,234.568 367.128,476.573 12.4158,105.924 -106.668,130.572 -119.734,19.0725 -36.3,-124.636 -65.7981,-182.426 -115.625,-244.466 -38.3445,244.629 -13.0039,291.912 29.3894,423.541l11.791 36.6107 -475.706 0z"/>
   <g>
    <path id="_328708768" class="fil1" d="M1522.08 1371.09c2.34095,129.923 6.5504,207.285 6.5504,326.974 0,34.004 -31.8118,61.5721 -71.0516,61.5721 -39.2398,0 -71.0516,-27.5681 -71.0516,-61.5721l-19.0559 -326.974 154.609 0z"/>
    <path id="_328708648" class="fil1" d="M1323.19 1371.09l-18.7169 326.646c0,33.8221 -31.6441,61.2414 -70.676,61.2414 -39.0307,0 -70.6737,-27.4193 -70.6737,-61.2414 0,-117.06 0.284646,-194.439 -1.31693,-326.646l161.384 0z"/>
   </g>
   <polygon id="_328708240" class="fil1" points="270.357,1177.34 1014.42,1177.34 1014.42,1242.04 270.357,1242.04 "/>
   <polygon id="_328708600" class="fil1" points="931.83,1209.69 931.83,1792 867.128,1792 867.128,1209.69 "/>
   <path id="_328708480" class="fil0" d="M302.729 1209.69l501.411 0 0 113.224c0,62.2749 -50.9516,113.225 -113.225,113.225l-274.962 0c-62.2737,0 -113.224,-50.9504 -113.224,-113.225l0 -113.224z"/>
   <path id="_328708144" class="fil1" d="M399.777 1209.69c0,17.8654 14.4839,32.3504 32.3504,32.3504 17.8654,0 32.3504,-14.4851 32.3504,-32.3504l0 -262.845c0,-7.74922 3.1937,-14.8193 8.33859,-19.963 5.14607,-5.14607 12.215,-8.34095 19.9642,-8.34095 7.74922,0 14.8193,3.19488 19.9642,8.34095 5.14489,5.1437 8.33859,12.2138 8.33859,19.963 0,17.8665 14.4851,32.3504 32.3504,32.3504 17.8665,0 32.3516,-14.4839 32.3516,-32.3504 0,-25.611 -10.4551,-48.8681 -27.2953,-65.7083 -16.8402,-16.8414 -40.102,-27.2965 -65.7095,-27.2965 -25.611,0 -48.8693,10.4551 -65.7095,27.2965 -16.8402,16.8402 -27.2941,40.0973 -27.2941,65.7083l0 262.845z"/>
   <path id="_328708384" class="fil1" d="M451.922 1054.11c-13.3996,0 -24.2622,10.8626 -24.2622,24.2622 0,13.3996 10.8626,24.2622 24.2622,24.2622l44.9055 0c13.3996,0 24.2622,-10.8626 24.2622,-24.2622 0,-13.3996 -10.8626,-24.2622 -24.2622,-24.2622l-44.9055 0z"/>
   <path id="_328708504" class="fil1" d="M531.469 1037.3c0,-13.3996 -10.8626,-24.2634 -24.2622,-24.2634 -13.3984,0 -24.2622,10.8638 -24.2622,24.2634l0 81.6119c0,13.3984 10.8638,24.2622 24.2622,24.2622 13.3996,0 24.2622,-10.8638 24.2622,-24.2622l0 -81.6119z"/>
   <path id="_328707760" class="fil0" d="M749.259 853.841c74.9823,0 135.767,60.7855 135.767,135.767 0,74.9812 -60.7843,135.767 -135.767,135.767 -74.98,0 -135.765,-60.7855 -135.765,-135.767 0,-74.9812 60.7855,-135.767 135.765,-135.767zm0.0011811 78.8339c31.4433,0 56.9327,25.4906 56.9327,56.9339 0,31.4422 -25.4894,56.9315 -56.9327,56.9315 -31.4422,0 -56.9327,-25.4894 -56.9327,-56.9315 0,-31.4433 25.4906,-56.9339 56.9327,-56.9339z"/>
   <path id="_328707520" class="fil0" d="M1488.79 350.468c3.86811,-40.9677 -42.3213,-79.3016 -70.1894,-36.0803 -3.92126,-33.026 -26.9941,-58.3878 -54.8705,-58.3878 -27.8776,0 -50.9481,25.3606 -54.8705,58.3867 -27.8681,-43.2201 -74.0599,-4.88622 -70.1918,36.0815l250.122 0z"/>
  </g>
 </g>
 <rect class="fil2" width="2048" height="2048"/>
</svg>
