<?xml version="1.0" encoding="UTF-8"?>
<!DOCTYPE svg PUBLIC "-//W3C//DTD SVG 1.1//EN" "http://www.w3.org/Graphics/SVG/1.1/DTD/svg11.dtd">
<!-- Creator: CorelDRAW -->
<svg xmlns="http://www.w3.org/2000/svg" xml:space="preserve" width="2048px" height="2048px" style="shape-rendering:geometricPrecision; text-rendering:geometricPrecision; image-rendering:optimizeQuality; fill-rule:evenodd; clip-rule:evenodd"
viewBox="0 0 2048 2048"
 xmlns:xlink="http://www.w3.org/1999/xlink">
 <defs>
  <style type="text/css">
   <![CDATA[
    .fil2 {fill:none}
    .fil0 {fill:#424242}
    .fil1 {fill:#424242;fill-rule:nonzero}
   ]]>
  </style>
 </defs>
 <g id="Layer_x0020_1">
  <metadata id="CorelCorpID_0Corel-Layer"/>
  <g id="_328709704">
   <path id="_328711264" class="fil0" d="M797.457 391.878c12.7913,20.7473 20.178,45.1843 20.178,71.3469 0,75.189 -60.9532,136.143 -136.143,136.143 -75.189,0 -136.143,-60.9544 -136.143,-136.143 0,-26.1626 7.3878,-50.5996 20.1791,-71.3469l231.93 0z"/>
   <path id="_328711360" class="fil1" d="M887.001 1328.47l37.4929 0c-22.3146,-100.678 -133.565,-193.438 -25.9122,-460.255 102.523,142.226 202.13,56.4756 309.846,52.3158 109.365,-33.339 52.2414,-144.562 -33.2587,-132.449 -124.779,17.3799 -157.527,38.7886 -258.118,-72.0343 -58.2,-64.1245 -133.826,-98.2524 -217.974,-101.715l-30.587 121.089 -29.8878 -118.328c-226.918,31.3465 -329.458,230.432 -381.7,477.422 -12.3732,105.561 106.302,130.126 119.325,19.0063 36.1748,-124.208 65.5737,-181.801 115.23,-243.629 41.5607,265.139 9.32009,297.384 -40.8851,457.942 5.73662,0.295276 8.99056,0.498426 11.263,0.634252l34.3406 0 155.421 0 235.405 0z"/>
   <g>
    <path id="_328711768" class="fil1" d="M511.321 1360.71c-2.33268,129.268 -6.52087,206.334 -6.52087,325.507 0,33.887 31.7044,61.3595 70.8095,61.3595 39.1063,0 70.8095,-27.4725 70.8095,-61.3595l18.9697 -325.507 -154.068 0z"/>
    <path id="_328711216" class="fil1" d="M709.211 1360.71l18.6331 325.18c0,33.7051 31.5366,61.0311 70.4339,61.0311 38.8985,0 70.4327,-27.326 70.4327,-61.0311 0,-116.557 -0.283465,-193.638 1.30866,-325.18l-160.808 0z"/>
   </g>
   <polygon id="_328711696" class="fil1" points="1780.71,1231.75 943.21,1231.75 943.21,1167.27 1780.71,1167.27 "/>
   <path id="_328710808" class="fil1" d="M1637.4 1221.42c12.1016,-13.0063 11.3681,-33.3614 -1.63701,-45.463 -13.0063,-12.1016 -33.3614,-11.3681 -45.463,1.63819l-503.782 541.443c-12.1016,13.0063 -11.3693,33.3603 1.63701,45.4618 13.0063,12.1016 33.3603,11.3693 45.4618,-1.63701l503.783 -541.443z"/>
   <path id="_328710952" class="fil1" d="M1133.62 1177.6c-12.1016,-13.0063 -32.4555,-13.7398 -45.4618,-1.63819 -13.0063,12.1016 -13.7386,32.4567 -1.63701,45.463l503.782 541.443c12.1016,13.0063 32.4567,13.7386 45.463,1.63701 13.0051,-12.1016 13.7386,-32.4555 1.63701,-45.4618l-503.783 -541.443z"/>
   <path id="_328710424" class="fil0" d="M797.988 359.641c1.09134,-36.8835 -40.2544,-69.5693 -65.4686,-30.4654 -3.64725,-30.7122 -25.1032,-54.2977 -51.0284,-54.2977 -25.924,0 -47.38,23.5866 -51.0284,54.2989 -25.2142,-39.104 -66.5587,-6.4193 -65.4674,30.4642l232.993 0z"/>
   <g>
    <path id="_328710400" class="fil0" d="M1774.56 946.573c23.2595,0 23.2595,42.4548 0,42.4548 -63.5587,0 -127.117,0 -190.676,0 -23.2595,0 -23.2595,-42.4548 0,-42.4548 63.5587,0 127.117,0 190.676,0z"/>
    <path id="_328711048" class="fil0" d="M1774.56 1042.03c23.2595,0 23.2595,-42.4548 0,-42.4548 -63.5587,0 -127.117,0 -190.676,0 -23.2595,0 -23.2595,42.4548 0,42.4548 63.5587,0 127.117,0 190.676,0z"/>
    <path id="_328709920" class="fil0" d="M1774.56 1052.58c23.2595,0 23.2595,42.4548 0,42.4548 -63.5587,0 -127.117,0 -190.676,0 -23.2595,0 -23.2595,-42.4548 0,-42.4548 63.5587,0 127.117,0 190.676,0z"/>
    <path id="_328709968" class="fil0" d="M1583.88 1148.04c-23.2595,0 -23.2595,-42.4548 0,-42.4548 63.5587,0 127.117,0 190.676,0 23.2595,0 23.2595,42.4548 0,42.4548 -63.5587,0 -127.117,0 -190.676,0z"/>
    <g>
     <path id="_328710064" class="fil1" d="M1346.61 1139.9c-3.97087,-13.9252 -7.05001,-28.5107 -9.13701,-43.6335 -2.06339,-14.9457 -3.14292,-30.2292 -3.14292,-45.7193 0,-64.6938 18.3791,-123.808 48.5811,-168.597 31.011,-45.9874 74.5619,-77.0127 123.775,-83.9174 1.04646,-0.146457 0.731103,-2.04331 2.52166,-4.24725 4.9252,-6.06142 9.88465,-12.1677 18.2492,-12.1677 5.82638,0 10.5496,4.72323 10.5496,10.5496l0 284.654c0,5.82638 -4.72323,10.5496 -10.5496,10.5496 -0.590552,0 -1.16929,-0.0496063 -1.73268,-0.141732 -0.22441,-0.0141732 -0.47126,-0.0283465 -0.744095,-0.0413386 -0.11811,-0.00590552 -0.601182,-0.00944883 -1.50354,-0.00944883 -10.239,0 -19.9595,4.91339 -28.2366,13.3524 -9.32599,9.50552 -16.7977,23.3173 -21.3307,39.7536l0.0307087 0.00826772c-1.30866,4.74804 -5.66221,7.8378 -10.3701,7.74449l-106.688 0c-4.99607,0 -9.1819,-3.47362 -10.2721,-8.1378zm105.265 -62.5418l0 -152.368c0,-28.4162 -11.2382,-43.6134 -32.211,-14.1662 -29.3965,41.2748 -49.428,98.5572 -49.428,142.708 0,40.1221 38.576,23.8264 81.639,23.8264z"/>
     <path id="_328710040" class="fil1" d="M1538 1050.55c0,-5.82638 -4.72323,-10.5496 -10.5496,-10.5496 -5.82638,0 -10.5496,4.72323 -10.5496,10.5496l0 39.1181c0,5.8252 4.72323,10.5484 10.5496,10.5484 5.82638,0 10.5496,-4.72323 10.5496,-10.5484l0 -39.1181z"/>
     <path id="_328709944" class="fil1" d="M1457.78 987.337c0,-5.82638 -4.72323,-10.5496 -10.5496,-10.5496 -5.8252,0 -10.5496,4.72323 -10.5496,10.5496l0 39.117c0,5.8252 4.72441,10.5496 10.5496,10.5496 5.82638,0 10.5496,-4.72441 10.5496,-10.5496l0 -39.117z"/>
    </g>
   </g>
  </g>
 </g>
 <rect class="fil2" width="2048" height="2048"/>
</svg>
