<?xml version="1.0" encoding="UTF-8"?>
<!DOCTYPE svg PUBLIC "-//W3C//DTD SVG 1.1//EN" "http://www.w3.org/Graphics/SVG/1.1/DTD/svg11.dtd">
<!-- Creator: CorelDRAW -->
<svg xmlns="http://www.w3.org/2000/svg" xml:space="preserve" width="2048px" height="2048px" style="shape-rendering:geometricPrecision; text-rendering:geometricPrecision; image-rendering:optimizeQuality; fill-rule:evenodd; clip-rule:evenodd"
viewBox="0 0 2048 2048"
 xmlns:xlink="http://www.w3.org/1999/xlink">
 <defs>
  <style type="text/css">
   <![CDATA[
    .fil2 {fill:none}
    .fil0 {fill:#424242}
    .fil1 {fill:#424242;fill-rule:nonzero}
   ]]>
  </style>
 </defs>
 <g id="Layer_x0020_1">
  <metadata id="CorelCorpID_0Corel-Layer"/>
  <g id="_328712536">
   <g>
    <path id="_328714096" class="fil0" d="M1107.31 378.029c-13.3417,21.639 -21.0461,47.126 -21.0461,74.413 0,78.4217 63.5741,141.996 141.996,141.996 78.4217,0 141.996,-63.5741 141.996,-141.996 0,-27.287 -7.70434,-52.7741 -21.0461,-74.413l-241.899 0z"/>
    <path id="_328713520" class="fil1" d="M1013.92 1354.88l-39.1051 0c23.2736,-105.007 139.306,-201.753 27.026,-480.039 -106.93,148.339 -210.819,58.904 -323.164,54.5646 -114.066,-34.7717 -54.4878,-150.776 34.6878,-138.142 130.143,18.1264 164.299,40.4563 269.214,-75.1312 60.7016,-66.88 139.579,-102.476 227.345,-106.087l31.9004 126.293 31.1729 -123.413c236.673,32.6941 343.621,240.337 398.107,497.944 12.9047,110.099 -110.871,135.719 -124.454,19.8236 -37.7303,-129.547 -68.3918,-189.616 -120.182,-254.101 -43.3477,276.536 -9.72166,310.167 42.6414,477.628 -5.98347,0.307087 -9.37678,0.519685 -11.7461,0.661418l-35.8181 0 -162.102 0 -245.523 0z"/>
    <g>
     <path id="_328714048" class="fil1" d="M1405.75 1388.5c2.43307,134.826 6.80079,215.205 6.80079,339.5 0,35.3433 -33.0662,63.9981 -73.8532,63.9981 -40.7859,0 -73.852,-28.6547 -73.852,-63.9981l-19.7858 -339.5 160.69 0z"/>
     <path id="_328713112" class="fil1" d="M1199.35 1388.5l-19.4339 339.159c0,35.1555 -32.8925,63.6556 -73.4623,63.6556 -40.5697,0 -73.4587,-28.5 -73.4587,-63.6556 0,-121.567 0.295276,-201.962 -1.36536,-339.159l167.72 0z"/>
    </g>
    <path id="_328712728" class="fil0" d="M1106.76 344.405c-1.1374,-38.4685 41.9847,-72.5587 68.2831,-31.774 3.80315,-32.0327 26.1827,-56.6327 53.2217,-56.6327 27.039,0 49.4174,24.6012 53.2217,56.6339 26.2984,-40.7847 69.4193,-6.69567 68.2819,31.7729l-243.008 0z"/>
   </g>
   <path id="_328712896" class="fil1" d="M545.653 430.578c-4.29685,-12.5291 -17.9398,-19.2036 -30.4689,-14.9067 -12.5291,4.29685 -19.2036,17.9398 -14.9067,30.4689l139.453 405.548c4.29685,12.5291 17.9398,19.2036 30.4689,14.9067 12.5291,-4.29685 19.2036,-17.9398 14.9067,-30.4689l-139.453 -405.548zm162.025 469.544c-4.45158,-12.4772 -18.1784,-18.9827 -30.6555,-14.5311 -12.4772,4.45158 -18.9827,18.1784 -14.5311,30.6555l29.941 82.6465c4.45158,12.4772 18.1784,18.9827 30.6555,14.5311 12.4772,-4.45158 18.9827,-18.1784 14.5311,-30.6555l-29.941 -82.6465z"/>
   <path id="_328713304" class="fil1" d="M524.602 419.783c-7.69607,4.24489 -10.4941,13.9288 -6.24922,21.6248 4.24489,7.69607 13.9288,10.4941 21.6248,6.24922l104.35 -57.763c7.69607,-4.24489 10.4941,-13.9288 6.24922,-21.6248 -4.24489,-7.69607 -13.9288,-10.4941 -21.6248,-6.24922l-104.35 57.763z"/>
   <path id="_328713280" class="fil1" d="M517.15 423.051c-4.58977,7.52481 -2.21221,17.348 5.3126,21.9378 7.52481,4.58977 17.348,2.21221 21.9378,-5.3126l66.3012 -108.488c4.58977,-7.52481 2.21221,-17.348 -5.3126,-21.9378 -7.52481,-4.58977 -17.348,-2.21221 -21.9378,5.3126l-66.3012 108.488z"/>
   <path id="_328712800" class="fil1" d="M512.731 427.985c-1.10433,8.7319 5.08111,16.7079 13.813,17.8122 8.7319,1.10433 16.7079,-5.08111 17.8122,-13.813l18.554 -143.342c1.10433,-8.7319 -5.08111,-16.7079 -13.813,-17.8122 -8.7319,-1.10433 -16.7079,5.08111 -17.8122,13.813l-18.554 143.342z"/>
   <path id="_328713424" class="fil1" d="M510.716 432.503c1.72559,8.62914 10.1209,14.2252 18.75,12.4996 8.62914,-1.72559 14.2252,-10.1209 12.4996,-18.75l-31.9087 -157.23c-1.72559,-8.62914 -10.1209,-14.2252 -18.75,-12.4996 -8.62914,1.72559 -14.2252,10.1209 -12.4996,18.75l31.9087 157.23z"/>
   <path id="_328712584" class="fil1" d="M510.217 437.15c4.07244,7.80001 13.6996,10.8224 21.4996,6.75001 7.80001,-4.07244 10.8224,-13.6996 6.75001,-21.4996l-77.7024 -148.116c-4.07244,-7.80001 -13.6996,-10.8224 -21.4996,-6.75001 -7.80001,4.07244 -10.8224,13.6996 -6.75001,21.4996l77.7024 148.116z"/>
   <path id="_328712488" class="fil1" d="M511.276 442.119c6.07441,6.38504 16.1764,6.63662 22.5614,0.562205 6.38504,-6.07441 6.63662,-16.1764 0.562205,-22.5614l-112.13 -117.337c-6.07441,-6.38504 -16.1764,-6.63662 -22.5614,-0.562205 -6.38504,6.07441 -6.63662,16.1764 -0.562205,22.5614l112.13 117.337z"/>
   <path id="_328712368" class="fil1" d="M514.551 447.276c7.76575,4.14213 17.4201,1.20354 21.5622,-6.56221 4.14213,-7.76575 1.20354,-17.4201 -6.56221,-21.5622l-130.156 -69.3934c-7.76575,-4.14213 -17.4201,-1.20354 -21.5622,6.56221 -4.14213,7.76575 -1.20354,17.4201 6.56221,21.5622l130.156 69.3934z"/>
   <path id="_328712464" class="fil1" d="M520.721 451.687c8.80158,0.758268 16.5543,-5.76142 17.3126,-14.563 0.758268,-8.80158 -5.76142,-16.5543 -14.563,-17.3126l-129.143 -11.2984c-8.80158,-0.758268 -16.5543,5.76142 -17.3126,14.563 -0.758268,8.80158 5.76142,16.5543 14.563,17.3126l129.143 11.2984z"/>
   <path id="_328712224" class="fil1" d="M529.401 452.983c8.07638,-3.55394 11.7413,-12.985 8.18741,-21.0614 -3.55394,-8.07638 -12.985,-11.7413 -21.0614,-8.18741l-109.237 48.4477c-8.07638,3.55394 -11.7413,12.985 -8.18741,21.0614 3.55394,8.07638 12.985,11.7413 21.0614,8.18741l109.237 -48.4477z"/>
  </g>
 </g>
 <rect class="fil2" width="2048" height="2048"/>
</svg>
