<svg id="OBJECT" xmlns="http://www.w3.org/2000/svg" viewBox="0 0 32 32"><path d="M28,10.05V8a3,3,0,0,0-3-3V3.5A2.5,2.5,0,0,0,22.5,1H9.5A2.5,2.5,0,0,0,7,3.5V5A3,3,0,0,0,4,8v2.05A3.5,3.5,0,0,0,1,13.5v14A3.5,3.5,0,0,0,4.5,31h23A3.5,3.5,0,0,0,31,27.5v-14A3.5,3.5,0,0,0,28,10.05ZM9,3.5A.5.5,0,0,1,9.5,3h13a.5.5,0,0,1,.5.5V5H9ZM7,7H25a1,1,0,0,1,1,1v2H6V8A1,1,0,0,1,7,7ZM29,27.5A1.5,1.5,0,0,1,27.5,29H4.5A1.5,1.5,0,0,1,3,27.5v-14A1.5,1.5,0,0,1,4.5,12h23A1.5,1.5,0,0,1,29,13.5Z"/><path d="M16.38,15.21A1,1,0,0,0,16,16v5H13a3,3,0,0,0,0,6h2a3,3,0,0,0,3-3V17.28l3.73.93.48-1.94-5-1.24A1,1,0,0,0,16.38,15.21ZM16,24a1,1,0,0,1-1,1H13a1,1,0,0,1,0-2h3Z"/></svg>