<svg id="OBJECT" xmlns="http://www.w3.org/2000/svg" viewBox="0 0 32 32"><rect x="6" y="21" width="14" height="2"/><rect x="11" y="17" width="9" height="2"/><rect x="6" y="17" width="3" height="2"/><path d="M6,15H20a1,1,0,0,0,1-1V6a1,1,0,0,0-1-1H6A1,1,0,0,0,5,6v8A1,1,0,0,0,6,15ZM7,7H19v6H7Z"/><path d="M30.08,9.5l.85-2.13A1,1,0,0,0,30,6H25V2a1,1,0,0,0-1-1H4A3,3,0,0,0,1,4V28a3,3,0,0,0,3,3H24a1,1,0,0,0,1-1V13h5a1,1,0,0,0,.93-1.37ZM4,3H23V25H4a3,3,0,0,0-1,.18V4A1,1,0,0,1,4,3ZM23,29H4a1,1,0,0,1,0-2H23ZM28.07,9.87,28.52,11H25V8h3.52l-.45,1.13A1,1,0,0,0,28.07,9.87Z"/><rect x="9" y="9" width="3" height="2"/></svg>