<svg id="OBJECT" xmlns="http://www.w3.org/2000/svg" viewBox="0 0 32 32"><path d="M30,1H2A1,1,0,0,0,1,2V9a1,1,0,0,0,1,1V30a1,1,0,0,0,1,1H29a1,1,0,0,0,1-1V10a1,1,0,0,0,1-1V2A1,1,0,0,0,30,1ZM29,8H21.5V3H29ZM12.5,3h7V13.46l-3.09-1.37a1,1,0,0,0-.82,0L12.5,13.46ZM3,3h7.5V8H3ZM28,29H4V10h6.5v5a1,1,0,0,0,1.41.91L16,14.09l4.09,1.82a1,1,0,0,0,.41.09,1,1,0,0,0,.54-.16A1,1,0,0,0,21.5,15V10H28Z"/><path d="M21.5,21h-11a3,3,0,0,0,0,6h11a3,3,0,0,0,0-6Zm0,4h-11a1,1,0,0,1,0-2h11a1,1,0,0,1,0,2Z"/><rect x="14.5" y="4.75" width="3" height="2"/><rect x="14.5" y="8.25" width="3" height="2"/></svg>