<svg id="OBJECT" xmlns="http://www.w3.org/2000/svg" viewBox="0 0 32 32"><path d="M30,4H26V1H24V4H8V1H6V4H2A1,1,0,0,0,1,5V30a1,1,0,0,0,1,1H30a1,1,0,0,0,1-1V5A1,1,0,0,0,30,4ZM6,6V8H8V6H24V8h2V6h3v4H3V6ZM3,29V12H29V29Z"/><rect x="5.5" y="15.5" width="4" height="2"/><rect x="11.17" y="15.5" width="4" height="2"/><rect x="16.83" y="15.5" width="4" height="2"/><rect x="22.5" y="15.5" width="4" height="2"/><rect x="5.5" y="19.5" width="4" height="2"/><rect x="11.17" y="19.5" width="4" height="2"/><rect x="16.83" y="19.5" width="4" height="2"/><rect x="22.5" y="19.5" width="4" height="2"/><rect x="5.5" y="23.5" width="4" height="2"/><rect x="11.17" y="23.5" width="4" height="2"/><rect x="16.83" y="23.5" width="4" height="2"/><rect x="22.5" y="23.5" width="4" height="2"/></svg>