<svg id="OBJECT" xmlns="http://www.w3.org/2000/svg" viewBox="0 0 32 32"><path d="M28,7H24.72L23.4,3.05a3,3,0,0,0-2.84-2H11.44A3,3,0,0,0,8.6,3.05L7.28,7H4a3,3,0,0,0-3,3V28a3,3,0,0,0,3,3H28a3,3,0,0,0,3-3V10A3,3,0,0,0,28,7ZM10.49,3.68A1,1,0,0,1,11.44,3h9.12a1,1,0,0,1,1,.68L22.61,7H9.39ZM29,28a1,1,0,0,1-1,1H4a1,1,0,0,1-1-1V10A1,1,0,0,1,4,9H28a1,1,0,0,1,1,1Z"/><path d="M16,10a9,9,0,1,0,9,9A9,9,0,0,0,16,10Zm0,16a7,7,0,1,1,7-7A7,7,0,0,1,16,26Z"/><path d="M20,18a3,3,0,0,1-3-3,1,1,0,0,0-1-1,5,5,0,1,0,5,5A1,1,0,0,0,20,18Zm-4,4a3,3,0,0,1-.87-5.87,5,5,0,0,0,3.74,3.74A3,3,0,0,1,16,22Z"/><rect x="14.5" y="4" width="3" height="2"/></svg>