<svg id="OBJECT" xmlns="http://www.w3.org/2000/svg" viewBox="0 0 32 32"><path d="M28,1H9A3,3,0,0,0,6,4V6H4A3,3,0,0,0,1,9V22a3,3,0,0,0,3,3H5v3.54a2.46,2.46,0,0,0,4.06,1.87L15.37,25H23a3,3,0,0,0,3-3V20h2a3,3,0,0,0,3-3V4A3,3,0,0,0,28,1ZM24,22a1,1,0,0,1-1,1H10v2h2.3L7.76,28.89A.48.48,0,0,1,7,28.54V24a1,1,0,0,0-1-1H4a1,1,0,0,1-1-1V9A1,1,0,0,1,4,8H23a1,1,0,0,1,1,1Zm5-5a1,1,0,0,1-1,1H26V9a3,3,0,0,0-3-3H8V4A1,1,0,0,1,9,3H28a1,1,0,0,1,1,1Z"/><rect x="6.5" y="18.5" width="14" height="2"/><rect x="11.5" y="10.5" width="9" height="2"/><rect x="6.5" y="10.5" width="3" height="2"/><rect x="6.5" y="14.5" width="14" height="2"/></svg>