<svg id="OBJECT" xmlns="http://www.w3.org/2000/svg" viewBox="0 0 32 32"><rect x="18" y="29" width="13" height="2"/><rect x="12" y="29" width="4" height="2"/><path d="M24,18.34l1.42-1.41L23.79,15.3l4.46-3a6.19,6.19,0,1,0-8.58-8.58l-3,4.46L15.07,6.57,13.66,8l1.79,1.79L4.53,20.69a1,1,0,0,0-.28.57l-.4,2.8-2,2a2.89,2.89,0,0,0,0,4.09,2.89,2.89,0,0,0,4.09,0l2-2,2.8-.4a1,1,0,0,0,.57-.28L22.22,16.55ZM21.34,4.86a4.18,4.18,0,1,1,5.8,5.8l-4.79,3.19-4.2-4.2Zm-11.21,21-2.8.4a1,1,0,0,0-.56.28L4.53,28.74a.92.92,0,0,1-1.27,0A.9.9,0,0,1,3,28.1a.88.88,0,0,1,.26-.63L5.5,25.23a1,1,0,0,0,.28-.56L6.16,22H14ZM16,20H8.05l8.81-8.81,3.95,4Z"/></svg>