<svg id="OBJECT" xmlns="http://www.w3.org/2000/svg" viewBox="0 0 32 32"><path d="M9.5,26.06,20.69,6.91A3.18,3.18,0,0,0,19.5,2.54L17.57,1.43A3.27,3.27,0,0,0,13.14,2.6L2,21.75a1,1,0,0,0-.13.61l.63,5.17L1,30l1.73,1,1.45-2.49,4.84-2A1,1,0,0,0,9.5,26.06ZM14.88,3.59A1.2,1.2,0,0,1,15.63,3a1.24,1.24,0,0,1,.94.12L18.5,4.25A1.21,1.21,0,0,1,19,5.92l-1.18,2L13.7,5.61ZM4.32,26.31l-.37-3a5,5,0,0,1,3.2,1.83Zm.16-4.93L12.7,7.32l4.08,2.33L8.56,23.71A7,7,0,0,0,4.48,21.38Z"/><rect x="13" y="29" width="18" height="2"/><rect x="6" y="29" width="5" height="2"/></svg>