<svg id="OBJECT" xmlns="http://www.w3.org/2000/svg" viewBox="0 0 32 32"><path d="M28.5,6H7.5A2.5,2.5,0,0,0,5,8.5V10H3.5A2.5,2.5,0,0,0,1,12.5v11A2.5,2.5,0,0,0,3.5,26h21A2.5,2.5,0,0,0,27,23.5V22h1.5A2.5,2.5,0,0,0,31,19.5V8.5A2.5,2.5,0,0,0,28.5,6ZM25,23.5a.5.5,0,0,1-.5.5H3.5a.5.5,0,0,1-.5-.5v-11a.5.5,0,0,1,.5-.5h21a.5.5,0,0,1,.5.5Zm4-4a.5.5,0,0,1-.5.5H27V12.5A2.5,2.5,0,0,0,24.5,10H7V8.5A.5.5,0,0,1,7.5,8h21a.5.5,0,0,1,.5.5Z"/><path d="M21.31,14.12,14,18.74,6.69,14.12,5.62,15.81l4,2.55-2,2.21,1.48,1.34,2.23-2.46,2.1,1.32a1,1,0,0,0,1.06,0l2.1-1.32,2.23,2.46,1.48-1.34-2-2.21,4-2.55Z"/></svg>