<svg id="OBJECT" xmlns="http://www.w3.org/2000/svg" viewBox="0 0 32 32"><path d="M28.5,1H3.5A2.5,2.5,0,0,0,1,3.5v25A2.5,2.5,0,0,0,3.5,31h25A2.5,2.5,0,0,0,31,28.5V3.5A2.5,2.5,0,0,0,28.5,1ZM3.5,3h25a.5.5,0,0,1,.5.5V7.13H3V3.5A.5.5,0,0,1,3.5,3Zm25,26H3.5a.5.5,0,0,1-.5-.5V9.13H29V28.5A.5.5,0,0,1,28.5,29Z"/><rect x="20" y="4" width="3" height="2"/><rect x="25" y="4" width="3" height="2"/><path d="M17,13.05V11H15v2.05a2.5,2.5,0,0,0-2,2.45v3A2.5,2.5,0,0,0,15,21V27h2V21a2.5,2.5,0,0,0,2-2.45v-3A2.5,2.5,0,0,0,17,13.05Zm0,5.45a.5.5,0,0,1-.5.5h-1a.5.5,0,0,1-.5-.5v-3a.5.5,0,0,1,.5-.5h1a.5.5,0,0,1,.5.5Z"/><path d="M9,17.05V11H7v6.05A2.5,2.5,0,0,0,5,19.5v3A2.5,2.5,0,0,0,7,25V27H9V25a2.5,2.5,0,0,0,2-2.45v-3A2.5,2.5,0,0,0,9,17.05ZM9,22.5a.5.5,0,0,1-.5.5h-1a.5.5,0,0,1-.5-.5v-3a.5.5,0,0,1,.5-.5h1a.5.5,0,0,1,.5.5Z"/><path d="M25,15.05V11H23v4.05a2.5,2.5,0,0,0-2,2.45v3A2.5,2.5,0,0,0,23,23V27h2V23a2.5,2.5,0,0,0,2-2.45v-3A2.5,2.5,0,0,0,25,15.05Zm0,5.45a.5.5,0,0,1-.5.5h-1a.5.5,0,0,1-.5-.5v-3a.5.5,0,0,1,.5-.5h1a.5.5,0,0,1,.5.5Z"/></svg>