<svg id="OBJECT" xmlns="http://www.w3.org/2000/svg" viewBox="0 0 32 32"><path d="M30.87,17a15.69,15.69,0,0,0-8.14-6.77l1.39-2.41-1.74-1-1.6,2.79A19,19,0,0,0,17,9V6H15V9a19,19,0,0,0-3.78.59L9.62,6.83l-1.74,1,1.39,2.41A15.69,15.69,0,0,0,1.13,17a1,1,0,0,0,0,1C3.86,22.86,9.7,26,16,26s12.14-3.14,14.87-8A1,1,0,0,0,30.87,17ZM16,24c-5.38,0-10.34-2.53-12.84-6.5,2.5-4,7.46-6.5,12.84-6.5s10.34,2.53,12.84,6.5C26.34,21.47,21.38,24,16,24Z"/><path d="M20,16.5a3,3,0,0,1-3-3,1,1,0,0,0-1-1,5,5,0,1,0,5,5A1,1,0,0,0,20,16.5Zm-4,4a3,3,0,0,1-.87-5.87,5,5,0,0,0,3.74,3.74A3,3,0,0,1,16,20.5Z"/></svg>