<svg id="OBJECT" xmlns="http://www.w3.org/2000/svg" viewBox="0 0 32 32"><path d="M10.54,15.72a3,3,0,0,0,0,4.29L12,21.46a3,3,0,0,0,4.29,0l3.61-3.61a3.05,3.05,0,0,0,0-4.3l-1.44-1.44a3.05,3.05,0,0,0-4.3,0Zm5.76-2.5a1,1,0,0,1,.73.3L18.48,15a1.05,1.05,0,0,1,0,1.47L14.87,20a1.07,1.07,0,0,1-1.47,0L12,18.6a1,1,0,0,1,0-1.47h0l3.6-3.61A1.06,1.06,0,0,1,16.3,13.22Z"/><path d="M30.71,8.5,23.5,1.29a1,1,0,0,0-1.42,0L17.74,5.64,17,4.9a1,1,0,0,0-1.41,0L1.89,18.6a3,3,0,0,0,0,4.3L9.1,30.11a3,3,0,0,0,4.3,0l13.7-13.7a1,1,0,0,0,0-1.41l-.74-.74,4.35-4.34A1,1,0,0,0,30.71,8.5ZM10.51,28.7,3.3,21.49A1.05,1.05,0,0,1,3.3,20L4,19.28,12.72,28,12,28.7A1.05,1.05,0,0,1,10.51,28.7Zm3.63-2.15L5.45,17.86,16.3,7,25,15.7ZM25,12.85l-5.8-5.8,3.64-3.64L23.9,4.52,22.46,6l1.41,1.41,1.44-1.44.75.75L23.9,8.85l1.41,1.41L27.48,8.1l1.11,1.11Z"/><rect x="13.71" y="15.78" width="3.02" height="2" transform="translate(-7.41 15.68) rotate(-45)"/></svg>