<svg id="OBJECT" xmlns="http://www.w3.org/2000/svg" viewBox="0 0 32 32"><rect x="10.6" y="19.13" width="2.53" height="2" transform="translate(-10.76 14.29) rotate(-45)"/><rect x="7.61" y="22.12" width="2.53" height="2" transform="translate(-13.75 13.05) rotate(-45)"/><rect x="24.69" y="4.78" width="3.06" height="2" transform="translate(3.59 20.23) rotate(-45)"/><rect x="21.7" y="1.79" width="3.06" height="2" transform="translate(4.83 17.24) rotate(-45)"/><rect x="27.68" y="7.77" width="3.06" height="2" transform="translate(2.35 23.22) rotate(-45)"/><rect x="19.65" y="8.76" width="2" height="5.17" transform="translate(-1.97 17.93) rotate(-45)"/><path d="M15.86,2.73,17,3.87,12.47,8.4a1,1,0,0,0-.28.56l-.7,4.91L2.37,23A4.7,4.7,0,1,0,9,29.62l9.11-9.11,4.91-.7a1,1,0,0,0,.56-.28L28.13,15l1.14,1.14,1.41-1.41L17.27,1.32ZM13.49,14l.39-2.76,6.9,6.9L18,18.51ZM7.61,28.21a2.7,2.7,0,0,1-3.82-3.82l8.64-8.64,3.82,3.82ZM22.9,17.41,14.59,9.1l3.82-3.82,8.31,8.31Z"/></svg>