<svg id="OBJECT" xmlns="http://www.w3.org/2000/svg" viewBox="0 0 32 32"><path d="M28,7H25.44A3.91,3.91,0,0,0,26,5a4,4,0,0,0-4-4H19a4,4,0,0,0-3,1.36A4,4,0,0,0,13,1H10A4,4,0,0,0,6,5a3.91,3.91,0,0,0,.56,2H4a3,3,0,0,0-3,3v5a1,1,0,0,0,1,1V28a3,3,0,0,0,3,3H27a3,3,0,0,0,3-3V16a1,1,0,0,0,1-1V10A3,3,0,0,0,28,7Zm1,3v4H22V9h6A1,1,0,0,1,29,10ZM20,9v5H12V9Zm-2,7V29H14V16ZM19,3h3a2,2,0,0,1,0,4H17V5A2,2,0,0,1,19,3ZM8,5a2,2,0,0,1,2-2h3a2,2,0,0,1,2,2V7H10A2,2,0,0,1,8,5ZM3,10A1,1,0,0,1,4,9h6v5H3ZM4,28V16h8V29H5A1,1,0,0,1,4,28Zm24,0a1,1,0,0,1-1,1H20V16h8Z"/></svg>