<svg id="OBJECT" xmlns="http://www.w3.org/2000/svg" viewBox="0 0 32 32"><path d="M31,16A15,15,0,0,0,1,16l0,4.34a1,1,0,0,0,.11.5l5,8.66A3,3,0,0,0,8.74,31a3,3,0,0,0,1.49-.4h0a3,3,0,0,0,1.44-3.14l1-.59a3,3,0,0,0,1.09-4.1l-2-3.47A3,3,0,0,0,7.7,18.21l-1,.59a2.91,2.91,0,0,0-1.16-.63,3,3,0,0,0-2.28.3L3,18.61V16a13,13,0,0,1,26,0v2.61l-.23-.14a3,3,0,0,0-2.28-.3,2.91,2.91,0,0,0-1.16.63l-1-.59a3,3,0,0,0-4.09,1.09l-2,3.47a3,3,0,0,0,1.09,4.1l1,.59a3,3,0,0,0,1.44,3.14h0a3,3,0,0,0,1.49.4,3,3,0,0,0,2.61-1.5l5-8.66a1,1,0,0,0,.11-.5ZM9.46,19.84a1,1,0,0,1,.6.46l2,3.47a1,1,0,0,1,.1.76,1,1,0,0,1-.46.6l-.87.5-3-5.19.87-.5A1,1,0,0,1,9.46,19.84Zm-5.23.37a1,1,0,0,1,.76-.1,1,1,0,0,1,.61.46l4,6.93a1,1,0,0,1-.37,1.37,1,1,0,0,1-1.36-.37l-4.5-7.79Zm15.61,4.32a1,1,0,0,1,.1-.76l2-3.47a1,1,0,0,1,.6-.46,1,1,0,0,1,.76.1l.87.5-3,5.19-.87-.5A1,1,0,0,1,19.84,24.53Zm4.29,4a1,1,0,0,1-1.36.37,1,1,0,0,1-.37-1.37l4-6.93a1,1,0,0,1,.61-.46,1,1,0,0,1,.76.1l.86.5Z"/></svg>