<svg id="OBJECT" xmlns="http://www.w3.org/2000/svg" viewBox="0 0 32 32"><path d="M28,7V3.5A2.5,2.5,0,0,0,25.5,1H6.5A2.5,2.5,0,0,0,4,3.5V7a3,3,0,0,0-3,3V28a3,3,0,0,0,3,3H28a3,3,0,0,0,3-3V10A3,3,0,0,0,28,7ZM6,3.5A.5.5,0,0,1,6.5,3h19a.5.5,0,0,1,.5.5V7H6ZM29,28a1,1,0,0,1-1,1H4a1,1,0,0,1-1-1V10A1,1,0,0,1,4,9H28a1,1,0,0,1,1,1Z"/><path d="M20.45,16.42a1,1,0,0,0-.78-.42,1,1,0,0,0-.82.38l-3.24,4.07L13.07,17.9a1,1,0,0,0-1.46.05l-6.37,7.4A1,1,0,0,0,6,27H26a1,1,0,0,0,.89-.54,1,1,0,0,0-.07-1ZM8.18,25l4.24-4.93,4.21,4.24,1.42-1.41-1-1,2.56-3.21L24.07,25Z"/><path d="M8,17a3,3,0,1,0-3-3A3,3,0,0,0,8,17Zm0-4a1,1,0,1,1-1,1A1,1,0,0,1,8,13Z"/><rect x="7" y="4" width="3" height="2"/><rect x="12" y="4" width="3" height="2"/></svg>