<svg id="OBJECT" xmlns="http://www.w3.org/2000/svg" viewBox="0 0 32 32"><path d="M19.88,21.47l.83-1.65a10,10,0,1,0-9.42,0l.83,1.65C9,22.27,7,24,7,26c0,2.85,3.87,5,9,5s9-2.15,9-5C25,24,23,22.27,19.88,21.47ZM8,11a8,8,0,1,1,8,8A8,8,0,0,1,8,11Zm8,10a9.92,9.92,0,0,0,2-.2l-1.43,2.86a.64.64,0,0,1-1.1,0L14,20.8A9.92,9.92,0,0,0,16,21Zm0,8c-4,0-7-1.58-7-3,0-.93,1.42-2.12,4-2.68l.62,1.23a2.61,2.61,0,0,0,4.68,0L19,23.32c2.62.56,4,1.75,4,2.68C23,27.42,20,29,16,29Z"/><path d="M21.5,11A5.5,5.5,0,1,0,16,16.5,5.51,5.51,0,0,0,21.5,11Zm-9,0A3.5,3.5,0,1,1,16,14.5,3.5,3.5,0,0,1,12.5,11Z"/></svg>