<svg id="OBJECT" xmlns="http://www.w3.org/2000/svg" viewBox="0 0 32 32"><path d="M26,18V11a1,1,0,0,0-1-1H22.5v2H24v6a5,5,0,0,1-5,5H13a5,5,0,0,1-5-5V12H9.5V10H7a1,1,0,0,0-1,1v7a7,7,0,0,0,7,7v4H8v2H24V29H19V25A7,7,0,0,0,26,18ZM17,29H15V25h2Z"/><path d="M14.5,21h3a4,4,0,0,0,4-4V5a4,4,0,0,0-4-4h-3a4,4,0,0,0-4,4V17A4,4,0,0,0,14.5,21Zm-2-16a2,2,0,0,1,2-2h3a2,2,0,0,1,2,2V17a2,2,0,0,1-2,2h-3a2,2,0,0,1-2-2Z"/><rect x="14.25" y="6" width="3.5" height="2"/><rect x="14.25" y="10" width="3.5" height="2"/><rect x="14.25" y="14" width="3.5" height="2"/></svg>