<svg id="OBJECT" xmlns="http://www.w3.org/2000/svg" viewBox="0 0 32 32"><path d="M28,6H8A3,3,0,0,0,5,9v1H4a3,3,0,0,0-3,3V23a3,3,0,0,0,3,3H24a3,3,0,0,0,3-3V22h1a3,3,0,0,0,3-3V9A3,3,0,0,0,28,6ZM25,23a1,1,0,0,1-1,1H4a1,1,0,0,1-1-1V13a1,1,0,0,1,1-1H24a1,1,0,0,1,1,1Zm4-4a1,1,0,0,1-1,1H27V13a3,3,0,0,0-3-3H7V9A1,1,0,0,1,8,8H28a1,1,0,0,1,1,1Z"/><path d="M14,14a4,4,0,1,0,4,4A4,4,0,0,0,14,14Zm0,6a2,2,0,1,1,2-2A2,2,0,0,1,14,20Z"/><rect x="20" y="17" width="3" height="2"/><rect x="5" y="17" width="3" height="2"/></svg>