<svg id="OBJECT" xmlns="http://www.w3.org/2000/svg" viewBox="0 0 32 32"><rect x="5.5" y="25" width="15" height="2"/><rect x="10.5" y="14" width="10" height="2"/><rect x="5.5" y="14" width="3" height="2"/><rect x="10.5" y="21.5" width="10" height="2"/><rect x="5.5" y="21.5" width="3" height="2"/><path d="M20,5H6A1,1,0,0,0,5,6v5a1,1,0,0,0,1,1H20a1,1,0,0,0,1-1V6A1,1,0,0,0,20,5Zm-1,5H7V7H19Z"/><path d="M30,9H25V2a1,1,0,0,0-1-1H2A1,1,0,0,0,1,2V28a3,3,0,0,0,3,3H28a3,3,0,0,0,3-3V10A1,1,0,0,0,30,9ZM3,28V3H23V28a3,3,0,0,0,.18,1H4A1,1,0,0,1,3,28Zm26,0a1,1,0,0,1-1,1H26a1,1,0,0,1-1-1V11h4Z"/><rect x="5.5" y="17.5" width="15" height="2"/><rect x="26" y="13" width="2" height="6"/><rect x="26" y="20.5" width="2" height="3"/></svg>