<svg id="OBJECT" xmlns="http://www.w3.org/2000/svg" viewBox="0 0 32 32"><path d="M25.8,21.4,24,19a5,5,0,0,1-1-3V12a7,7,0,0,0-4-6.32V4a3,3,0,0,0-6,0V5.68A7,7,0,0,0,9,12v4a5,5,0,0,1-1,3L6.2,21.4A1,1,0,0,0,6,22v4a1,1,0,0,0,1,1h4.55a4.48,4.48,0,0,0,8.9,0H25a1,1,0,0,0,1-1V22A1,1,0,0,0,25.8,21.4ZM15,4a1,1,0,0,1,2,0V5.08a6.29,6.29,0,0,0-2,0ZM9.6,20.2A7,7,0,0,0,11,16V12a5,5,0,0,1,10,0v4a7,7,0,0,0,1.4,4.2l.6.8H9ZM16,29a2.5,2.5,0,0,1-2.45-2h4.9A2.5,2.5,0,0,1,16,29ZM8,25V23H24v2Z"/><path d="M15,12a1,1,0,0,1,1-1h1V9H16a3,3,0,0,0-3,3v1h2Z"/><rect x="13" y="17" width="6" height="2"/></svg>