<svg id="OBJECT" xmlns="http://www.w3.org/2000/svg" viewBox="0 0 32 32"><path d="M21.49,21.17A1,1,0,0,0,20.25,21l-2.58,1.64L9.33,14.34,11,11.75a1,1,0,0,0-.14-1.24L8.16,7.84a2.9,2.9,0,0,0-4.08,0L2.4,9.53a2.8,2.8,0,0,0-.7,1.12L1.25,12A4.72,4.72,0,0,0,2.4,16.9L15.1,29.6A4.74,4.74,0,0,0,20,30.75l1.37-.45a2.8,2.8,0,0,0,1.12-.7l1.69-1.68a2.9,2.9,0,0,0,0-4.08Zm1.25,5.33-1.68,1.69a1,1,0,0,1-.35.21l-1.36.45a2.76,2.76,0,0,1-2.84-.66L3.81,15.49a2.76,2.76,0,0,1-.66-2.84l.45-1.36a1,1,0,0,1,.21-.35L5.5,9.26a.88.88,0,0,1,1.25,0l2.1,2.1-1,1.53L6.79,11.8,5.38,13.21,18.79,26.62l1.41-1.41-1.09-1.09,1.53-1,2.1,2.1A.88.88,0,0,1,22.74,26.5Z"/><path d="M28,1H16a3,3,0,0,0-3,3v7a3,3,0,0,0,3,3h2.5v3a1,1,0,0,0,.57.9.91.91,0,0,0,.43.1,1,1,0,0,0,.62-.22L24.85,14H28a3,3,0,0,0,3-3V4A3,3,0,0,0,28,1Zm1,10a1,1,0,0,1-1,1H24.5a1,1,0,0,0-.62.22l-3.38,2.7V13a1,1,0,0,0-1-1H16a1,1,0,0,1-1-1V4a1,1,0,0,1,1-1H28a1,1,0,0,1,1,1Z"/><rect x="24.75" y="6.5" width="2.5" height="2"/><rect x="20.75" y="6.5" width="2.5" height="2"/><rect x="16.75" y="6.5" width="2.5" height="2"/></svg>