<svg id="OBJECT" xmlns="http://www.w3.org/2000/svg" viewBox="0 0 32 32"><rect x="11.56" y="15.46" width="2" height="7.97" transform="translate(-10.07 14.58) rotate(-45)"/><rect x="16.13" y="16.89" width="2" height="3" transform="translate(-7.98 17.49) rotate(-44.97)"/><rect x="12.61" y="13.37" width="2" height="3" transform="translate(-6.53 13.98) rotate(-45)"/><path d="M29.36,2.64A5.6,5.6,0,0,0,20.5,3.88L19.36,5.93l-3-.82a1,1,0,0,0-1,.26L1.29,19.44a1,1,0,0,0,0,1.41l9.86,9.86a1,1,0,0,0,.7.29,1,1,0,0,0,.71-.29L26.63,16.63a1,1,0,0,0,.26-1l-.79-2.92,2.22-1.36a5.6,5.6,0,0,0,1-8.74Zm-17.51,26L3.41,20.15l1.4-1.4,8.44,8.43Zm2.82-2.82L6.23,17.33,16.37,7.19l2,.54L17,10.23a2.51,2.51,0,0,0,.41,3l1.32,1.31,1.41-1.41L18.81,11.8a.5.5,0,0,1-.08-.6l1.62-2.93L23,9l1.81,6.63ZM29,7a3.57,3.57,0,0,1-1.69,2.64l-1.73,1.06-.77-2.81a1,1,0,0,0-.7-.7l-2.73-.75.9-1.62A3.6,3.6,0,0,1,29,7Z"/></svg>