<svg id="OBJECT" xmlns="http://www.w3.org/2000/svg" viewBox="0 0 32 32"><path d="M28,12H25V2a1,1,0,0,0-1-1H8A1,1,0,0,0,7,2V12H4a3,3,0,0,0-3,3V30a1,1,0,0,0,1,1H30a1,1,0,0,0,1-1V15A3,3,0,0,0,28,12ZM23,3V17H9V3Zm2,26H7V27a1,1,0,0,1,1-1H24a1,1,0,0,1,1,1Zm4,0H27V27a3,3,0,0,0-3-3H8a3,3,0,0,0-3,3v2H3V15a1,1,0,0,1,1-1H7v3H5.5v2h21V17H25V14h3a1,1,0,0,1,1,1Z"/><rect x="11" y="13" width="10" height="2"/><rect x="15" y="5" width="6" height="2"/><rect x="11" y="5" width="2.5" height="2"/><rect x="11" y="9" width="10" height="2"/></svg>