<svg id="OBJECT" xmlns="http://www.w3.org/2000/svg" viewBox="0 0 32 32"><path d="M30.13,7,25,1.87a3,3,0,0,0-5.06,1.69l-.33,2.29L16.23,9.21,5.06,7.78a1,1,0,0,0-.84.28L1.29,11a1,1,0,0,0,0,1.42l7,7L3,24.69a1,1,0,0,0-.28.59l-.41,3.34a1,1,0,0,0,.29.82,1,1,0,0,0,.7.3h.12l3.34-.41A1,1,0,0,0,7.31,29l5.3-5.31,7,7a1,1,0,0,0,1.42,0l2.93-2.93a1,1,0,0,0,.28-.84L22.79,15.77l3.36-3.36,2.28-.33A3,3,0,0,0,30.13,7Zm-9.35,8.85,1.09,8.42L7.71,10.13l8.42,1.09ZM6.14,27.38l-1.73.21.21-1.73L9.69,20.8l1.51,1.51ZM20.3,28.59,3.41,11.7l1.52-1.52L21.82,27.07ZM21.73,14,18,10.27l2.52-2.54,3.74,3.74ZM29,9.43a1,1,0,0,1-.8.67h0L26,10.41,21.59,6l.31-2.12a1,1,0,0,1,1.66-.57l5.15,5.16A.93.93,0,0,1,29,9.43Z"/></svg>