<svg id="OBJECT" xmlns="http://www.w3.org/2000/svg" viewBox="0 0 32 32"><path d="M28,1H10.24A4.06,4.06,0,0,0,7.41,2.17L2.17,7.41A4,4,0,0,0,1,10.24V28a3,3,0,0,0,3,3H28a3,3,0,0,0,3-3V4A3,3,0,0,0,28,1ZM23,29H9V18a1,1,0,0,1,1-1H22a1,1,0,0,1,1,1Zm6-1a1,1,0,0,1-1,1H25V18a3,3,0,0,0-3-3H10a3,3,0,0,0-3,3V29H4a1,1,0,0,1-1-1V10.24a2,2,0,0,1,.59-1.41L8.83,3.59A2,2,0,0,1,10.24,3H28a1,1,0,0,1,1,1Z"/><rect x="18" y="6" width="3" height="2"/><rect x="23" y="6" width="3" height="2"/><rect x="15.5" y="20" width="5" height="2"/><rect x="11.5" y="20" width="2.5" height="2"/><rect x="11.5" y="24" width="9" height="2"/></svg>