<svg id="OBJECT" xmlns="http://www.w3.org/2000/svg" viewBox="0 0 32 32"><path d="M28.5,13A2.5,2.5,0,0,0,31,10.5v-7A2.5,2.5,0,0,0,28.5,1H3.5A2.5,2.5,0,0,0,1,3.5v7A2.5,2.5,0,0,0,3.5,13H4v6H3.5A2.5,2.5,0,0,0,1,21.5v7A2.5,2.5,0,0,0,3.5,31h25A2.5,2.5,0,0,0,31,28.5v-7A2.5,2.5,0,0,0,28.5,19H28V13ZM3,10.5v-7A.5.5,0,0,1,3.5,3h25a.5.5,0,0,1,.5.5V6H15V8H29v2.5a.5.5,0,0,1-.5.5H3.5A.5.5,0,0,1,3,10.5Zm26,11V24H15v2H29v2.5a.5.5,0,0,1-.5.5H3.5a.5.5,0,0,1-.5-.5v-7a.5.5,0,0,1,.5-.5h25A.5.5,0,0,1,29,21.5ZM26,15H20v2h6v2H6V17h6V15H6V13H26Z"/><rect x="5" y="6" width="3" height="2"/><rect x="10" y="6" width="3" height="2"/><rect x="5" y="24" width="3" height="2"/><rect x="10" y="24" width="3" height="2"/></svg>