<svg id="OBJECT" xmlns="http://www.w3.org/2000/svg" viewBox="0 0 32 32"><path d="M28.5,12.5H28A12.48,12.48,0,0,0,27,10l.36-.36a2.5,2.5,0,0,0,0-3.54L25.9,4.69a2.5,2.5,0,0,0-3.54,0L22,5.05a12.48,12.48,0,0,0-2.5-1V3.5A2.5,2.5,0,0,0,17,1H15a2.5,2.5,0,0,0-2.5,2.5V4a12.48,12.48,0,0,0-2.5,1l-.36-.36a2.5,2.5,0,0,0-3.54,0L4.69,6.1a2.5,2.5,0,0,0,0,3.54l.36.36a12.48,12.48,0,0,0-1,2.5H3.5A2.5,2.5,0,0,0,1,15v2a2.5,2.5,0,0,0,2.5,2.5H4a12.48,12.48,0,0,0,1,2.5l-.36.36a2.5,2.5,0,0,0,0,3.54L6.1,27.31a2.5,2.5,0,0,0,3.54,0L10,27A12.48,12.48,0,0,0,12.5,28v.5A2.5,2.5,0,0,0,15,31h2a2.5,2.5,0,0,0,2.5-2.5V28A12.48,12.48,0,0,0,22,27l.36.36a2.5,2.5,0,0,0,3.54,0l1.41-1.41a2.5,2.5,0,0,0,0-3.54L27,22A12.48,12.48,0,0,0,28,19.5h.5A2.5,2.5,0,0,0,31,17V15A2.5,2.5,0,0,0,28.5,12.5ZM29,17a.5.5,0,0,1-.5.5H27.22a1,1,0,0,0-1,.78,10.35,10.35,0,0,1-1.39,3.35A1,1,0,0,0,25,22.87l.91.91a.49.49,0,0,1,.15.35.51.51,0,0,1-.15.36L24.49,25.9a.51.51,0,0,1-.36.15.49.49,0,0,1-.35-.15L22.87,25a1,1,0,0,0-1.24-.14,10.35,10.35,0,0,1-3.35,1.39,1,1,0,0,0-.78,1V28.5a.5.5,0,0,1-.5.5H15a.5.5,0,0,1-.5-.5V27.22a1,1,0,0,0-.78-1,10.35,10.35,0,0,1-3.35-1.39A1,1,0,0,0,9.13,25l-.91.91a.49.49,0,0,1-.35.15.51.51,0,0,1-.36-.15L6.1,24.49A.51.51,0,0,1,6,24.13a.49.49,0,0,1,.15-.35L7,22.87a1,1,0,0,0,.14-1.24,10.35,10.35,0,0,1-1.39-3.35,1,1,0,0,0-1-.78H3.5A.5.5,0,0,1,3,17V15a.5.5,0,0,1,.5-.5H4.78a1,1,0,0,0,1-.78,10.35,10.35,0,0,1,1.39-3.35A1,1,0,0,0,7,9.13L6.1,8.22A.49.49,0,0,1,6,7.87a.51.51,0,0,1,.15-.36L7.51,6.1A.51.51,0,0,1,7.87,6a.49.49,0,0,1,.35.15L9.13,7a1,1,0,0,0,1.24.14,10.35,10.35,0,0,1,3.35-1.39,1,1,0,0,0,.78-1V3.5A.5.5,0,0,1,15,3h2a.5.5,0,0,1,.5.5V4.78a1,1,0,0,0,.78,1,10.35,10.35,0,0,1,3.35,1.39A1,1,0,0,0,22.87,7l.91-.91A.49.49,0,0,1,24.13,6a.51.51,0,0,1,.36.15L25.9,7.51a.51.51,0,0,1,.15.36.49.49,0,0,1-.15.35L25,9.13a1,1,0,0,0-.14,1.24,10.35,10.35,0,0,1,1.39,3.35,1,1,0,0,0,1,.78H28.5a.5.5,0,0,1,.5.5Z"/><path d="M16,8a8,8,0,1,0,8,8A8,8,0,0,0,16,8Zm0,14a6,6,0,1,1,6-6A6,6,0,0,1,16,22Z"/></svg>