<svg id="OBJECT" xmlns="http://www.w3.org/2000/svg" viewBox="0 0 32 32"><path d="M27.75,6.34A1,1,0,0,0,27,6H25a9.15,9.15,0,0,1-6.8-3L16.74,1.32a1,1,0,0,0-1.48,0L13.78,3A9.15,9.15,0,0,1,7,6H5a1,1,0,0,0-.75.34A13,13,0,0,0,1,15,15.76,15.76,0,0,0,13.07,30.32l2.69.66a1,1,0,0,0,.48,0l2.69-.66A15.76,15.76,0,0,0,31,15,13,13,0,0,0,27.75,6.34Zm-9.29,22L16,29l-2.46-.6A13.77,13.77,0,0,1,3,15,11.05,11.05,0,0,1,5.46,8H7a11.16,11.16,0,0,0,8.29-3.7L16,3.49l.73.81A11.16,11.16,0,0,0,25,8h1.52A11.05,11.05,0,0,1,29,15,13.77,13.77,0,0,1,18.46,28.38Z"/><path d="M25.83,10.51l-.49-.87-1.74,1,.49.87A7.05,7.05,0,0,1,25,15v1h2V15A9,9,0,0,0,25.83,10.51Z"/><path d="M6.17,10.51A9,9,0,0,0,5,15v1H7V15a7.05,7.05,0,0,1,.91-3.47l.49-.87-1.74-1Z"/><path d="M16,11a7,7,0,1,0,7,7A7,7,0,0,0,16,11Zm0,12a5,5,0,1,1,5-5A5,5,0,0,1,16,23Z"/><path d="M15.36,17.84l-1.22-1.22L12.73,18,14.65,20a1,1,0,0,0,1.42,0l3.2-3.21-1.41-1.41Z"/></svg>