<svg id="OBJECT" xmlns="http://www.w3.org/2000/svg" viewBox="0 0 32 32"><rect x="13.23" y="13.3" width="2" height="8.94" transform="translate(-8.4 15.27) rotate(-45)"/><rect x="18.05" y="12.86" width="2" height="5.31" transform="translate(-5.39 18.01) rotate(-45)"/><rect x="14.52" y="10.69" width="2" height="2.58" transform="translate(-3.93 14.48) rotate(-45)"/><path d="M30,5.71,26.29,2A3.29,3.29,0,0,0,22,1.65L18.12,4.48a3.29,3.29,0,0,0-4.46.18l-9,9a3.28,3.28,0,0,0-.18,4.46L1.65,22A3.29,3.29,0,0,0,2,26.29L5.71,30a3.3,3.3,0,0,0,4.31.33l3.86-2.83a3.28,3.28,0,0,0,4.46-.18l2.74-2.73L22.49,26l-1,1,1.42,1.41,5.5-5.5L27,21.5l-1,1-1.42-1.41,2.73-2.74a3.28,3.28,0,0,0,.18-4.46L30.35,10A3.29,3.29,0,0,0,30,5.71Zm-21.19,23a1.3,1.3,0,0,1-1.7-.13L3.39,24.87a1.3,1.3,0,0,1-.13-1.7l2.63-3.59,6.53,6.53ZM24.61,23.9l-.71.71L22.49,23.2l.71-.71Zm1.32-7-9,9a1.32,1.32,0,0,1-1.86,0l-9-9a1.33,1.33,0,0,1,0-1.86l9-9a1.32,1.32,0,0,1,1.86,0l9,9a1.33,1.33,0,0,1,0,1.86Zm2.81-8.1-2.63,3.59L19.58,5.89l3.59-2.63a1.3,1.3,0,0,1,1.7.13l3.74,3.74A1.3,1.3,0,0,1,28.74,8.83Z"/></svg>