<svg id="OBJECT" xmlns="http://www.w3.org/2000/svg" viewBox="0 0 32 32"><path d="M21,10H19V1H17V2H14a1,1,0,0,0-.79.39L6.51,11h-3A2.5,2.5,0,0,0,1,13.5v5A2.5,2.5,0,0,0,3.5,21h3l6.7,8.61A1,1,0,0,0,14,30h3v1h2V22h2a3,3,0,0,0,3-3V13A3,3,0,0,0,21,10ZM3,18.5v-5a.5.5,0,0,1,.5-.5H6v6H3.5A.5.5,0,0,1,3,18.5ZM14.49,28,8,19.66V12.34L14.49,4H17V28ZM22,19a1,1,0,0,1-1,1H19V12h2a1,1,0,0,1,1,1Z"/><rect x="27" y="15" width="4" height="2"/><rect x="27.25" y="19.33" width="2" height="4.01" transform="translate(-6.46 28.28) rotate(-48.37)"/><rect x="26.25" y="9.67" width="4.01" height="2" transform="translate(0.05 21.47) rotate(-41.65)"/><rect x="11" y="12.5" width="2" height="7"/></svg>