<svg id="OBJECT" xmlns="http://www.w3.org/2000/svg" viewBox="0 0 32 32"><path d="M30,6H23V4a3,3,0,0,0-3-3H12A3,3,0,0,0,9,4V6H2A1,1,0,0,0,1,7V17a3,3,0,0,0,1,2.22V28a3,3,0,0,0,3,3H27a3,3,0,0,0,3-3V19.22A3,3,0,0,0,31,17V7A1,1,0,0,0,30,6ZM11,4a1,1,0,0,1,1-1h8a1,1,0,0,1,1,1V6H11ZM3,8H29v9a1,1,0,0,1-1,1H4a1,1,0,0,1-1-1ZM21,20h2v3.38l-1,.5-1-.5ZM9,20h2v3.38l-1,.5-1-.5Zm19,8a1,1,0,0,1-1,1H5a1,1,0,0,1-1-1V20H7v4a1,1,0,0,0,.55.89l2,1a1,1,0,0,0,.9,0l2-1A1,1,0,0,0,13,24V20h6v4a1,1,0,0,0,.55.89l2,1a1,1,0,0,0,.9,0l2-1A1,1,0,0,0,25,24V20h3Z"/><path d="M11,13.5A2.5,2.5,0,0,0,13.5,16h5A2.5,2.5,0,0,0,21,13.5V12h2V10H9v2h2Zm8,0a.5.5,0,0,1-.5.5h-5a.5.5,0,0,1-.5-.5V12h6Z"/></svg>