<svg id="OBJECT" xmlns="http://www.w3.org/2000/svg" viewBox="0 0 32 32"><path d="M8,15H24A7,7,0,0,0,24,1H8A7,7,0,0,0,8,15ZM8,3H24a5,5,0,0,1,0,10H8A5,5,0,0,1,8,3Z"/><path d="M8,11h3a3,3,0,0,0,0-6H8a3,3,0,0,0,0,6ZM8,7h3a1,1,0,0,1,0,2H8A1,1,0,0,1,8,7Z"/><path d="M24,17H8A7,7,0,0,0,8,31H24a7,7,0,0,0,0-14Zm0,12H8A5,5,0,0,1,8,19H24a5,5,0,0,1,0,10Z"/><path d="M24,21H21a3,3,0,0,0,0,6h3a3,3,0,0,0,0-6Zm0,4H21a1,1,0,0,1,0-2h3a1,1,0,0,1,0,2Z"/><rect x="16.04" y="7" width="10" height="2"/><rect x="6" y="23" width="10" height="2"/></svg>