<svg id="OBJECT" xmlns="http://www.w3.org/2000/svg" viewBox="0 0 32 32"><path d="M18,14H6a1,1,0,0,0-1,1v6a1,1,0,0,0,1,1H18a1,1,0,0,0,1-1V15A1,1,0,0,0,18,14ZM7,16h6v4H7Zm10,4H15V16h2Z"/><path d="M30.57,10.18a1,1,0,0,0-.92-.12L23,12.57A3,3,0,0,0,20,10H15V9a3,3,0,0,0-3-3H1V8H12a1,1,0,0,1,1,1v1H4a3,3,0,0,0-3,3V23a3,3,0,0,0,3,3H20a3,3,0,0,0,3-2.57l6.69,2.51A1,1,0,0,0,30,26a1,1,0,0,0,1-1V11A1,1,0,0,0,30.57,10.18ZM21,23a1,1,0,0,1-1,1H4a1,1,0,0,1-1-1V13a1,1,0,0,1,1-1H20a1,1,0,0,1,1,1Zm8,.56-6-2.25V14.69l6-2.25Z"/><rect x="25" y="16.5" width="2" height="3"/></svg>