<svg id="OBJECT" xmlns="http://www.w3.org/2000/svg" viewBox="0 0 32 32"><path d="M28,7h-.63L20.65,1.24a1,1,0,0,0-1.3,0L16,4.11,12.65,1.24a1,1,0,0,0-1.3,0L4.63,7H4a3,3,0,0,0-3,3V28a3,3,0,0,0,3,3H28a3,3,0,0,0,3-3V10A3,3,0,0,0,28,7ZM20,3.32,24.3,7H19.37L17.54,5.43Zm-8,0L16.3,7H7.7ZM3,14H8a1,1,0,0,1,1,1v8a1,1,0,0,1-1,1H3ZM28,29H4a1,1,0,0,1-1-1V26H8a3,3,0,0,0,3-3V15a3,3,0,0,0-3-3H3V10A1,1,0,0,1,4,9H28a1,1,0,0,1,1,1v5.5H24.5a3.5,3.5,0,0,0,0,7H29V28A1,1,0,0,1,28,29Zm1-11.5v3H24.5a1.5,1.5,0,0,1,0-3Z"/><rect x="5" y="16" width="2" height="6"/></svg>