<svg id="OBJECT" xmlns="http://www.w3.org/2000/svg" viewBox="0 0 32 32"><path d="M28.5,1H3.5A2.5,2.5,0,0,0,1,3.5v25A2.5,2.5,0,0,0,3.5,31h25A2.5,2.5,0,0,0,31,28.5V3.5A2.5,2.5,0,0,0,28.5,1ZM3.5,3h25a.5.5,0,0,1,.5.5V7H3V3.5A.5.5,0,0,1,3.5,3Zm25,26H3.5a.5.5,0,0,1-.5-.5V9H29V28.5A.5.5,0,0,1,28.5,29Z"/><rect x="19" y="25" width="8" height="2"/><rect x="19" y="22" width="8" height="2"/><rect x="21" y="19" width="6" height="2"/><path d="M16,19H6a1,1,0,0,0-1,1v6a1,1,0,0,0,1,1H16a1,1,0,0,0,1-1V20A1,1,0,0,0,16,19Zm-1,6H7V21h8Z"/><path d="M26,11H6a1,1,0,0,0-1,1v4a1,1,0,0,0,1,1H26a1,1,0,0,0,1-1V12A1,1,0,0,0,26,11Zm-1,4H7V13H25Z"/><rect x="20" y="4" width="3" height="2"/><rect x="25" y="4" width="3" height="2"/></svg>